<svg xmlns="http://www.w3.org/2000/svg" viewBox="0 0 383.28 374.87"><defs><style>.cls-1{fill:#fff;}</style></defs><g id="Capa_2" data-name="Capa 2"><g id="Capa_1-2" data-name="Capa 1"><path class="cls-1" d="M383.28,343.12c-1.72,7.21-4.18,14.05-9.38,19.62-6.87,7.37-15.22,11.53-25.34,11.95-1.62.07-3.24.11-4.86.11q-152.11,0-304.23.07c-14.63,0-26.2-5.16-34.13-17.64a34.24,34.24,0,0,1-5.26-17.7C0,335.29,0,331,.05,326.8s2-6.14,6.14-6.37h.75c8.7-.22,8.7-.22,8.7-8.81q0-95.61,0-191.22c0-14.08,7.8-24.64,20.42-27.73,4.66-1.13,9.43-.77,14.16-.8,1.6,0,3.2,0,5,0-1.15-4-2.29-7.58-1.89-11.39.9-8.77,5.38-15,13.14-19.14q41.63-22,83.23-44.06Q161.3,11.14,172.85,5c12.37-6.57,24.78-6.69,37.21-.2,4.64,2.42,9.26,4.86,13.86,7.36,3.61,2,4.76,5,3.22,8s-4.77,3.76-8.38,1.91c-4.66-2.38-9.25-4.89-13.89-7.32q-13.23-7-26.48,0Q125.07,43,71.73,71.28c-4.49,2.37-7.2,5.82-7.15,10.92,0,4.94,2.72,8.32,7.06,10.61q53.54,28.29,107,56.64c8.56,4.53,17.18,4.58,25.77.12,8-4.13,15.82-8.46,23.83-12.49,2.71-1.36,2.27-2.3.58-4.21C215.93,118.31,203.13,103.66,190.3,89c-.74-.84-1.5-1.67-2.21-2.54-2.53-3.11-2.56-6.49-.09-8.64s5.9-1.73,8.54,1.26q13.86,15.72,27.64,31.51c5,5.72,10.13,11.36,15,17.19,1.64,2,2.87,1.94,5,.82q33.45-17.88,67-35.54c4.58-2.41,7.57-5.78,7.57-11.07s-3.08-8.66-7.62-11q-35.06-18.47-70-37c-1.54-.81-3.21-1.49-4.06-3.15a5.44,5.44,0,0,1,.51-6.31c1.83-2.23,4.28-2.53,6.78-1.45s4.65,2.38,7,3.6q32.54,17.22,65.06,34.45c11.47,6.09,15.71,15.83,12.29,28.45-.5,1.83-.31,2.39,1.67,2.38a122.35,122.35,0,0,1,13.82.34A26.07,26.07,0,0,1,367.6,118c.2,20.58.07,41.16.08,61.74q0,68.11-.09,136.21c0,3.59.87,4.84,4.52,4.55,4-.33,8.27-.73,11.17,3.17ZM93.57,117.62c-.15-.26-.21-.54-.38-.63-8.58-4.55-16.76-10.45-25.88-13.2-7.34-2.22-15.82-.71-23.79-.68-10.27,0-16.63,6.38-16.64,16.57q0,98.61-.07,197.23c0,2.8.74,3.56,3.55,3.56q161.29-.11,322.6,0c2.81,0,3.55-.77,3.55-3.57q-.12-98.61-.08-197.23c0-10.17-6.38-16.47-16.64-16.57-7-.06-14,0-21,0a6.7,6.7,0,0,0-2.93.3c-8.8,4.54-17.55,9.17-26.6,13.93,1.7,1.13,3.09.7,4.38.71,13.22,0,26.44,0,39.67,0,6.6,0,8.13,1.54,8.13,8.18v171c0,6.61-1.55,8.17-8.14,8.17q-115.65,0-231.29,0a17.08,17.08,0,0,1-3.72-.26A5.14,5.14,0,0,1,94,299.5a5.08,5.08,0,0,1,5-5.16,44.6,44.6,0,0,1,4.48-.12H325.32c5.62,0,4.92.55,4.92-5.06q0-72.6,0-145.21c0-4-.06-8,0-12,0-1.83-.42-2.72-2.48-2.71q-22.65.09-45.28,0c-2,0-2.58.7-2.55,2.62.1,5.24,0,10.48,0,15.72.12,24-10.38,41.27-32.3,51.41-.84.39-2.17.45-2.09,1.79.25,4.14-1,8.36,1.54,12.35,3.58,5.69,7,11.53,10.08,17.49a16.89,16.89,0,0,1-11.83,24.61,32.54,32.54,0,0,1-6.33.3c-15.24,0-23-13.49-15.42-26.77,3-5.31,6.05-10.61,9.17-15.86a12.19,12.19,0,0,0,1.58-5.63c.22-3.06-.69-3.39-3.49-2.62-29.72,8.18-59.11,6.91-88.29-2.94-20.1-6.79-33.57-19.61-38.24-40.68-2.07-9.34-.89-18.9-1-28.36,0-2.47-.51-3.48-3.25-3.46q-21.9.2-43.79,0c-2.67,0-3.32.87-3.31,3.42Q53.11,211.8,53,291c0,2.69.89,3.36,3.43,3.31q10.28-.21,20.58,0c3.46.08,5.44,2.23,5.5,5.36s-1.91,5.25-5.26,5.69a16.72,16.72,0,0,1-2.24.08q-12.72,0-25.45,0c-6.07,0-7.73-1.7-7.73-7.83V125.83c0-6.12,1.64-7.75,7.78-7.76,13.35,0,26.69,0,40,0C91,118,92.34,118.47,93.57,117.62Zm98.17,246h151.9a37.15,37.15,0,0,0,8.93-.64c12.44-3.05,19.45-13,19.56-27.37,0-3-.63-4-3.84-4q-63.42.17-126.84,0c-2.5,0-3.6.63-4.41,3.2-3.35,10.6-12.54,17.93-23.58,18.21-14.58.37-29.2.51-43.77-.05-11.44-.44-19.34-6.89-23.15-17.64-1.14-3.23-2.67-3.72-5.59-3.72q-62.49.12-125,.05c-1,0-2,.05-3,0-1.28,0-1.67.59-1.74,1.82-.64,10.19,1.9,19,10.52,25.37,5.17,3.79,11.05,4.77,17.32,4.76Q115.41,363.52,191.74,363.58ZM114.56,128.21c0,8.12-.26,15.59,0,23,.71,17.26,8.75,30.2,24.69,37,30,12.74,60.88,13.93,92.17,4.7,2.19-.64,2.93-1.54,2.91-3.84-.11-13.22,0-26.44-.08-39.66,0-.78.43-1.76-.83-2.48-7.9,4.18-15.87,8.5-23.94,12.64-11.66,6-23.45,6.19-35.18.24-6.78-3.44-13.45-7.07-20.17-10.63C141.2,142.33,128.23,135.45,114.56,128.21Zm131,59.38a40.43,40.43,0,0,0,20.13-21.35c5.08-12.17,2.39-24.89,3.18-38.05-7.79,4.13-14.81,7.87-21.85,11.54a2.58,2.58,0,0,0-1.48,2.68C245.57,157.24,245.56,172.07,245.56,187.59ZM191.67,341.94c6.61,0,13.21,0,19.81,0a15.18,15.18,0,0,0,13.65-7.68c1-1.62,1.2-2.64-1.34-2.63q-32.14.08-64.29,0c-2.6,0-2.27,1.1-1.3,2.65a15.24,15.24,0,0,0,13.67,7.66C178.47,342,185.07,341.94,191.67,341.94Zm48.44-118.7a15.14,15.14,0,0,0-1.1,1.37c-2.06,3.55-4.21,7.06-6.13,10.68-2.46,4.64.09,8.86,5.34,9a37.56,37.56,0,0,0,4.11,0c4.39-.32,7-4.33,5-8.26C245.22,231.72,242.62,227.62,240.11,223.24Z"/><path class="cls-1" d="M131.78,268q26.57,0,53.14,0a19.28,19.28,0,0,1,4.1.23,5.48,5.48,0,0,1,.6,10.48,14.89,14.89,0,0,1-4.43.49q-53.7,0-107.41,0a13.58,13.58,0,0,1-4.42-.52,5,5,0,0,1-3.56-5.53,5.1,5.1,0,0,1,4.35-4.93,21.66,21.66,0,0,1,4.11-.21Q105,268,131.78,268Z"/><path class="cls-1" d="M112.7,255.57q-17.92,0-35.86,0c-4.42,0-7-2-7.1-5.41s2.59-5.8,7.13-5.8q36,0,72.1,0c4.44,0,6.95,2,7.05,5.46.1,3.65-2.43,5.74-7.08,5.75Q130.82,255.59,112.7,255.57Z"/></g></g></svg>