<svg xmlns="http://www.w3.org/2000/svg" viewBox="0 0 371.24 371.25"><g id="Capa_2" data-name="Capa 2"><g id="Capa_1-2" data-name="Capa 1"><path d="M357.15,200.44c-2.59-11.55-5-22.47-7.45-33.39-.29-1.32-.59-2.2-2.14-1.34L316.29,183.1c2.33,1.55,4.61,1.63,6.69,2.21,6.69,1.87,8.16,5.72,4.14,11.25a273.72,273.72,0,0,1-38,42.16q-57.36,51.93-133.44,66.22c-.74.14-1.47.29-2.21.41-9.52,1.47-9.48,1.47-10.33-8.29-.14-1.59.23-2.22,1.82-2.46,3.7-.57,7.35-1.46,11-1.91,2.48-.3,3.2-1.47,3.53-3.83q6.48-45.15,13.16-90.27c.92-6.28-.55-12.43-.78-18.64-.11-3.08-.54-6.15-.85-9.43-1.62.36-2.06,1.61-2.76,2.52-8.09,10.6-16.26,21.16-24.18,31.89-3.28,4.46-7.21,7-12.84,7-3.73,0-7.46.61-11.18.91-5.21.42-9.35-1.45-11.94-6a11.3,11.3,0,0,1,.84-13q24-32.76,48-65.45c3.92-5.32,9.47-8.36,15.67-10.34-10.24-17-9.83-30.48,1.19-41.53a30.08,30.08,0,0,1,36.21-4.63c13,7.72,17.39,21,12.24,38.72,1.41-1,2.45-1.69,3.43-2.45Q246.38,92,267,75.86c7.62-5.94,14.43-4.81,19.95,3.24q2.55,3.7,5.05,7.43c4.53,6.8,3.55,13.06-2.92,18q-25.27,19.31-50.63,38.5c-2.31,1.74-3.31,3.37-2.79,6.46,1.31,7.74,2.2,15.55,3.09,23.35.21,1.85,1.29,2.49,2.65,3.19,7.08,3.67,14.1,7.46,21.22,11a14.08,14.08,0,0,1,7.58,9.19c3.26,11.2,6.64,22.36,10.15,34.14a257.13,257.13,0,0,0,32.72-35.11c-4.75-1.25-9.12-2.53-13.55-3.51-3.08-.69-5.46-2-6-5.29s1.41-5.3,4.14-6.81q25.68-14.2,51.32-28.47c5.51-3,9.05-1.46,10.43,4.67q5.81,25.69,11.47,51.43c1.3,5.86-2.71,9.37-8.52,7.54-3.09-1-6.23-1.83-9.2-3.1-2.58-1.1-3.92-.44-5.44,1.84A426.6,426.6,0,0,1,314,257.89c-30.89,35.39-66.5,64.55-110.1,83.09a237.21,237.21,0,0,1-74.1,18.14c-3.29.27-4-.79-4-3.79-.16-7.95-.29-8,6.82-8.63,35.17-3.06,67.57-14.48,97.67-32.62,37.54-22.61,67.82-53.06,93.9-87.92,5.75-7.69,11.11-15.66,16.58-23.54,3.79-5.47,4.92-5.91,11.15-3.84C353.42,199.29,355,199.75,357.15,200.44Zm-238.64.62c4.19-.37,7.41-.88,10.63-.88,3,0,4.66-1.47,6.33-3.69,11.4-15.14,22.92-30.2,34.35-45.31,1.94-2.56,4.1-4.52,7.54-3.44s4.23,3.85,4.49,7c.66,8.45,1.55,16.88,2.08,25.34.38,6,1.72,11.91.89,17.91-1.77,12.71-3.72,25.4-5.57,38.1-2.42,16.64-4.78,33.3-7.26,49.94-.35,2.36-.26,3.31,2.47,2.32a62.47,62.47,0,0,1,10-2.93c3.46-.63,4.43-2.59,5-5.76q6.71-39.79,13.71-79.56c1.3-7.43,4.55-9,11.24-5.76,8.16,4,16.25,8.17,24.52,11.94a16.9,16.9,0,0,1,9.55,10.76c3,9.1,6.54,18,9.52,27.14,1.08,3.28,2.21,3.05,4.36,1.17a49.17,49.17,0,0,1,5.61-4.35c2-1.29,2.35-2.63,1.63-5q-5.43-17.47-10.47-35.08a6.41,6.41,0,0,0-3.68-4.28c-7.68-3.87-15.25-7.94-22.94-11.79a8.39,8.39,0,0,1-5.13-7.13c-1.24-10.52-2.67-21-4.23-31.49-.64-4.31.64-7.24,4.19-9.9,16.28-12.17,32.39-24.56,48.55-36.89,6.95-5.29,6.84-5.23,2.13-12.42-1.59-2.42-2.58-2.78-5-.85-15.52,12.34-31.2,24.47-46.78,36.73a12.59,12.59,0,0,1-7.16,2.76c-12.68.95-25.34,2.14-38,3.07a21.12,21.12,0,0,0-16.58,9.37c-10.07,14.1-20.43,28-30.67,42Zm83.24,77.84a5.6,5.6,0,0,0,1.4-.14,261.22,261.22,0,0,0,44-22.74c1.89-1.21,1.54-2.44,1-4.09Q242.5,236.32,237,220.66a5.87,5.87,0,0,0-3.33-3.69c-5.52-2.57-11-5.17-16.42-8-2.85-1.52-3.45-.47-3.89,2.18-2.37,14.1-4.87,28.19-7.3,42.28C204.62,261.85,203.21,270.28,201.75,278.9ZM194.89,79.82a17.92,17.92,0,1,0,18,17.61A17.86,17.86,0,0,0,194.89,79.82Z" transform="translate(0 0)"/><path d="M122.7,271.89c-.39,3.7-3.6,5.63-6,8-1.65,1.63-1.93,2.87-1.11,5.12,1,2.68,2.76,2.37,4.72,2.38,10.84,0,11.46.64,11.46,11.34,0,5.49,0,11,0,16.46,0,6.29-1.9,8.13-8.32,8.15-1.12,0-2.25.08-3.36,0-2.15-.18-3.6.15-4.62,2.57s-.09,3.56,1.41,5.06c8,7.95,8,8.62-.07,16.64-4.06,4.06-8.07,8.16-12.18,12.15-3.4,3.3-6.32,3.25-9.76,0a42.81,42.81,0,0,1-3.42-3.45c-1.43-1.72-2.74-2.21-5.08-1.3-2.52,1-2.52,2.56-2.52,4.64,0,11-.59,11.59-11.58,11.59-5.74,0-11.47,0-17.21,0-4.92,0-7-2.18-7.14-7.05a39.53,39.53,0,0,1,0-4.49c.24-2.37-.46-3.7-2.84-4.82-2.65-1.25-3.62.36-5,1.71-7.56,7.53-8.61,7.53-16.17,0-4.15-4.14-8.33-8.25-12.42-12.44-3.33-3.4-3.31-6.32-.08-9.76a44.66,44.66,0,0,1,3.45-3.43c1.67-1.41,2.34-2.66,1.34-5.05s-2.45-2.6-4.59-2.6C.53,323.31,0,322.75,0,311.78c0-5.61,0-11.22,0-16.83,0-5.45,2.06-7.5,7.39-7.55a35.21,35.21,0,0,1,4.48,0c2.34.27,3.45-.64,4.45-2.82s0-3.36-1.34-4.74c-8.11-8.16-8.09-8.69.13-16.91,3.88-3.88,7.75-7.77,11.65-11.63s6.63-3.77,10.56,0c1,1,2,1.9,2.91,2.91,1.38,1.5,2.52,2.64,5,1.49,2.3-1.06,2.69-2.34,2.69-4.55,0-11.3.46-11.74,11.77-11.74,5.74,0,11.47-.05,17.21,0,4.66.05,6.81,2.24,6.92,6.89,0,1.5.07,3,0,4.49-.11,2.2,0,3.87,2.67,4.93,2.48,1,3.58-.06,5-1.51,7.8-7.77,8.7-7.75,16.42,0,4.06,4.06,8.1,8.13,12.18,12.17A7.36,7.36,0,0,1,122.7,271.89Zm-14.92-.69c-.35-.38-.75-.86-1.18-1.3-1.76-1.77-3.6-3.46-5.26-5.32-1.24-1.39-2.17-1.27-3.3.06-.8.95-1.74,1.79-2.63,2.66-3.38,3.3-5.15,3.59-9.3,1.43a50.08,50.08,0,0,0-8.24-3.47c-5-1.55-6-2.94-6-8,0-5.77,0-5.77-6-5.77h-.37c-5.63,0-5.63,0-5.67,5.69,0,5.11-1,6.48-5.95,8.07a51.85,51.85,0,0,0-8.26,3.45c-4.2,2.22-5.92,1.93-9.3-1.35-4.38-4.27-4.38-4.27-8.81.15-4,4-4,4-.06,8,3.69,3.73,4,5.38,1.59,9.89a49.66,49.66,0,0,0-3.44,8.26c-1.49,4.62-2.94,5.67-7.86,5.72-5.8.06-5.8.06-5.8,5.93v.38c0,5.67,0,5.67,5.67,5.7,5.16,0,6.4,1,8.1,5.91a70.87,70.87,0,0,0,3.31,7.9c2.31,4.72,2.15,6.26-1.46,9.93-4,4.12-4,4.12.13,8.29s4.27,4.26,8.55.08c3.49-3.41,5.14-3.58,9.63-1.39a70.94,70.94,0,0,0,7.9,3.32c5.12,1.79,6,3,6.07,8.38s0,5.46,5.53,5.46h.74c5.7,0,5.79,0,5.7-5.63-.07-3.57.72-6.57,4.47-7.69a58.52,58.52,0,0,0,11-4.57c2.48-1.34,4.77-.83,6.93.9,2,1.59,3.35,5.12,5.76,4.63,2.16-.43,3.69-3.49,5.73-5.11,2.37-1.9,2.27-3.44-.07-5.17a23,23,0,0,1-1.87-1.83c-2.89-2.63-3.49-5.54-1.42-9A40.14,40.14,0,0,0,106,317.2c1.5-4.72,2.94-5.78,7.77-5.82,6-.06,6-.06,6-6.13,0-5.83,0-5.91-5.85-5.84-3.42,0-6.32-.76-7.43-4.3a66.4,66.4,0,0,0-4.7-11.37c-1.32-2.52-.73-4.84,1.12-6.87,1.18-1.28,2.47-2.47,3.69-3.72C107.1,272.63,107.77,272.19,107.78,271.2Z" transform="translate(0 0)"/><path d="M371.24,32.76a7.35,7.35,0,0,1-2.49,5.67c-4.28,4.37-8.44,8.85-12.85,13.07a5.64,5.64,0,0,0-1.7,5.66c1.09,6.26,2,12.55,3.12,18.8.48,2.72-.07,5-2.29,6.64s-4.65,1.4-7,.09c-4.9-2.72-9.93-5.23-14.66-8.22-2.94-1.85-5.21-1.69-8.08.09-4.64,2.9-9.58,5.32-14.35,8-2.49,1.41-4.93,1.8-7.33,0-2.21-1.71-2.65-4-2.17-6.68,1.05-5.88,1.79-11.83,2.93-17.69.58-2.95.2-5.12-2.12-7.28-4.28-4-8.23-8.35-12.34-12.52-1.86-1.9-3-4-2.14-6.72s2.9-3.88,5.61-4.27c6-.87,12.05-1.9,18.1-2.71a4.42,4.42,0,0,0,3.89-2.88c2.58-5.8,5.39-11.49,8.05-17.26C324.58,2,326.22.06,329.23,0c3.2-.06,4.91,1.92,6.14,4.62,2.48,5.43,5.15,10.78,7.55,16.25,1.06,2.41,2.4,3.61,5.19,3.91,5.94.63,11.82,1.77,17.73,2.7A5.88,5.88,0,0,1,371.24,32.76ZM343.62,66.51c-.69-4.37-1.09-8.09-1.91-11.7a8.19,8.19,0,0,1,2.52-8.44c2.83-2.72,5.48-5.62,8.54-8.78-4-.63-7.31-1.37-10.65-1.63-4.08-.32-6.6-2.25-8.18-6-1.31-3.1-2.47-6.35-4.8-9.38-1.63,3.45-3.2,6.43-4.46,9.53a8.56,8.56,0,0,1-7.88,5.81c-3.42.31-6.8,1-10.84,1.66,3.23,3.34,6,6.3,8.91,9.17a7.64,7.64,0,0,1,2.24,7.48c-.78,3.87-1.3,7.8-2,12.29,3.56-2,6.69-3.47,9.63-5.3,3.24-2,6.23-1.91,9.44.06C337,63.05,340,64.53,343.62,66.51Z" transform="translate(0 0)"/><path d="M18,18c0-1-.05-2-.05-3,0-9.71,0-9.66,9.71-9.1C29.49,6,30,6.56,30,8.29c-.12,3.23-.07,6.46-.09,9.68l.11-.1H17.92Z" transform="translate(0 0)"/><path d="M18,29.84c-1,0-2,.06-3,.06-9.71,0-9.65,0-9.09-9.72.1-1.81.67-2.35,2.4-2.28C11.57,18,14.8,18,18,18l-.11-.1V30Z" transform="translate(0 0)"/><path d="M29.89,18c1,0,2,0,3,0,9.71,0,9.66,0,9.1,9.71-.1,1.8-.65,2.35-2.39,2.29-3.22-.12-6.45-.07-9.68-.09L30,30V17.87Z" transform="translate(0 0)"/><path d="M65.94,35.94c0-1-.06-2-.06-3,0-9.71,0-9.65,9.72-9.1,1.8.11,2.35.66,2.28,2.4-.12,3.22-.06,6.45-.08,9.68l.11-.1H65.83Z" transform="translate(0 0)"/><path d="M29.9,29.84c0,1,.05,2,.05,3,0,9.72,0,9.66-9.72,9.11-1.81-.11-2.35-.67-2.28-2.4.11-3.23.06-6.46.07-9.69l-.1.11H30Z" transform="translate(0 0)"/><path d="M65.93,47.81c-1,0-2,0-3,0-9.71,0-9.65,0-9.1-9.72.11-1.81.68-2.34,2.4-2.28,3.23.12,6.46.06,9.69.08l-.11-.1V47.92Z" transform="translate(0 0)"/><path d="M77.8,35.94c1,0,2,0,3,0,9.71,0,9.65,0,9.1,9.71-.1,1.8-.66,2.36-2.39,2.29-3.23-.12-6.46-.06-9.68-.08l.1.11V35.84Z" transform="translate(0 0)"/><path d="M77.81,47.81c0,1,0,2,0,3,0,9.71,0,9.65-9.71,9.1-1.81-.1-2.35-.67-2.29-2.4.12-3.22.06-6.45.08-9.68l-.1.11H77.91Z" transform="translate(0 0)"/><path d="M341.4,341.34c0-1,0-2-.06-3,0-9.7,0-9.65,9.72-9.09,1.8.1,2.35.66,2.28,2.39-.11,3.22-.06,6.45-.08,9.68l.11-.1H341.29Z" transform="translate(0 0)"/><path d="M341.39,353.21c-1,0-2,.05-3,.06-9.71,0-9.65,0-9.09-9.72.1-1.81.67-2.35,2.39-2.28,3.23.11,6.46.06,9.69.07l-.11-.1v12.08Z" transform="translate(0 0)"/><path d="M353.26,341.34l3,0c9.71,0,9.65,0,9.1,9.71-.1,1.81-.65,2.36-2.39,2.29-3.22-.11-6.45-.06-9.68-.08l.1.11V341.24Z" transform="translate(0 0)"/><path d="M353.27,353.21c0,1,0,2,.05,3,0,9.71,0,9.66-9.72,9.1-1.81-.1-2.35-.66-2.29-2.39.12-3.23.07-6.46.08-9.69l-.1.11h12.08Z" transform="translate(0 0)"/><path d="M36,305.17a29.93,29.93,0,1,1,29.83,30.12A30,30,0,0,1,36,305.17Zm47.88.05a18,18,0,1,0-18,18.09A18,18,0,0,0,83.83,305.22Z" transform="translate(0 0)"/></g></g></svg>