<svg xmlns="http://www.w3.org/2000/svg" viewBox="0 0 384.82 384.28"><g id="Capa_2" data-name="Capa 2"><g id="Capa_1-2" data-name="Capa 1"><path d="M0,209.85c1.66-2.92,4.21-4.33,7.51-4.91,5.29-.94,10.51-2.29,15.8-3.26,2.23-.41,2.46-1.05,1.2-2.83-3.26-4.6-6.43-9.26-9.59-13.93s-2.88-7,1-10.89q8.34-8.42,16.75-16.74c3.78-3.73,6.16-3.92,10.6-.92,4.66,3.16,9.32,6.33,13.91,9.6,1.91,1.37,2.63,1.17,3.08-1.27,1-5.65,2.42-11.25,3.54-16.89.72-3.63,2.61-6,6.4-6.23,2.07-.12,2-1.24,2.11-2.67,2.08-24.45,10.3-46.56,25.59-65.84,19.94-25.15,45.87-40.17,77.58-45.14a110.06,110.06,0,0,1,27-.77,7.73,7.73,0,0,0,5.86-1.8c4.61-3.65,9.37-7.11,14.08-10.64,6.09-4.56,8.67-4.17,13.33,2q6.09,8.1,12.17,16.23c1.82,2.45,4,4.28,7.25,3.59,3.44-.72,4.82-3.22,5.28-6.48,1.08-7.56,2.14-15.12,3.37-22.66.81-4.94,3.59-6.87,8.45-6.19l34.95,4.94c5.78.82,7.8,3.62,6.95,9.71-1,7.06-2,14.13-3,21.18-.49,3.22-.08,6.08,3,7.86s5.75.56,8.3-1.37Q331,37,339.78,30.48c4.54-3.35,7.82-2.89,11.24,1.63q10.55,13.92,21,28c3.55,4.79,3.07,7.77-1.77,11.45Q361.69,78,353.07,84.35c-2.71,2-4.57,4.39-3.55,8,1,3.4,3.71,4.39,6.89,4.81,7.19,1,14.38,2,21.56,3,5.39.79,7.48,3.76,6.69,9.2q-2.51,17.1-4.94,34.19c-.86,6.05-3.4,8-9.43,7.12-7.18-1-14.37-2-21.56-3.07-3.06-.45-5.78,0-7.57,2.82s-.93,5.7,1,8.3q6.46,8.53,12.86,17.12c3.89,5.22,3.51,8.21-1.57,12q-13.67,10.28-27.36,20.5c-5,3.72-8,3.28-11.75-1.65q-6.48-8.52-12.86-17.12c-1.92-2.6-4.21-4.45-7.6-3.62-3.59.87-4.71,3.76-5.16,7.07q-1.49,10.78-3.05,21.56c-.75,5.19-3.27,7.3-8.46,6.61q-17.69-2.33-35.32-5c-5.76-.87-7.42-3.22-6.68-9.12.84-6.71,1.87-13.39,2.83-20.08.28-2,.64-4,0-6-1.36-4.29-6.29-5.58-10.46-2.58-5.88,4.25-11.63,8.71-17.45,13-5.34,4-8.33,3.57-12.3-1.71q-10.19-13.52-20.29-27.06c-3.81-5.1-3.35-8.14,1.76-12,5.7-4.3,11.39-8.6,17.14-12.84,2.64-1.95,4.26-4.38,3.35-7.71-.86-3.17-3.39-4.36-6.5-4.78-7.07-.94-14.13-2-21.19-3-6.35-.93-8.28-3.35-7.41-9.67q2.37-17.3,5-34.56c.83-5.38,3.58-7.3,8.91-6.55,7.31,1,14.63,2,21.92,3.2,3.15.5,5.8,0,7.56-2.79s1.1-5.48-.8-8Q200.9,55.55,194.5,47c-1.35-1.81-2.81-3.55-2.79-6,0-2.12-1.55-1.54-2.68-1.49-30.35,1.37-56.26,12.8-76.64,35.36C90.07,99.54,80.78,128.9,85.14,161.9c4.08,30.78,19.08,55.52,44.39,73.74,7,5.05,14.28,9.74,18.89,17.43A42,42,0,0,1,154.84,274c.17,8.52,0,17,.1,25.56.05,9.18,5,14.29,14.11,14.35q24.24.15,48.48,0c9.19,0,14-5.1,14.06-14.32,0-7.52-.09-15,0-22.56.26-15.41,6.46-27.81,19.1-36.83,4.48-3.2,9.1-6.23,13.2-9.93,1.3-1.18,2.07-1.07,3.33.23,7.72,7.94,7.77,7.91-1.08,14.39-2.62,1.92-5.31,3.77-8,5.64-9.2,6.46-13.68,15.39-13.81,26.53-.1,7.9,0,15.79,0,23.68,0,8.73-3.51,15.82-10.58,20.92a5,5,0,0,0-2.21,4.7c.07,9-.39,18.06.13,27,.81,14.22-5,27.07-22.69,30.88H177.43c-17.32-5.54-22.5-12.68-22.5-31,0-9.14,0-18.28,0-27.42,0-1.19.36-2.48-1-3.38-9.8-6.48-12.34-16.1-11.78-27.13.2-3.79,0-7.59,0-11.67a7.39,7.39,0,0,0-1.2.63q-3.35,3.29-6.67,6.61c-4.84,4.82-6.82,5-12.33,1.25-4.24-2.89-8.5-5.76-12.66-8.75-2-1.4-3-1.9-3.49,1.26-.94,5.67-2.29,11.28-3.56,16.88-1,4.24-3.06,6-7.34,6q-11.84.09-23.67,0c-4.29,0-6.39-1.77-7.35-6-1.29-5.73-2.6-11.46-3.64-17.24-.48-2.66-1.36-2.37-3.1-1.14q-6.9,4.88-13.91,9.58c-4.38,2.95-6.8,2.72-10.59-1Q24.24,283.41,15.91,275c-3.86-3.9-4-6.25-.9-10.9,3-4.46,6-8.92,9.15-13.3,1.4-2,1.91-3-1.25-3.5-5.18-.83-10.26-2.23-15.43-3.16-3.28-.6-5.85-2-7.48-5ZM221.92,68.51a19,19,0,0,1-21.46,19.21q-8.21-1-16.35-2.34c-2-.35-2.64.27-2.89,2.18q-1.31,10.05-2.87,20.07c-.31,2,.06,2.88,2.32,3.12,4.85.51,9.66,1.39,14.5,2.08,8.88,1.25,15.32,6.45,17.17,14.54,1.93,8.4-.91,15.27-7.74,20.48-3.89,3-7.76,5.94-11.75,8.76-1.92,1.36-2.31,2.39-.7,4.41,4,5,7.87,10.07,11.49,15.32,1.7,2.46,2.82,2.21,4.93.58,4.86-3.73,9.45-7.91,14.9-10.76,6.65-3.48,13.36-3,19.54,1.26,7.08,4.88,9.07,11.94,7.92,20.13-.63,4.46-1.27,8.92-2,13.36-.39,2.33-.13,3.59,2.77,3.89,6.22.64,12.4,1.66,18.57,2.72,2.69.46,3.83-.22,4.11-3.05.49-5,1.2-9.95,2-14.88,1.46-8.48,6.33-14.12,14.78-16.05s15,1.19,20.06,7.86c3.11,4.08,6.2,8.19,9.23,12.33,1,1.34,1.68,1.74,3.23.53,5.52-4.31,11.13-8.53,16.83-12.61,1.82-1.31,1.26-2.22.23-3.56-3.14-4.07-6.25-8.15-9.25-12.32-5.11-7.12-5.66-15.48-1.24-22.15,4.88-7.36,11.92-9.92,20.52-8.61,4.58.69,9.19,1.17,13.74,2,2.41.45,3.34-.2,3.64-2.6.84-6.71,1.75-13.41,2.86-20.08.34-2.07-.61-2.29-2.13-2.5-4.71-.64-9.41-1.39-14.12-2-9.23-1.23-15.94-6.44-17.77-14.42-2-8.72,1-15.74,8.12-21,3.93-2.9,7.75-6,11.75-8.75,1.82-1.28,1.74-2.21.48-3.83-4.08-5.24-8.13-10.51-11.93-15.95-1.56-2.23-2.63-1.77-4.38-.42-4.46,3.44-8.89,6.95-13.61,10-6.57,4.27-13.56,4.33-20.21.26s-9.68-10.07-9-17.76c.52-5.73,1.44-11.42,2.3-17.11.27-1.81,0-2.7-2.06-3q-10.25-1.26-20.44-2.9c-2.32-.37-2.72.62-2.95,2.57-.58,4.85-1.42,9.66-2.08,14.5-1.18,8.54-5.79,14.3-14,16.77-7.9,2.36-15.53-.63-21.09-7.87-3-4-6.09-7.95-9-12-1.14-1.6-2-1.72-3.51-.51-5.34,4.15-10.72,8.25-16.23,12.17-2,1.44-1.79,2.43-.43,4.13,3.05,3.81,5.91,7.77,8.83,11.69C220.23,60,222,63.9,221.92,68.51ZM73.38,165.84c-.51,1.55-.87,2.46-1.11,3.4-2.63,10.64-11.89,14.22-21,8.09-3.23-2.16-6.51-4.26-9.56-6.65-2-1.61-3.31-1.29-4.94.54a102.53,102.53,0,0,1-7.44,7.45c-1.49,1.36-1.65,2.39-.43,4.07,2.8,3.85,5.59,7.72,8,11.81,4.44,7.52.76,16.46-7.6,18.87-1.56.45-3.18.69-4.77,1-12.76,2.61-12.73,2.61-11.76,15.66.12,1.51.51,2.17,2.07,2.46,4.3.8,8.57,1.78,12.84,2.75C38.06,237.7,41.9,247.14,36,256c-2.28,3.45-4.57,6.89-7.07,10.17-1.4,1.82-1.13,2.92.47,4.38,2.69,2.43,5.26,5,7.71,7.69,1.37,1.48,2.4,1.65,4.08.43,3.85-2.79,7.73-5.57,11.81-8,7.41-4.4,16.12-.95,18.73,7.24.53,1.66.74,3.42,1.2,5.11,1,3.82.21,9.33,3.09,11.13s8,.5,12.11.66c1.8.07,2.63-.44,3-2.38.73-4.31,1.74-8.58,2.74-12.84,2.38-10.16,11.8-13.89,20.55-8.14,3.56,2.34,7.07,4.75,10.5,7.27,1.49,1.09,2.5,1.14,3.79-.3,1.92-2.14,4.05-4.09,6.09-6.13,6.59-6.58,6.68-7.87.74-15.2a28.46,28.46,0,0,0-5.66-5.46c-3.28-2.3-6.66-4.49-9.7-7.07-2.43-2.07-3.48-2.16-5.37.87-9.13,14.6-28.58,21.27-44,15.45-18.1-6.82-28.49-23.43-25.86-41.34a38.25,38.25,0,0,1,30.24-32.38c2-.45,3.38-.75,2.37-3.52C75.53,178.13,74.48,172.33,73.38,165.84Zm11.44,84c8.1-.27,15.73-4.73,20.77-13.73,1.25-2.24,1-3.64-.76-5.49a100.65,100.65,0,0,1-19.25-27.53c-1.88-4.09-4.36-4.38-8-3.54a25.41,25.41,0,0,0-19.93,27.07C58.94,239.94,69.29,249.52,84.82,249.89ZM193.3,352.24c-7.5,0-15,0-22.51,0-1.21,0-2.7-.57-3.11,1.64-1.8,9.89,4.32,17.49,14.34,17.55,7,0,14,0,21,0,11.33,0,16.1-5,15.85-16.37,0-2.4-.89-2.93-3.07-2.9C208.31,352.3,200.81,352.24,193.3,352.24Zm-.13-12.75h16.5c9.29,0,9.19,0,9.21-9.46,0-2.62-.74-3.39-3.36-3.37-12.75.12-25.5.06-38.25.06-9.89,0-9.81,0-9.62,9.83,0,2.31.77,3,3,3C178.17,339.43,185.67,339.49,193.17,339.49Z"/><path d="M103.74,146.81c1.06-29.86,13.72-54.95,39.61-73.07,1.68-1.18,2.6-1.34,3.67.65,1.48,2.74,4.47,5.3,4.56,8,.09,3-4.22,4-6.54,5.92-44.37,36.31-35.24,106,17.14,129.49,10.56,4.73,20.27,10.32,27.15,19.92a52.8,52.8,0,0,1,10.17,29.32c.06,1.61-.27,2.4-2,2.2-.13,0-.25,0-.38,0-3,0-6.33.79-8.93-.24-3.25-1.28-1.52-5.27-2.17-8-3.23-13.45-10.82-23.32-23.46-28.85-12.39-5.43-23.88-12-33.32-21.89C112.67,192.92,104.42,172.17,103.74,146.81Z"/><path d="M25.09,34.61c.58.38,1.32.83,2,1.33,13.23,9.44,26.42,18.92,39.71,28.28,2,1.39,2.34,2.41.72,4.31-2,2.37-3.36,6.39-5.74,7s-5.15-2.89-7.67-4.67c-11.53-8.16-23-16.44-34.52-24.57C17.69,45,17.15,44,18.82,42S21.75,38,23.24,36C23.66,35.41,23.94,34.6,25.09,34.61Z"/><path d="M86,53.39c-1.76.23-1.47-1.59-1.78-2.76q-5.3-20.51-10.51-41c-1.79-7-1.77-7,5.46-8.89,5.14-1.31,5.14-1.31,6.45,3.83,3.63,14.28,7.19,28.58,10.94,42.83.61,2.34.42,3.44-2.14,3.89S89.06,52.6,86,53.39Z"/><path d="M6.89,111.27c-.4-1.65.81-1.84,1.92-2.12,15.54-3.86,31.09-7.69,46.6-11.65,1.89-.48,2.28.12,2.78,1.73,3.07,9.94,3.12,10-6.86,12.47-12.85,3.23-25.75,6.32-38.57,9.7-2.7.71-3.56.1-4-2.49S7.54,113.82,6.89,111.27Z"/><path d="M350.54,302.78c-1.16,1.4-2.18,2.65-3.22,3.89-4.82,5.81-4.82,5.81-10.64,1-10-8.33-19.95-16.73-30-24.95-2-1.66-2.31-2.75-.44-4.64,2.19-2.21,3.85-6.05,6.29-6.56,1.88-.38,4.64,3.24,6.94,5.16q14.3,11.87,28.56,23.79C348.84,301.13,349.61,301.92,350.54,302.78Z"/><path d="M289.12,311.25c0,6.39-.06,12.78,0,19.16,0,2.12-.68,2.73-2.8,2.78-10,.26-10,.33-10-9.45,0-10.65.07-21.3-.05-31.95,0-2.6.74-3.42,3.38-3.44,9.42-.06,9.42-.15,9.42,9.37Q289.13,304.49,289.12,311.25Z"/><path d="M337.12,250.12c-6.39,0-12.78-.08-19.17,0-2.34,0-3.28-.56-3.33-3.12-.19-9.71-.28-9.7,9.46-9.7,10.65,0,21.3.07,31.94-.05,2.56,0,3.42.61,3.42,3.31,0,9.52.09,9.52-9.55,9.52Z"/><path d="M187,291.46c0-9.77,0-9.72,9.91-9.48,2,0,3,.43,2.88,2.69-.15,4.5-.14,9,0,13.51.07,2.32-.8,3-3,3C187,301.48,187,301.55,187,291.46Z"/><path d="M325.66,111.32A51.07,51.07,0,1,1,274.61,60.2,51.11,51.11,0,0,1,325.66,111.32Zm-12.78.2a38.29,38.29,0,1,0-76.58-.35c-.09,20.72,17.37,38.31,38.16,38.44S312.76,132.39,312.88,111.52Z"/></g></g></svg>