<svg xmlns="http://www.w3.org/2000/svg" viewBox="0 0 253.55 316.02"><g id="Capa_2" data-name="Capa 2"><g id="Capa_1-2" data-name="Capa 1"><path d="M0,158Q0,94.87,0,31.74C0,16.3,8.85,4.5,22.86,1a37,37,0,0,1,9-1q65,0,130,0a11.45,11.45,0,0,1,8.71,3.56q39.68,39.83,79.5,79.51a11.1,11.1,0,0,1,3.45,8.42q0,96.57-.05,193.14c0,18.62-12.86,31.35-31.51,31.36q-95.22.06-190.43,0C12.79,316,0,303.15,0,284.3Q0,221.17,0,158Zm15.07-.25q0,63.3,0,126.6c0,10.56,6,16.65,16.46,16.65q95.19,0,190.4,0c10.51,0,16.55-6,16.55-16.57q0-92,.07-184c0-2.64-.71-3.39-3.38-3.37q-25.49.16-51,0c-16.6,0-27.69-11.2-27.71-27.8,0-16.77-.1-33.54.07-50.3,0-3.2-.69-4.12-4-4.11-39.83.13-79.67.26-119.5,0-10.57-.08-18.2,6-18.11,18C15.29,74.5,15.08,116.14,15.08,157.77ZM171.42,26.89c0,13.87,0,28,0,42.2,0,8.66,4.4,13,13.11,13.06q19.75,0,39.5,0c1,0,2,.32,2.58-.1Q199,54.5,171.42,26.89Z"/><path d="M120,267.52H51.77c-1.23,0-2.48,0-3.71-.08A7.44,7.44,0,0,1,41.19,260a7.58,7.58,0,0,1,6.64-7.35,25.66,25.66,0,0,1,3-.07q68.88,0,137.77,0a22.12,22.12,0,0,1,3.36.11,7.48,7.48,0,0,1,6.34,7.59,7.41,7.41,0,0,1-6.78,7.16c-1.23.12-2.47.07-3.71.07Z"/><path d="M97.46,118.74c8.59-.31,17.62-.18,26.16,4A43.51,43.51,0,0,1,148,166.08c-.42,4.28-3.48,7.28-7.41,7.3a7.59,7.59,0,0,1-7.48-7.25c-.31-3.58.12-7.19-.71-10.75a27.49,27.49,0,0,0-26.61-21.71q-9.1-.18-18.22,0A27.42,27.42,0,0,0,60.46,160.1c-.1,2.13,0,4.29-.23,6.4a7.4,7.4,0,0,1-14.77-.13c-2.37-28.47,19.31-46.9,40.31-47.61C89.48,118.63,93.19,118.74,97.46,118.74Z"/><path d="M126.94,85A30.23,30.23,0,1,1,96.76,54.72,30.29,30.29,0,0,1,126.94,85Zm-15,.12a15.27,15.27,0,1,0-15.51,15.26A15.36,15.36,0,0,0,112,85.12Z"/><path d="M94.34,213.24c14.73,0,29.47,0,44.21,0,4.91,0,8.1,2.69,8.42,6.89a7.58,7.58,0,0,1-7.4,8c-2.24.15-4.5.05-6.75.05H52.17c-.9,0-1.8,0-2.7,0-4.88-.15-8.27-3.24-8.28-7.52s3.31-7.38,8.27-7.4C64.42,213.21,79.38,213.24,94.34,213.24Z"/></g></g></svg>