<svg xmlns="http://www.w3.org/2000/svg" viewBox="0 0 383.34 383.34"><g id="Capa_2" data-name="Capa 2"><g id="Capa_1-2" data-name="Capa 1"><path d="M0,85.42v-15c1.57-7.28,2.69-14.65,5.64-21.6,3.31-7.81,8.63-9,14.58-3.1,10.59,10.57,21.21,21.11,31.7,31.79,1.89,1.92,2.95,2.21,5,.1q10-10.4,20.37-20.37c2.26-2.15,1.83-3.27-.14-5.2q-16.26-16-32.31-32.25C39.93,14.91,41.09,9.1,47.38,6.41A74.86,74.86,0,0,1,75.71.31,77.48,77.48,0,0,1,152.39,97.6c-.58,2.24-.28,3.65,1.36,5.25,7.4,7.25,14.81,14.48,21.92,22,2.6,2.75,4,2.66,6.61,0q57.39-57.69,115-115.15c12.92-12.9,29.92-12.9,42.79-.09q16.84,16.77,33.6,33.61c12.86,12.95,12.85,29.81,0,42.79q-13,13.16-26.17,26.21l-89.7,89.7c-1.32,1.31-2.88,2.22-.64,4.39,8.07,7.81,16,15.79,23.84,23.79a3.75,3.75,0,0,0,4.35,1,61.84,61.84,0,0,1,13.95-2.52c57.55-4.6,99.75,53.21,77.91,106.69-3,7.26-8.61,8.38-14.22,2.79-10.51-10.48-21.09-20.9-31.42-31.55-2.5-2.57-3.77-2.23-6,.13-6.28,6.58-12.7,13.06-19.33,19.3-2.56,2.41-2.31,3.72.07,6,10.71,10.46,21.24,21.1,31.8,31.7,4,4,4.21,8.57.64,11.77-1.52,1.36-3.45,1.95-5.29,2.72-6.6,2.75-13.64,3.71-20.56,5.2h-15a8.71,8.71,0,0,0-1.7-.62c-47.43-6.58-77.43-50.94-65.48-97a4.34,4.34,0,0,0-1.31-4.88c-7.57-7.43-15.16-14.85-22.46-22.53-2.37-2.5-3.54-2.15-5.77.09q-43,43.24-86.18,86.33a20,20,0,0,1-8.07,5.14q-46.83,15.4-93.59,31c-3.49,1.17-6.84,1.7-9.75-1.19S1.25,373.48,2.42,370q15.51-46.61,30.91-93.24a19.9,19.9,0,0,1,5-8.15q43.46-43.32,86.85-86.72c2-2,2.33-3.09.11-5.22-7.38-7.08-14.64-14.3-21.7-21.7-2.27-2.38-4.24-2.87-7.43-2.06a77.46,77.46,0,0,1-91-47.31C2.63,99,1.63,92.16,0,85.42ZM152.61,223.05a7.33,7.33,0,0,1,7.69,7.64c0,3.08-2,5-4,6.93Q121.95,272,87.51,306.36c-2,2-2.41,3.06-.13,5.19,5.74,5.37,11.32,10.92,16.66,16.67,2.4,2.59,3.65,2.73,6.28.1q108-108.19,216.09-216.22a15,15,0,0,1,1.33-1.32c1.66-1.23,1.23-2.2-.08-3.49-6-5.85-12-11.65-17.69-17.76-2.3-2.48-3.44-2.22-5.69,0q-47.38,47.61-94.94,95c-1.14,1.14-2.24,2.34-3.48,3.39-3.38,2.85-7.55,2.7-10.43-.28s-2.88-6.86-.15-10.15c.87-1,1.88-2,2.85-3q47.75-47.76,95.55-95.47c2.09-2.09,2.89-3.25.22-5.7C288,68.06,282.41,62.35,277,56.53c-2.14-2.27-3.22-2.21-5.41,0q-30.81,31.1-61.85,62Q132.16,196,54.6,273.49c-2,2-2.32,3.1-.09,5.19q8.72,8.2,16.93,16.92c2.21,2.36,3.37,2.47,5.74.08q34.25-34.56,68.73-68.86C147.87,224.86,149.79,222.87,152.61,223.05ZM16.72,63.43A58.47,58.47,0,0,0,16.13,90c7.81,37.31,45.38,59,81.58,46.91,4.8-1.59,8.25-.8,11.72,2.79,8.68,9,17.64,17.63,26.37,26.54,1.83,1.87,2.82,2.32,4.91.17,8.32-8.61,16.82-17.05,25.38-25.42,1.86-1.82,1.91-2.86,0-4.71-8.82-8.64-17.38-17.55-26.28-26.1-3.91-3.75-4.86-7.35-3.08-12.64A62.41,62.41,0,0,0,103.1,20.71a56.47,56.47,0,0,0-39.72-3.18c.76,1.22,2,1.82,3,2.76q14,13.83,27.8,27.76C99,52.88,99,56.59,94.09,61.46Q78,77.62,61.81,93.75c-5.77,5.76-9,5.77-14.74,0C37.11,83.84,27.16,73.88,16.72,63.43ZM366.47,319.5a56.05,56.05,0,0,0,.82-24c-6.84-38.42-45.18-61.15-82.25-48.67-4.51,1.52-7.83.77-11.11-2.58-8.89-9.1-18-18-26.91-27.06-1.61-1.63-2.58-2-4.43-.15q-12.81,13.13-26,25.92c-1.95,1.9-1.29,2.82.26,4.34,9.14,9,18.14,18.21,27.31,27.2,3.15,3.09,3.8,6.28,2.42,10.47-12.88,39.2,11.35,77.69,52.31,83.08a50.11,50.11,0,0,0,20.91-1.52C309.26,356,299.11,345.83,289,335.69c-4.93-4.94-5-8.54-.13-13.39Q305.5,305.61,322.19,289c4.49-4.47,8.36-4.47,12.87,0,9.46,9.41,18.87,18.87,28.34,28.28C364.24,318.08,364.84,319.3,366.47,319.5Zm1.82-254.7a13.64,13.64,0,0,0-4-9.88C352.37,43,340.52,31,328.53,19.23c-5.86-5.78-13.8-5.65-19.7.15-7.38,7.25-14.6,14.67-22,21.9-1.61,1.58-1.75,2.44-.07,4.12Q312.52,71,338.08,96.7c1.54,1.55,2.39,1.42,3.85-.06,7.33-7.47,14.78-14.84,22.18-22.25A13.82,13.82,0,0,0,368.29,64.8ZM92.56,337.85c-.34-.36-.76-.82-1.19-1.26Q69,314.24,46.68,291.85c-1.73-1.73-2.21-1.13-2.83.81-2.05,6.4-4.2,12.77-6.38,19.13a3.3,3.3,0,0,0,.85,4q14.77,14.58,29.39,29.34A2.73,2.73,0,0,0,71,346c6.71-2.32,13.46-4.5,20.19-6.75C91.77,339.07,92.75,339.16,92.56,337.85ZM52.64,352.07,31.28,330.68c-3.41,10.28-6.89,20.8-10.61,32Z"/><path d="M177.09,199a7.17,7.17,0,0,1,7.21,7.43,7.46,7.46,0,0,1-7.35,7.41,7.57,7.57,0,0,1-7.46-7.73A7.34,7.34,0,0,1,177.09,199Z"/></g></g></svg>