<svg xmlns="http://www.w3.org/2000/svg" viewBox="0 0 351.02 351.47"><g id="Capa_2" data-name="Capa 2"><g id="Capa_1-2" data-name="Capa 1"><path d="M351,187c-1.48,7.58-1.65,15.33-3.41,22.88-16.45,70.62-59.18,117.58-129.3,135.46-67.64,17.25-126.6-2.08-174.09-53.38-24.13-26.05-38.15-57.46-42.61-92.8C-5,147,8.62,100.6,42.78,60.77,70,29.06,104.6,9.69,145.89,2.59c6-1,12.1-1.73,18.15-2.59h22.83a21.14,21.14,0,0,0,3.37.73,127.84,127.84,0,0,1,28,4.6q104.55,30,129.37,136c1.76,7.54,1.93,15.29,3.41,22.85Zm-175.32,158c93.28-.19,169.22-76.3,169.11-169.5S268.64,6.18,175.42,6.2C82,6.23,5.83,82.59,6.09,175.92S82.52,345.11,175.7,344.92Z"/><path d="M340.48,175.9c.17,90.9-74.84,166.24-167.89,164.73C82.9,339.18,8.73,265,10.39,172.37,12,82.87,86.17,8.64,179,10.51,268.28,12.31,340.91,85.75,340.48,175.9ZM83.7,202.1c-17.77,0-34.73.13-51.68-.09-4.07,0-4.6,1.3-3.8,4.82,7.85,34.53,25.29,63.1,52.66,85.63a12,12,0,0,0,8.33,2.87q70.64-.1,141.29-.05l3.51,0a1.8,1.8,0,0,0,2-1.76c.79-5.38,1.67-10.75,2.58-16.51-2.35,1.24-3.76,3.15-6.34,2.62-2.28-.47-3.37-2.24-4.57-3.94-5.51,6.34-8.11,6.06-12.25-.86-.72.68-1.44,1.41-2.2,2.08-7,6.18-16.06,3.76-17.88-5.31a49.79,49.79,0,0,1,3.76-32c2-4.19,5.34-7,10.15-7.37,3.05-.26,5.94.43,7.65,3.24a9.39,9.39,0,0,1,.78,8.82c-.71,1.71-1.85,2.7-3.74,1.86s-.62-2.06-.25-3.25a12.56,12.56,0,0,0,.55-3.86c0-1.47-.33-3-2-3.58a3.68,3.68,0,0,0-4.26,1.45,12.32,12.32,0,0,0-1.7,2.55c-4.18,9.29-5.2,19.1-4.28,29.12.32,3.51,2.12,6.1,6.2,6a7.58,7.58,0,0,0,7.63-6.85c.49-4.8,1.17-9.58,3.59-13.87,1.8-3.2,4.28-5.89,8.25-5.47a24.07,24.07,0,0,0,6.24-.17c3.46-.55,4.3.88,3.69,4.15-1.06,5.59-1.85,11.23-2.69,16.86-.27,1.79-1.2,4.16,1.58,4.62,2.58.43,2.83-1.68,3.13-3.71.94-6.35,2-12.68,3.13-19,.2-1.17-.15-2.91,1.88-2.87a90.16,90.16,0,0,1,11.28.43c2.52.37,3.62,2.67,3.91,5.22a42.47,42.47,0,0,1-2.15,18.12c-2.3,7-5.52,8.61-12.27,6.73-2.71,5.11.4,12.2-6.24,16.62,8.32,0,16.15,0,24,0a8.65,8.65,0,0,0,5.94-2.15q41.67-33.8,53.48-86.09c.82-3.56.51-5.16-3.91-5.08-16.52.26-33,.1-49.58.1-4.94,0-4.93,0-2.44-4.5,4.3-7.79,8.49-15.64,12.91-23.35a5.25,5.25,0,0,0-.06-6c-4.4-7.56-8.58-15.24-12.85-22.88-2.44-4.37-2.44-4.38,2.75-4.39,16.09,0,32.18-.12,48.27.08,3.78,0,4-1.21,3.15-4.28Q306.92,87,266,55.51a9.16,9.16,0,0,0-6-2.07q-84.46.08-168.93,0a8.55,8.55,0,0,0-5.66,1.65C57.71,76.18,39.35,103.52,30,137c-.83,2.95-.44,4.12,3,4,9.36-.22,18.72-.07,28.08-.07H83.44c-.8,1.69-1.29,2.87-1.9,4-4.19,7.52-8.21,15.14-12.7,22.47-1.82,3-1.55,5.05.07,7.87C73.85,183.85,78.49,192.59,83.7,202.1ZM310.18,182c-4.35-7.87-2.84-13.37,4.71-16.93.11-.06.05-.48.11-1.18-3.37,0-7.52,1.21-9.8-.34s-2.55-5.86-3.75-8.94c-.07-.2-.46-.27-1.28-.69-.35,8.79-5,12.29-13.86,10.24a30.76,30.76,0,0,0,5.71,4.69c2.36,1.42,3,3,1.91,5.65a19.81,19.81,0,0,0-2,8.21C298,174.71,303.82,174.81,310.18,182ZM36.11,182c5.72-7.43,11.41-6.6,17.15-.74.13.14.46.07,1.51.17C49.54,174,51.43,168.66,58.94,165c.08,0,0-.49-.13-1.26-8.64,2.89-12.17-1.7-13.39-9.42-.07-.44-.29-.51-.9.13-1,2.7-1.4,6.53-3.5,8.74-2.28,2.38-6.37.47-9.62,1-.21,0-.38.32-.7.61,2.6,2.08,6.26,3.66,7.46,6.34C39.51,174.11,36.29,177.54,36.11,182ZM191.17,28.29c-3.81-1.16-8.16,1.09-10.49-1.26s-2.62-6.29-3.83-9.59c-1.1,1-1.19,2.42-1.65,3.63-3,8.06-.56,6.49-9.12,6.79-1.16,0-2.61-.7-3.77,1.27,9.06,2.86,9,8.91,5,16.67,6.3-7.31,12.1-6.69,17.9-.62.31.32.53.23.59-.41-.88-3-3-6.39-2.47-9.36C183.87,32.09,188.43,31.14,191.17,28.29ZM170,320.6c-.12,4.67-.6,5-4.07,2.93a2,2,0,0,0-2.39-.12c-.86.63-.49,1.64-.16,2.41a4.3,4.3,0,0,0,4.08,2.8,5.11,5.11,0,0,0,5.23-3.25,19.63,19.63,0,0,0,0-15.32A4.9,4.9,0,0,0,165,308c-3,2.58-3.43,6-1.94,9.55C164.34,320.59,166.62,322,170,320.6ZM182.17,307c-4.15-.12-6.76,3.57-4.9,7.48a4.14,4.14,0,0,1-.13,4.53c-1.62,2.91-1.38,6,1.33,8.31a5.06,5.06,0,0,0,7.15,0,6.32,6.32,0,0,0,1.29-8.34c-.93-1.62-1.23-2.51-.27-4.43A5.05,5.05,0,0,0,182.17,307Zm72.31-49c0-1.24,0-1.68,0-2.12-.09-2,.31-4.52-2.57-4.71-2.51-.16-2.77,2.08-3.07,4-.81,5.18-1.63,10.36-2.43,15.55-.24,1.59-1.52,3.58,1.4,4.08,2.38.41,3.44-1,4.08-3A72.26,72.26,0,0,0,254.48,258Zm-54.7,56c0-1.77,0-3.22,0-4.68,0-.85.11-1.86-1-2.18a2,2,0,0,0-2.61,1c-2.24,4.05-4.66,8-6.62,12.21-.74,1.58-.93,3.89,2.28,3.69,2.39-.15,5.13-.71,4.77,3.37-.1,1.13,1.23,1,2.05.82s3.49-6.82,3-7.11C198.34,319.24,200.43,316.14,199.78,314Zm30.45-58.54c.54-2.15.43-3.24-1.1-3.58-1.74-.4-2.78.6-3.51,2-2.79,5.13-3.51,10.74-3.61,16.46,0,2,.25,4.22,2.64,4.26,2.16,0,3-2.12,3.33-4C228.86,265.24,229.58,259.9,230.23,255.47Zm-75.88,58.08c0,4.47,0,8.37,0,12.28,0,1.09-.29,2.41,1.55,2.47,1.64.06,1.9-.83,1.9-2.17q0-8.5,0-17c0-1.38-.32-2.32-2-2-1.79.3-5.68,6.38-5.47,8.73ZM140.47,45.66c3.17-3.73,6.2-3.16,9.5-.2-2.2-3.91-1.13-6.8,2.58-9.24-5,1.39-6.14-1.86-7.84-6.26-.05,5.86-3.1,6.58-6.92,6.66C142.06,38.74,142,41.85,140.47,45.66Zm63.89-.78c2.91-4.05,5.81-2.4,9.62.46-2.31-4.4-1.52-7.08,1.87-9.26-4.5,1-5.85-2.08-7.35-5.22-.39,4.22-3,5.37-7,5.59C206.16,38.11,205.46,41.06,204.36,44.88ZM216.55,318c0-.75-5.1-5.64-5.5-5.27-1.8,1.67-3.5,3.45-5.13,5.29-.32.36,4.61,5.46,5.24,5.46S216.58,318.63,216.55,318Zm-71.82.39c.08-1-4.67-6-5.3-5.62a14.15,14.15,0,0,0-5.15,5.1c-.41.7,4.4,5.68,5.18,5.33C141.76,322.14,143.1,320,144.73,318.37Zm-13.13-.22c-1.11-1-2-2.56-3-2.63a2.93,2.93,0,0,0-2.75,2.73,3.63,3.63,0,0,0,2.66,2.45C129.47,320.7,130.45,319.17,131.6,318.15Zm90.7-3.23c-1.05,1.18-2.56,2.11-2.59,3.08a2.79,2.79,0,0,0,2.76,2.63c1.05-.1,2.57-1.37,2.35-2.63C224.64,316.94,223.3,316.08,222.3,314.92Z"/><path d="M130,145.74c2.4.36,2.65,2.31,3.28,3.82,3.36,8.06,6.74,16.13,10,24.25,1,2.54,2,2.93,4.46,1.54,6-3.49,11.84-7.42,18.57-9.69,2.58-.88,4.79-1.1,7.07.3a6.36,6.36,0,0,0,7.36-.13c2-1.31,4.05-1,6.28-.33,6.77,2.12,12.76,5.73,18.64,9.52,2.89,1.86,3.9,1,4.72-1.93,2-7.44,4.25-14.84,6.47-22.24.47-1.57.69-3.33,2.46-5.24.64,13.26,1.25,25.74,1.86,38.21.17,3.51-.08,7.09.56,10.5,1,5.38-1.11,9.35-4.65,12.94-6.89,7-13.83,13.88-20.65,20.9a5.79,5.79,0,0,1-4.67,1.76c-9.95-.06-19.89,0-29.83,0a5.44,5.44,0,0,1-4.3-1.52c-7.51-7.37-15.15-14.61-22.75-21.89-1.37-1.32-2.54-2.57-2.62-4.77-.74-18.11-1.6-36.21-2.41-54.32A9.68,9.68,0,0,1,130,145.74Zm55.53,45.52c3.61,1,5-.7,5.09-4.24a27.75,27.75,0,0,1,.81-4.72c.2-1.05.35-2-1-2.43-7.13-2.45-13.74-6.42-21.93-2.08-6.85,3.63-7,2.89-5.35,10.64,1,4.42,4.15,2.57,6.56,2.9,3,.4,2.39-2,2.24-3.5-.47-4.76,3-3.14,5.24-3.28s5.08-.92,4.46,3.1C181.12,190.74,182.34,192,185.51,191.26Z"/><path d="M178.83,58.76c4.26,2,8.9.52,13.32,1.59a19.49,19.49,0,0,0,8.63.64c6.92-1.29,16,5.29,18.19,12.29,4.33,13.93,4.46,28.35,4.77,42.17-32.4-14.45-64.41-14.13-96.53-.4,0-5.06-.27-11.1.07-17.1a139.2,139.2,0,0,1,3-21.63c2.08-9.61,8.72-13.6,17.42-15.45,1.22-.26,2.8-.76,3.64.42s-1.35,1.73-1,3.52c3.83-5.05,9.28-4.71,14.49-5.09,1.86-.14,3.77.16,5.45-1-.15,3.45,2.46,2.57,4.26,2.53S179,62.25,178.83,58.76Z"/><path d="M118.11,273.4c-3.4,3.79-6.59,7.51-12,5.78-3.69-1.17-5.18-5.88-4.63-12.63.4-5,1.12-9.86,3.71-14.26,2.47-4.19,6.3-5.88,9.83-4.38,3.12,1.33,4.15,5.27,2.66,10a12.35,12.35,0,0,1-7.39,8.13c-1.87.75-2.9,1.72-2.66,3.84.22,1.91.22,3.9,2.37,4.78s3.7-.15,5.14-1.5a10.27,10.27,0,0,0,3.55-6.76c.44-4.49,1.2-9,3.62-13,2.29-3.76,5.33-6.23,10.14-4.88a4.64,4.64,0,0,0,1.24.35c7-.35,7-.36,6,6.22q-1.09,7.14-2,14.3c-.22,1.65-1,3.87,1.53,4.29s3.42-1.66,3.75-3.83q1.41-9.09,2.77-18.18c.51-3.44,3.91-5.39,6.46-3.1,1.64,1.48,2.1.72,3.31.18,1.79-.8,3.72-1.26,5.12.71s1,4.27-.47,6.07c-1.26,1.53-2.9,2.32-3.87-.39-.39-1.08-.39-2.63-2-2.16a3.34,3.34,0,0,0-2.42,2.83c-.82,5.18-1.69,10.36-2.54,15.55a51,51,0,0,0-.79,5.18c-.11,2-.47,3.55-3,3.18-1.84-.28-4.9,1.51-4.11-2.93-5.61,4-7.34,3.82-11-1.12-1.93,2-3.5,4.74-6.9,4.29C119.74,279.52,119.15,276.48,118.11,273.4Zm6.46-5.11c.12,2.64-.55,6.06,2.68,6.19,2.88.12,3.21-3.09,3.54-5.63.56-4.33,1.34-8.63,2-13,.22-1.45,1.44-3.28-1-4-2-.57-3,.84-3.75,2.28C125.57,258.66,125.17,263.62,124.57,268.29Zm-9-14c-.29-1.26,0-2.9-1.69-3.23s-2.2,1.13-2.79,2.28a26.89,26.89,0,0,0-2.61,8.29c-.1.68-.66,1.57.23,1.9a2.71,2.71,0,0,0,2.06-.37C114.11,261.12,115.1,257.81,115.6,254.26Z"/><path d="M229,126.65c-9.28-4.61-18.27-8.66-28.34-9.41l1.74.78a238.22,238.22,0,0,0-50.58-.54,28.47,28.47,0,0,1,10.51-1.74c-4.86-1.13-10.34-.31-21.13,2.71-6.85,1.92-13.27,4.9-20.44,8.62,1.58-4.89,4.54-7.37,7.58-9.7,7.75-5.93,16.91-8.51,26.31-9.87,18.22-2.63,36.37-2.45,54.14,3.17,6.92,2.18,13.14,5.59,18,11.19C227.75,123.05,229,124.14,229,126.65Z"/><path d="M145,124.74a59.6,59.6,0,0,1,22.06,2.32c7.47,2.35,14.69.83,22-1,9.94-2.47,20-1.82,30-.72a5,5,0,0,1,4.49,3.56c.28.8.6,2-.19,2.46-5.54,3.43-5.37,9.42-6.53,14.69-1.72,7.83-4.4,10.44-12.3,10.92-12.12.73-19-3.54-23.55-14.71-.72-1.74-1.32-3.54-2.08-5.28-.65-1.49-1.53-3.09-3.3-3.15-2.05-.07-2.9,1.7-3.61,3.33-.87,2-1.76,4-2.49,6-5,14.11-18.67,15.29-28.86,12.71-3.58-.9-5.49-3.75-6.29-7.21-1.33-5.76-1.12-12-5.39-16.8,2.21-1.73-.7-3.41-.1-5,1-2.62,3.7-1.56,5.65-2.11a6.79,6.79,0,0,1,1.75-.12Zm4.37,1.71a27.24,27.24,0,0,0-8.24.77,7.44,7.44,0,0,0-4.5,3.2c-2.79,4.37-1.88,17.07,1.49,20.94a9.61,9.61,0,0,0,5.26,2.94c12.94,3,22.49-3.52,24.62-16.75.76-4.79-1-7.88-5.67-9.45C158.14,126.69,153.73,126.66,149.37,126.45Zm50.48.61v-.25c-3.05.18-6.14.16-9.16.6-5.4.77-8.35,4.2-7.94,9.16a22.7,22.7,0,0,0,2.78,9.57c4.08,7.15,13,10.45,22.17,8.12,5.91-1.5,8-5.37,8.15-15,.13-9.45-1.83-11.6-11.18-12.15C203.06,127,201.45,127.06,199.85,127.06Z"/><path d="M87.75,252c4.71-.54,5.75-4,6.6-7.31s1-6.71-2.15-8.77c-2.8-1.83-6-1-8.72.6-5.54,3.37-6.66,8.83-6.54,14.82,0,1.05,1.16,2.92-1,3.08-1.62.12-2.53-1.31-3-2.75C71.33,247.08,74,240.31,79,236.16s11.31-5.28,15.83-2.66c5.23,3,6.44,10.38,2.39,16.17-1.25,1.79-2,2.79.26,4.33a6.12,6.12,0,0,1,2.14,3.7c1.31,7.15.39,14-3.91,20-1.85,2.6-4.36,4-7.59,2.67s-2.62-4.1-2.08-7.14c3.18,2.63,5,1.23,6.25-1.9A19.93,19.93,0,0,0,93.36,259c-.53-2.1-1.69-3.7-4.26-3.62-2.83.09-2.11,2.26-2.37,3.83-.92,5.62-2,11.22-2.62,16.87-.39,3.24-1.92,4.05-4.93,3.8-3.89-.34-2.06-3.08-1.84-4.57,1.57-11,3.4-21.91,5.16-32.86a4.87,4.87,0,0,1,6.07-3.91c1.59.44.93,1.63.83,2.46C88.94,244.54,88.34,248.11,87.75,252Z"/><path d="M184.49,235.78c-1.42,9-2.8,17.93-4.2,26.82-.39,2.44-.88,4.87-1.22,7.32-.15,1.13-.61,2.79.39,3.32,3.93,2.08,1.34,4.28-.16,5.56-2.32,1.95-4.63.87-6.22-1.59a14.58,14.58,0,0,1-.78-1.58l-2.23,2.42a5.3,5.3,0,0,1-5.92,1.73,5.18,5.18,0,0,1-3.52-4.63c-.67-7.35-.27-14.61,3.29-21.28,2.14-4,5.29-6.78,10.26-5.25,1.71.52,1.73-.44,1.92-1.37a23.47,23.47,0,0,0,.69-4.75C176.76,237.71,178.69,235.06,184.49,235.78Zm-9.64,18.81c.17-1.21.36-2.39-1.3-2.73s-2.74.6-3.48,2c-2.76,5.15-3.52,10.72-3.46,16.46,0,1.76-.09,3.92,2.08,4.26,2.37.38,3.19-1.7,3.53-3.6C173.17,265.52,174,260.05,174.85,254.59Z"/><path d="M278.17,266.27c0,10-4.37,14.46-11,13.26-5.55-1-8.58-9.53-4.41-14.42,3.44-4,4.13-8.62,4.68-13.22.52-4.37,3.69-3.74,6.2-4.6.71-.25,1.05.29,1.05.94C274.69,255.16,277.86,261.54,278.17,266.27Zm-9-10.48c-.79,3.3-3.11,6.55-1,10.46.88,1.62-.29,3.64-2.11,4.77-.79.49-2.71-.55-2.23,1.66.32,1.49.88,2.76,2.6,3.1a3.08,3.08,0,0,0,3.38-1.38,9.61,9.61,0,0,0,1.42-7.09C270.71,263.45,269.88,259.63,269.17,255.79Z"/><path d="M165.79,314.1c0-1.64,0-3.6,2.24-3.45,2,.14,2.19,2,2.19,3.7s-.12,3.55-2.31,3.43S165.8,315.75,165.79,314.1Z"/><path d="M184.28,321.78c.1,1.75-.34,3.46-2.29,3.52-1.69.05-2.26-1.52-2.27-3.11s.13-3.42,2.28-3.45C183.87,318.7,184.22,320.24,184.28,321.78Z"/><path d="M181.62,315.1a2.22,2.22,0,0,1-1.73-2.46,2.07,2.07,0,0,1,2.05-2.33A2.19,2.19,0,0,1,184,313,2.08,2.08,0,0,1,181.62,315.1Z"/><path d="M196.15,314.56c0,2,1.3,4.13-.66,5.71-.48.39-2.22.37-2.19-.35C193.37,317.8,194.77,316.17,196.15,314.56Z"/></g></g></svg>