<svg xmlns="http://www.w3.org/2000/svg" xmlns:xlink="http://www.w3.org/1999/xlink" viewBox="0 0 447.34 148.43"><defs><style>.cls-1{fill:none;}.cls-2{clip-path:url(#clip-path);}.cls-3{fill:#ec7700;}.cls-4,.cls-5{fill:#fefefe;}.cls-5{font-size:20.27px;font-family:Calibri;}.cls-6{letter-spacing:-0.02em;}.cls-7{letter-spacing:0.01em;}.cls-8{letter-spacing:-0.01em;}.cls-9{fill:#fff;}</style><clipPath id="clip-path" transform="translate(-79.98 -65.69)"><rect class="cls-1" width="618.42" height="284.87"/></clipPath></defs><g id="Capa_2" data-name="Capa 2"><g id="Layer_1" data-name="Layer 1"><g class="cls-2"><path class="cls-3" d="M93.07,163.12c.63,7,5.08,9.1,8.9,9.1,4.91,0,9.28-3.31,9.28-8.4,0-6.92-4.46-8.17-12.82-11.35-5.18-2-16-5.17-16-19.37,0-10.73,8.36-19.21,19.73-19.21,7.81,0,19.27,5.15,19.9,19.17H109.34c-.55-6-4.19-7.52-7.55-7.52a6.68,6.68,0,0,0-6.91,6.84c0,5.82,4.37,7.1,11.18,9.37,5.55,1.82,17.64,6.1,17.64,20.75s-11.27,21.37-21.82,21.37c-8.63,0-21.18-5.72-21.9-20.75Z" transform="translate(-79.98 -65.69)"/><rect class="cls-4" x="109.46" y="49.34" width="11.01" height="67.13"/><path class="cls-4" d="M333.1,132.06h10v5h0c2.28-4,4.55-7,10.82-7h1.16v12.06c-11,.46-11,9.1-11,12.1v27.94h-11Z" transform="translate(-79.98 -65.69)"/><path class="cls-4" d="M408.77,157.41a27,27,0,0,1,27-27,26.73,26.73,0,0,1,26.82,26.84c0,16.55-12.77,27-26.82,27a27.06,27.06,0,0,1-27-26.83m42.6.09a16,16,0,0,0-15.59-16c-6.68,0-15.79,5.36-15.79,15.92a15.69,15.69,0,1,0,31.38.09" transform="translate(-79.98 -65.69)"/><path class="cls-4" d="M128,157.41a27,27,0,0,1,27-27,26.72,26.72,0,0,1,26.81,26.84c0,16.55-12.77,27-26.81,27a27.06,27.06,0,0,1-27-26.83m42.59.09a16,16,0,0,0-15.59-16c-6.68,0-15.78,5.36-15.78,15.92a15.69,15.69,0,1,0,31.37.09" transform="translate(-79.98 -65.69)"/><path class="cls-4" d="M383,173.14a15.57,15.57,0,0,1-15.79-15.73c0-10.56,9.1-15.92,15.79-15.92a15.7,15.7,0,0,1,12.38,6.39l9.87-5.7a26.8,26.8,0,1,0,.05,30.46L395.47,167A15.18,15.18,0,0,1,383,173.14" transform="translate(-79.98 -65.69)"/><path class="cls-4" d="M252,115v20.52c-4-3.28-9.9-5.16-15.73-5.16a26.93,26.93,0,0,0,0,53.86c5.76,0,11.75-1.77,15.76-5v2.91h11V115Zm-15.59,58.11a15.57,15.57,0,0,1-15.79-15.73c0-10.56,9.1-15.92,15.79-15.92a16,16,0,0,1,15.58,16,15.5,15.5,0,0,1-15.58,15.64" transform="translate(-79.98 -65.69)"/><path class="cls-4" d="M311.07,132.06v3.49A28.69,28.69,0,0,0,295,130.39a26.93,26.93,0,1,0,.05,53.86,28.89,28.89,0,0,0,16-5v2.91h11v-50.1Zm-16.24,41.08a15.57,15.57,0,0,1-15.78-15.73c0-10.56,9.1-15.92,15.78-15.92a16,16,0,0,1,15.6,16,15.52,15.52,0,0,1-15.6,15.64" transform="translate(-79.98 -65.69)"/></g><text class="cls-5" transform="translate(7.88 142.09)">Asesoría y <tspan class="cls-6" x="88.14" y="0">R</tspan><tspan x="98.76" y="0">espaldo al se</tspan><tspan class="cls-7" x="204.68" y="0">r</tspan><tspan x="211.93" y="0">vicio de la Indu</tspan><tspan class="cls-8" x="335.56" y="0">s</tspan><tspan x="343.25" y="0">tria</tspan></text><g class="cls-2"><path class="cls-3" d="M416.66,65.69a6.33,6.33,0,0,0-6.48,6.21v41.64a6.37,6.37,0,0,0,6.48,6.25h47.58V65.69Z" transform="translate(-79.98 -65.69)"/><path class="cls-3" d="M473.41,128.81v48a6.38,6.38,0,0,0,6.38,6.36h41.37a6.22,6.22,0,0,0,6.14-6.41V128.81Z" transform="translate(-79.98 -65.69)"/><path class="cls-3" d="M527.31,119.79V71.9c0-3.52-2.38-6.21-5.89-6.21h-48v54.1Z" transform="translate(-79.98 -65.69)"/><path class="cls-9" d="M440.21,65.69V81.51c2-2,3.61-3.79,5.23-5.57.15.1.2.08.35.17-1.39,3.26-2.74,6.51-4.33,10.24l10.48-2.42c-2.81,1.91-5.6,3.83-8.79,6l10.26,3.74-10.94,0,7.26,9-9.66-5.91,1,10.89-4.77-9.77-5.18,10.13c.47-3.58.93-7.16,1.47-11.25l-9.8,5.82L429.85,94l-7.7,0a76.18,76.18,0,0,0,6.92-4.2l-1.83-1.51-5.71-4.75,1.84.7,3.54,1.34a5.37,5.37,0,0,0,2.49.7A1.51,1.51,0,0,0,430.82,85a3.91,3.91,0,0,0-.8-2.15c-.43-.73-.9-1.43-1.34-2.15-.8-1.3-1.6-2.6-2.28-4l5.8,5c.08-1.26,0-2,0-2.71V65.69h2v3.65c0,3,.21,6,.23,8.92s.79,6.64-1.09,9.31a5.41,5.41,0,0,0-1.15,2.5,4.33,4.33,0,0,0,3.41,4.65,4.24,4.24,0,0,0,4.46-2.42,4.07,4.07,0,0,0,.4-2.12,3.82,3.82,0,0,0-.71-1.8,10.61,10.61,0,0,1-1.48-3.48,22.78,22.78,0,0,1-.13-4.29c0-2,.06-4,.06-6v-9Z" transform="translate(-79.98 -65.69)"/><path class="cls-9" d="M516.56,146.41l2.16-.72L518.6,144l-2.24-.42a11.23,11.23,0,0,0-.36-1.35l1.75-1.49-.73-1.49-2.25.47a12.64,12.64,0,0,0-.93-1.22l1-2-1.25-1.08-1.88,1.28q-.59-.37-1.2-.69l.17-2.27-1.57-.54-1.26,1.9a12.73,12.73,0,0,0-1.51-.2l-.73-2.15-1.65.11-.42,2.24a10.61,10.61,0,0,0-1.34.36l-1.5-1.75-1.49.73.47,2.25a10.27,10.27,0,0,0-1.21.94l-2-1-1.09,1.25,1.29,1.88a11.18,11.18,0,0,0-.7,1.21l-2.27-.17-.53,1.56,1.9,1.26a11.09,11.09,0,0,0-.2,1.52l-2.16.72.11,1.65,2.24.42a11.23,11.23,0,0,0,.36,1.35l-1.75,1.49.73,1.49,2.26-.47a10.07,10.07,0,0,0,.93,1.22l-1,2,1.25,1.08,1.88-1.28a12.88,12.88,0,0,0,1.2.69l-.17,2.27,1.57.54,1.25-1.9a9.72,9.72,0,0,0,1.52.19l.73,2.16,1.65-.11.42-2.24a10.61,10.61,0,0,0,1.34-.36l1.5,1.75,1.48-.73-.46-2.25a11.17,11.17,0,0,0,1.21-.94l2,1,1.08-1.25-1.28-1.88a9.67,9.67,0,0,0,.69-1.21l2.27.17.54-1.56-1.9-1.26a11.09,11.09,0,0,0,.2-1.52M505.7,150.5a4.74,4.74,0,1,1,4.74-4.73,4.74,4.74,0,0,1-4.74,4.73" transform="translate(-79.98 -65.69)"/><path class="cls-9" d="M521.06,162v-1.31l-1-.15a4.28,4.28,0,0,0-.44-1.16l.64-.73-.84-1-.84.51a4.39,4.39,0,0,0-1.08-.6l0-1-1.28-.23-.32,1a3.71,3.71,0,0,0-1.2.23l-.62-.79-1.13.65.38,1a3.88,3.88,0,0,0-.75.92l-1-.2-.45,1.22.93.51a3.27,3.27,0,0,0,0,.54,4.48,4.48,0,0,0,.05.64l-.91.49.45,1.23,1-.21a3.91,3.91,0,0,0,.77.9l-.38,1,1.13.65.65-.81a4.17,4.17,0,0,0,1.18.2l.32,1,1.29-.23,0-1a4.06,4.06,0,0,0,1-.61l.85.51.84-1-.66-.74a4.17,4.17,0,0,0,.41-1.17Zm-4.94,2.35a3,3,0,1,1,3-3,3,3,0,0,1-3,3" transform="translate(-79.98 -65.69)"/><path class="cls-9" d="M491.72,146.17v-.87l-.66-.1a2.4,2.4,0,0,0-.29-.77l.43-.49-.56-.67-.57.35a2.42,2.42,0,0,0-.72-.4l0-.66-.86-.15-.21.64a2.65,2.65,0,0,0-.8.16l-.42-.53-.75.44.25.64a2.48,2.48,0,0,0-.5.62l-.67-.14-.3.82.62.34a2.19,2.19,0,0,0,0,.36,3,3,0,0,0,0,.43l-.6.33.29.82.69-.14a2.71,2.71,0,0,0,.52.6l-.25.64.75.44.43-.54a3,3,0,0,0,.79.13l.22.64.85-.15v-.68a2.74,2.74,0,0,0,.7-.41l.57.35.56-.67-.44-.5a2.58,2.58,0,0,0,.27-.78Zm-3.31,1.57a2,2,0,1,1,2-2,2,2,0,0,1-2,2" transform="translate(-79.98 -65.69)"/><path class="cls-9" d="M495.2,159.73v-2.17l-1.62-.25a6.72,6.72,0,0,0-.74-1.93l1.07-1.21-1.39-1.66-1.41.86a6.69,6.69,0,0,0-1.79-1l0-1.63-2.14-.38-.54,1.6a6.88,6.88,0,0,0-2,.38l-1-1.3-1.88,1.08.63,1.6a6.7,6.7,0,0,0-1.25,1.55l-1.67-.34-.74,2,1.53.83a6.8,6.8,0,0,0-.06.9,6.35,6.35,0,0,0,.09,1.07l-1.52.82.75,2,1.71-.35a6.79,6.79,0,0,0,1.28,1.5l-.63,1.59,1.88,1.09,1.08-1.35a7.07,7.07,0,0,0,2,.34l.54,1.59,2.13-.38,0-1.68a6.89,6.89,0,0,0,1.76-1l1.4.86,1.39-1.66-1.09-1.24a6.8,6.8,0,0,0,.69-1.94ZM487,162.28a3.58,3.58,0,1,1,3.58-3.58,3.58,3.58,0,0,1-3.58,3.58" transform="translate(-79.98 -65.69)"/><path class="cls-9" d="M512.42,170.63V168l-2-.29a8.28,8.28,0,0,0-.89-2.36l1.3-1.47-1.7-2-1.72,1a8,8,0,0,0-2.18-1.21l.05-2-2.6-.46-.66,2a8,8,0,0,0-2.41.46l-1.26-1.59-2.29,1.32.76,2a8.36,8.36,0,0,0-1.52,1.87l-2-.41-.91,2.48,1.87,1a9.81,9.81,0,0,0-.07,1.09,7.87,7.87,0,0,0,.1,1.3l-1.84,1,.9,2.49,2.09-.43a8.27,8.27,0,0,0,1.56,1.83l-.77,1.94,2.29,1.32,1.31-1.64a8.55,8.55,0,0,0,2.39.41l.66,1.94,2.6-.46-.06-2.05a8.17,8.17,0,0,0,2.14-1.25l1.71,1,1.7-2-1.34-1.51a7.73,7.73,0,0,0,.84-2.36Zm-10,4.76a6,6,0,1,1,6-6,6,6,0,0,1-6,6" transform="translate(-79.98 -65.69)"/><path class="cls-9" d="M498.34,98.1a5.38,5.38,0,1,0,5.35,5.39,5.39,5.39,0,0,0-5.35-5.39m0,9.41a4.13,4.13,0,1,1,4.14-4.11,4.14,4.14,0,0,1-4.14,4.11" transform="translate(-79.98 -65.69)"/><path class="cls-9" d="M500.23,104.07a2,2,0,1,1-1.31-2.51,2,2,0,0,1,1.31,2.51" transform="translate(-79.98 -65.69)"/><path class="cls-9" d="M519.59,82.27a3.59,3.59,0,1,0-.28,5.07,3.59,3.59,0,0,0,.28-5.07m-4.68,4.2a2.75,2.75,0,1,1,3.89.21,2.75,2.75,0,0,1-3.89-.21" transform="translate(-79.98 -65.69)"/><path class="cls-9" d="M517.81,85.67a1.34,1.34,0,1,1,.1-1.89,1.34,1.34,0,0,1-.1,1.89" transform="translate(-79.98 -65.69)"/><polygon class="cls-9" points="405.59 16.16 406.98 17.01 403.43 22.06 403.15 21.9 405.59 16.16"/><path class="cls-9" d="M487.41,82.53l-1.75-1.07a.23.23,0,0,1-.08-.33l0-.08A.24.24,0,0,1,486,81L487.71,82a.24.24,0,0,1,.08.32l-.05.09a.24.24,0,0,1-.33.08" transform="translate(-79.98 -65.69)"/><path class="cls-9" d="M493.56,74.16a2.46,2.46,0,1,0-.19,3.47,2.45,2.45,0,0,0,.19-3.47M490.39,77a1.8,1.8,0,1,1,2.53.13,1.8,1.8,0,0,1-2.53-.13" transform="translate(-79.98 -65.69)"/><path class="cls-9" d="M492.34,76.48a.91.91,0,1,1,.07-1.29.92.92,0,0,1-.07,1.29" transform="translate(-79.98 -65.69)"/><path class="cls-9" d="M513.36,87.86a4.81,4.81,0,0,1-.7-1l-2.47-1-12.8,11.31a6.37,6.37,0,0,1,7.25,7.33l13.14-15.11a4.77,4.77,0,0,1-4.42-1.49M507,101l.62-4.24,7-5.83,1,.18Z" transform="translate(-79.98 -65.69)"/><path class="cls-9" d="M512.2,84.05l-2,1.77,2.47,1a4.81,4.81,0,0,1-.46-2.76" transform="translate(-79.98 -65.69)"/><path class="cls-9" d="M496.41,109.6a6.35,6.35,0,0,1-4.06-3.85l-1.82,8.5h15.6l-1.83-8.52a6.39,6.39,0,0,1-7.89,3.87" transform="translate(-79.98 -65.69)"/><path class="cls-9" d="M489.5,77.8a3,3,0,0,1-.75-1.9l-3,4.63L488.23,82l3.84-3.25a3,3,0,0,1-2.57-1m-2.74,3-.51-.31,2.24-3,.38.66Z" transform="translate(-79.98 -65.69)"/><path class="cls-9" d="M494.11,74a3,3,0,0,1-.38,4,3.09,3.09,0,0,1-1.35.68l17.81,7.11,2-1.77a4.77,4.77,0,0,1,1.52-2.94,4.7,4.7,0,0,1,1.29-.8Zm15.51,7.4-14.56-6.34,17.11,5Z" transform="translate(-79.98 -65.69)"/><polygon class="cls-9" points="403.1 22.11 403.39 22.25 403.21 23.24 403.08 23.24 403.1 22.11"/><polygon class="cls-9" points="410.55 49.58 408.98 54.1 427.73 54.1 426.15 49.58 410.55 49.58"/></g></g></g></svg>