<svg xmlns="http://www.w3.org/2000/svg" viewBox="0 0 447.34 148.43"><defs><style>.cls-1{fill:#ec7700;}.cls-2,.cls-3{fill:#fefefe;}.cls-3{font-size:20.27px;font-family:Calibri;}.cls-4{letter-spacing:-0.02em;}.cls-5{letter-spacing:0.01em;}.cls-6{letter-spacing:-0.01em;}.cls-7{fill:#fff;}</style></defs><g id="Capa_2" data-name="Capa 2"><g id="Layer_1" data-name="Layer 1"><path class="cls-1" d="M13.09,97.43c.64,7,5.09,9.11,8.91,9.11,4.91,0,9.27-3.32,9.27-8.41,0-6.92-4.45-8.17-12.82-11.35-5.18-2-16-5.17-16-19.36,0-10.74,8.36-19.22,19.72-19.22,7.82,0,19.27,5.15,19.91,19.17H29.36c-.54-6-4.18-7.52-7.54-7.52a6.68,6.68,0,0,0-6.91,6.84c0,5.82,4.36,7.1,11.18,9.37,5.54,1.82,17.63,6.1,17.63,20.75s-11.27,21.37-21.81,21.37C13.27,118.18.73,112.46,0,97.43Z"/><rect class="cls-2" x="109.46" y="49.34" width="11.01" height="67.13"/><path class="cls-2" d="M253.12,66.37h10v5h0c2.27-4,4.54-7,10.81-7h1.16V76.44c-11,.45-11,9.09-11,12.09v27.94h-11Z"/><path class="cls-2" d="M328.8,91.72a27,27,0,0,1,27-27,26.72,26.72,0,0,1,26.81,26.84c0,16.55-12.77,27-26.81,27a27.07,27.07,0,0,1-27-26.84m42.59.09a16,16,0,0,0-15.59-16c-6.68,0-15.78,5.37-15.78,15.92a15.69,15.69,0,1,0,31.37.09"/><path class="cls-2" d="M48,91.72a27,27,0,0,1,27-27,26.73,26.73,0,0,1,26.82,26.84c0,16.55-12.77,27-26.82,27A27.07,27.07,0,0,1,48,91.72m42.6.09A16,16,0,0,0,75,75.8c-6.68,0-15.79,5.37-15.79,15.92a15.69,15.69,0,1,0,31.38.09"/><path class="cls-2" d="M303.05,107.46a15.57,15.57,0,0,1-15.78-15.74c0-10.55,9.1-15.92,15.78-15.92a15.72,15.72,0,0,1,12.39,6.39l9.87-5.7a26.81,26.81,0,1,0,0,30.46l-9.85-5.69a15.21,15.21,0,0,1-12.45,6.2"/><path class="cls-2" d="M172,49.34V69.86c-4-3.28-9.9-5.16-15.73-5.16a26.93,26.93,0,0,0,0,53.86c5.77,0,11.76-1.77,15.76-5v2.91h11V49.34Zm-15.59,58.12a15.58,15.58,0,0,1-15.78-15.74c0-10.55,9.1-15.92,15.78-15.92a16,16,0,0,1,15.59,16,15.52,15.52,0,0,1-15.59,15.65"/><path class="cls-2" d="M231.1,66.37v3.49A28.75,28.75,0,0,0,215,64.7a26.93,26.93,0,1,0,.05,53.86,29,29,0,0,0,16-5v2.91h11V66.37Zm-16.24,41.09a15.58,15.58,0,0,1-15.78-15.74c0-10.55,9.1-15.92,15.78-15.92a16,16,0,0,1,15.59,16,15.52,15.52,0,0,1-15.59,15.65"/><text class="cls-3" transform="translate(7.88 142.09)">Asesoría y <tspan class="cls-4" x="88.14" y="0">R</tspan><tspan x="98.76" y="0">espaldo al se</tspan><tspan class="cls-5" x="204.68" y="0">r</tspan><tspan x="211.93" y="0">vicio de la Indu</tspan><tspan class="cls-6" x="335.56" y="0">s</tspan><tspan x="343.25" y="0">tria</tspan></text><path class="cls-1" d="M336.69,0a6.33,6.33,0,0,0-6.48,6.21V47.86a6.36,6.36,0,0,0,6.48,6.24h47.58V0Z"/><path class="cls-1" d="M393.44,63.12v48a6.39,6.39,0,0,0,6.39,6.36H441.2a6.21,6.21,0,0,0,6.14-6.4V63.12Z"/><path class="cls-1" d="M447.34,54.1V6.21C447.34,2.69,445,0,441.45,0h-48V54.1Z"/><path class="cls-7" d="M360.24,0V15.82c2-2,3.6-3.78,5.22-5.57.16.1.21.08.36.17-1.39,3.26-2.74,6.51-4.34,10.24L372,18.25l-8.79,6L373.43,28l-10.94,0,7.27,9-9.67-5.91,1,10.89-4.76-9.77-5.19,10.13c.47-3.58.94-7.16,1.47-11.25l-9.79,5.82,7.07-8.59-7.71,0a74.38,74.38,0,0,0,6.93-4.2l-1.84-1.51-5.7-4.74,1.83.69,3.54,1.34a5.4,5.4,0,0,0,2.49.7,1.49,1.49,0,0,0,1.42-1.35,3.9,3.9,0,0,0-.79-2.15c-.43-.73-.9-1.43-1.34-2.15-.8-1.3-1.61-2.59-2.29-4l5.81,5c.08-1.25,0-2,0-2.71V0h2V3.66c0,3,.22,5.94.24,8.92s.78,6.63-1.1,9.3a5.44,5.44,0,0,0-1.14,2.5A4.31,4.31,0,0,0,355.64,29a4.24,4.24,0,0,0,4.46-2.42,4.17,4.17,0,0,0,.4-2.12,4,4,0,0,0-.71-1.8,10.42,10.42,0,0,1-1.49-3.48,22.75,22.75,0,0,1-.12-4.29c0-2,.06-4,.06-6V0Z"/><path class="cls-7" d="M436.58,80.72l2.16-.72-.11-1.65-2.24-.42a10.61,10.61,0,0,0-.36-1.34l1.75-1.5-.73-1.49-2.26.47a9.24,9.24,0,0,0-.93-1.21l1-2-1.25-1.09L431.74,71a10.17,10.17,0,0,0-1.2-.7l.17-2.27-1.56-.53-1.26,1.9a9.73,9.73,0,0,0-1.52-.2l-.72-2.16-1.66.11-.41,2.24a10.76,10.76,0,0,0-1.35.36L420.73,68l-1.48.73.47,2.26a10.07,10.07,0,0,0-1.22.93l-2-1-1.08,1.25,1.28,1.87a11.11,11.11,0,0,0-.69,1.21l-2.27-.17-.54,1.57,1.9,1.25a11.09,11.09,0,0,0-.2,1.52l-2.16.73.12,1.65,2.24.41a10.32,10.32,0,0,0,.36,1.35l-1.75,1.49.73,1.49,2.25-.47a11.52,11.52,0,0,0,.93,1.22l-1,2,1.25,1.08,1.88-1.28a11.11,11.11,0,0,0,1.21.69l-.18,2.27,1.57.54,1.26-1.9a10.89,10.89,0,0,0,1.52.2l.72,2.16,1.65-.12.42-2.24a10.61,10.61,0,0,0,1.34-.36l1.5,1.75,1.49-.73-.47-2.25a11.29,11.29,0,0,0,1.22-.94l2,1L436.07,88l-1.29-1.88a11.18,11.18,0,0,0,.7-1.21l2.27.17.53-1.56-1.9-1.26a9.58,9.58,0,0,0,.2-1.52m-10.86,4.1a4.74,4.74,0,1,1,4.74-4.74,4.74,4.74,0,0,1-4.74,4.74"/><path class="cls-7" d="M441.09,96.28V95l-1-.14a4,4,0,0,0-.45-1.17l.65-.72-.84-1-.85.52a4,4,0,0,0-1.08-.61l0-1-1.29-.22-.32,1a3.6,3.6,0,0,0-1.19.23l-.63-.79L433,91.7l.38,1a4,4,0,0,0-.75.93l-1-.21-.44,1.23.92.5a4.89,4.89,0,0,0,0,.54,3.39,3.39,0,0,0,.05.64l-.91.5.44,1.22,1-.21a3.86,3.86,0,0,0,.76.9l-.38,1,1.14.65.64-.81a3.85,3.85,0,0,0,1.18.21l.33,1,1.28-.22,0-1a4.12,4.12,0,0,0,1.06-.61l.84.51.84-1-.66-.74a3.89,3.89,0,0,0,.42-1.17Zm-4.95,2.35a3,3,0,1,1,3-3,3,3,0,0,1-3,3"/><path class="cls-7" d="M411.74,80.49v-.88l-.65-.09a2.92,2.92,0,0,0-.29-.78l.43-.49-.57-.67-.56.35a2.82,2.82,0,0,0-.72-.4v-.66l-.85-.15-.22.64a3.07,3.07,0,0,0-.8.16l-.41-.53-.76.44.25.64a3,3,0,0,0-.5.62l-.67-.13-.3.82.62.33a2.19,2.19,0,0,0,0,.36,3,3,0,0,0,0,.43l-.61.33.3.82.69-.14a2.46,2.46,0,0,0,.51.6l-.25.64.75.44.44-.54a2.52,2.52,0,0,0,.79.13l.21.64.86-.15,0-.68a2.63,2.63,0,0,0,.71-.41l.56.35.56-.67-.44-.5a2.59,2.59,0,0,0,.28-.78Zm-3.3,1.57a2,2,0,1,1,2-2,2,2,0,0,1-2,2"/><path class="cls-7" d="M415.22,94V91.87l-1.62-.24a6.58,6.58,0,0,0-.73-1.94l1.07-1.21-1.4-1.66-1.41.86a6.54,6.54,0,0,0-1.79-1l0-1.63-2.14-.38-.53,1.6a6.51,6.51,0,0,0-2,.39l-1-1.31-1.88,1.08.63,1.61a6.65,6.65,0,0,0-1.25,1.54l-1.68-.34-.74,2,1.54.83a6.8,6.8,0,0,0-.06.9,7.59,7.59,0,0,0,.08,1.07l-1.51.82.74,2,1.72-.35a6.78,6.78,0,0,0,1.27,1.5l-.62,1.6,1.88,1.08,1.07-1.35a6.73,6.73,0,0,0,2,.34l.53,1.59,2.14-.37,0-1.69a7,7,0,0,0,1.75-1l1.4.85,1.4-1.66-1.1-1.24a6.51,6.51,0,0,0,.69-1.94ZM407,96.59A3.58,3.58,0,1,1,410.57,93,3.58,3.58,0,0,1,407,96.59"/><path class="cls-7" d="M432.44,105v-2.64l-2-.3a8.1,8.1,0,0,0-.89-2.36l1.3-1.47-1.7-2-1.71,1A8.1,8.1,0,0,0,425.28,96l.06-2-2.61-.46-.65,1.95a8.06,8.06,0,0,0-2.41.47l-1.27-1.6-2.29,1.33.77,2a8.09,8.09,0,0,0-1.52,1.88l-2-.42-.9,2.48,1.87,1a7.61,7.61,0,0,0,0,2.39l-1.85,1,.91,2.49,2.09-.43a8.23,8.23,0,0,0,1.55,1.83l-.76,1.94,2.29,1.32,1.3-1.64a8.27,8.27,0,0,0,2.4.41l.65,1.94,2.6-.46-.05-2a8.17,8.17,0,0,0,2.14-1.25l1.7,1,1.7-2-1.33-1.51a8.19,8.19,0,0,0,.84-2.36Zm-10,4.76a6,6,0,1,1,6-6,6,6,0,0,1-6,6"/><path class="cls-7" d="M418.36,32.41a5.38,5.38,0,1,0,5.36,5.39,5.37,5.37,0,0,0-5.36-5.39m0,9.41a4.13,4.13,0,1,1,4.14-4.11,4.12,4.12,0,0,1-4.14,4.11"/><path class="cls-7" d="M420.26,38.38a2,2,0,1,1-1.32-2.51,2,2,0,0,1,1.32,2.51"/><path class="cls-7" d="M439.61,16.59a3.59,3.59,0,1,0-.28,5.07,3.59,3.59,0,0,0,.28-5.07m-4.68,4.19a2.76,2.76,0,1,1,3.9.21,2.76,2.76,0,0,1-3.9-.21"/><path class="cls-7" d="M437.83,20a1.33,1.33,0,1,1,.11-1.89,1.34,1.34,0,0,1-.11,1.89"/><polygon class="cls-7" points="405.59 16.16 406.98 17.01 403.43 22.06 403.15 21.9 405.59 16.16"/><path class="cls-7" d="M407.43,16.84l-1.75-1.06a.24.24,0,0,1-.08-.33l0-.08a.23.23,0,0,1,.33-.08l1.75,1.06a.24.24,0,0,1,.08.33l-.05.08a.24.24,0,0,1-.33.08"/><path class="cls-7" d="M413.58,8.47a2.45,2.45,0,1,0-.19,3.47,2.46,2.46,0,0,0,.19-3.47m-3.16,2.84a1.8,1.8,0,1,1,2.53.14,1.8,1.8,0,0,1-2.53-.14"/><path class="cls-7" d="M412.36,10.79a.91.91,0,1,1,.07-1.29.91.91,0,0,1-.07,1.29"/><path class="cls-7" d="M433.38,22.17a4.43,4.43,0,0,1-.69-1.05l-2.47-1-12.8,11.32a6.27,6.27,0,0,1,2.84.2,6.41,6.41,0,0,1,4.41,7.12l13.14-15.1a4.76,4.76,0,0,1-4.43-1.5M427,35.3l.62-4.23,7-5.84,1,.18Z"/><path class="cls-7" d="M432.22,18.37l-2,1.77,2.47,1a4.71,4.71,0,0,1-.47-2.75"/><path class="cls-7" d="M416.43,43.92a6.4,6.4,0,0,1-4.06-3.85l-1.82,8.5h15.6L424.33,40a6.41,6.41,0,0,1-7.9,3.88"/><path class="cls-7" d="M409.52,12.11a3,3,0,0,1-.75-1.89l-3,4.62,2.45,1.49,3.84-3.25a3,3,0,0,1-2.57-1m-2.74,3-.51-.31,2.25-3,.38.66Z"/><path class="cls-7" d="M414.13,8.32a3,3,0,0,1-.38,4,2.89,2.89,0,0,1-1.35.68l17.82,7.11,2-1.76a4.73,4.73,0,0,1,1.53-3,4.81,4.81,0,0,1,1.28-.8Zm15.52,7.39L415.08,9.37l17.12,5.05Z"/><polygon class="cls-7" points="403.1 22.11 403.39 22.25 403.21 23.24 403.08 23.24 403.1 22.11"/><polygon class="cls-7" points="410.55 49.58 408.98 54.1 427.73 54.1 426.15 49.58 410.55 49.58"/></g></g></svg>