<svg xmlns="http://www.w3.org/2000/svg" viewBox="0 0 577.06 329.18"><g id="Capa_2" data-name="Capa 2"><g id="Capa_1-2" data-name="Capa 1"><path d="M280.21,80.42c-18.17,9.09-36.5,17.81-54.37,27.39-8.29,4.44-8.7-2.34-11.08-6.32-17.15-28.56-42.26-41.31-73.32-36.68C119.81,68,103.37,79.92,93.21,98.66,70.27,141,69.88,185.11,92.24,227c26.3,49.29,90.18,50.34,120.65,3.14,6.5-10.07,11.33-11.35,21.15-5.52,12.9,7.65,26.52,14.16,40.09,20.61,5.88,2.79,6.43,5.14,3.09,10.8-30.34,51.36-94.42,81.47-152,71.06C59.2,315.18,14.78,270.81,3.8,205.39c-8.56-51-3.92-100,27-143.36C95-27.93,226.23-18.53,280.21,80.42Z"/><path d="M433.48,230.27c17-59,32.92-114.15,48.85-169.33,4-14,8.5-27.91,12-42,1.85-7.48,5.54-9.67,13-9.48,19.48.49,39,.69,58.47,0,11.05-.42,13.42,1.88,9.5,13-29.84,84.59-59.06,169.4-88.56,254.12-4.93,14.17-6.41,33.06-16.44,41-10.68,8.44-29.73,2.22-45.11,2.37-32,.31-32,.08-42.64-30.88-30.41-88.62-60.66-177.29-91.46-265.76-4-11.38-2.16-14.47,10-13.86,18.12.92,36.35.87,54.47,0C365.73,8.83,370.14,12,373,22c18.12,64.2,36.95,128.21,55.56,192.27C429.75,218.49,431.11,222.65,433.48,230.27Z"/></g></g></svg>