<svg xmlns="http://www.w3.org/2000/svg" viewBox="0 0 179.59 225"><g id="Capa_2" data-name="Capa 2"><g id="Capa_1-2" data-name="Capa 1"><path d="M151.29,225h-123a8,8,0,0,0-1.7-.86C10.43,220.38.07,207.75,0,191.26Q-.06,112,0,32.84A31.86,31.86,0,0,1,6.1,14.21C11.76,6.06,20,2.14,29.29,0h86c1.79,1.42,3.93,2.25,5.6,3.94q27.27,27.45,54.7,54.74a12.39,12.39,0,0,1,4,9.29c0,41.44.08,82.88-.08,124.31-.07,15.46-10.85,28.24-26,31.79A13.45,13.45,0,0,0,151.29,225Zm-129-112.45v75c0,11.43,3.76,15.18,15.26,15.18h92c5.34,0,10.68.17,16-.07,7.16-.33,11.7-4.84,11.72-11.67.06-36.16,0-72.32.1-108.49,0-3.18-1.06-3.91-4-3.86q-14.5.23-29,0c-13.87-.18-23.09-9.53-23.13-23.33,0-9.5-.13-19,0-28.5.07-3.31-.65-4.68-4.33-4.65-20.5.17-41,0-61.49.11-8.84,0-13.15,4.51-13.16,13.26Q22.28,74.05,22.29,112.55Zm117-56.26-15.91-15.8c0,3.83.05,8.58,0,13.32,0,2.06,1.08,2.5,2.8,2.49C130.79,56.27,135.41,56.29,139.29,56.29Z"/><path d="M33.6,133.25c.34-5.8-.62-13,.54-20.09C36.34,99.58,49.23,89.24,63,90c14.25.8,25.86,12.33,26.49,26.31.32,7.2-3.45,12.2-9.64,12.78-6.75.63-11.55-3.28-12.5-10.59-.38-3-1.52-5-4.45-5.87-2.21-.68-3.87.29-5.37,1.7-1.32,1.24-1.52,2.92-1.53,4.6,0,10.66,0,21.31,0,32,0,3.68,1.61,6.41,5.31,6.59s5.59-2,6.06-5.84c.9-7.43,5.54-11.3,12.33-10.76,6.21.49,10.06,5.43,9.83,12.63C89.06,168,76.4,180,61.68,180c-15.36,0-27.55-12.06-28-27.93C33.45,146.25,33.6,140.42,33.6,133.25Z"/><path d="M117.85,122.47c2.31-9,4.09-16.5,6.23-24,2-7.15,8.84-10.32,15.24-7.43,4.55,2,7.56,6.88,6.37,11.79q-8.37,34.61-17.25,69.07a10.76,10.76,0,0,1-10.75,8,11,11,0,0,1-10.49-8.42c-5.71-22.35-11.39-44.71-16.82-67.13-1.74-7.16,2.18-12.93,8.87-14.29,5.73-1.16,11.32,2.95,13,9.67C114.06,106.86,115.75,113.93,117.85,122.47Z"/></g></g></svg>