<svg xmlns="http://www.w3.org/2000/svg" viewBox="0 0 835.71 706.68"><defs><style>.cls-1{fill:#fff;}</style></defs><g id="Capa_2" data-name="Capa 2"><g id="Capa_1-2" data-name="Capa 1"><path class="cls-1" d="M835.71,399.88c-2.38,6.52-4.83,13-6.21,19.84a201.82,201.82,0,0,1-16,47c-10.53,22-30,32.36-54.16,29.61-2.6-.29-4,.25-5.17,2.47a49.79,49.79,0,0,1-7.71,10.38c-1.8,1.94-4,3.13-6.69,2.33s-3.71-3-4.09-5.68c-.41-3-1-6-.25-8.91.84-3.42-.23-5-3.71-5.92-13.15-3.46-26.28-5.71-39.85-2.43-10.4,2.51-19.08,7.53-25.53,16.17-.7.93-1.44,1.83-2.2,2.7a3.13,3.13,0,0,1-.82.53c-5.8-11-3.07-22.28,7-29.22,7-4.8,14.89-6.36,23.09-7,15.58-1.14,30.82,1.35,46,4.36,11.33,2.24,22.73,2.9,34.16.68a38.52,38.52,0,0,0,22.87-13.17c8.18-9.79,13-21.19,15.18-33.67,2.36-13.38-5-22.52-14.08-30.62-4.71-4.2-8-8.88-8.14-15.32-.17-5.65,2.49-9,8.07-10.22,6.94-1.49,13.82-1.05,20.77.28,9.13,1.75,14.23,7.63,17.43,15.77Z"/><path class="cls-1" d="M105.38,5.37q12.39,5.6,24.77,11.2c17.54,8,35,16.07,52.62,23.91,15.14,6.74,31.37,9.72,47.5,12.82,30.62,5.9,61.6,8.18,92.76,7.86,24-.26,47.61,1.88,69.91,11.25,47.76,20.07,75.81,56.62,87.62,106.4.2.81.27,1.65.43,2.46.72,3.55-.13,4.44-3.7,2.75-13.66-6.46-27.43-12.69-41.15-19q-123.3-56.8-246.64-113.5c-13.26-6.07-27.6-9.58-40.52-16.6C133.51,26.51,119.59,15.81,105.38,5.37Z"/><path class="cls-1" d="M0,165.34c13.83,2.56,26.84,4.91,39.82,7.37Q106.44,185.33,173,198c8,1.51,15.52-1.08,23.19-2.29,37.92-5.94,75.84-6.87,113.63.61,32.21,6.38,62.09,18.31,87.9,39.17,2.69,2.18,5.7,4.2,7.22,7.45.65,1.41,1.16,3.53.55,4.73s-2.74.43-4.16.16c-16.33-3.08-32.65-6.23-49-9.31L196.6,209.15a34.28,34.28,0,0,1-4.88-1c-15.51-5.41-30.95-.3-46.37.45-33.61,1.64-66.89.53-99-10.74-17.44-6.13-33.56-14.66-44.83-30.16C1.17,167.22.86,166.68,0,165.34Z"/><path class="cls-1" d="M552.83,381.36c-7.55,52-29.13,94.71-76.06,121.53a339.25,339.25,0,0,1-57.83,26.76C401,535.82,386.45,546,373.05,559.18c-24.89,24.49-50.65,48.11-76.18,72-1.4,1.3-2.23,5.14-5.79,2.58s-2-5.2-.44-8.07a202.57,202.57,0,0,1,55.53-64c8.86-6.76,17.89-13.45,27.92-18.28,12.69-6.12,22.72-15.36,32.75-24.85Q478.63,450.68,550.59,383A23.85,23.85,0,0,1,552.83,381.36Z"/><path class="cls-1" d="M419.46,349.88c-12.83,35.25-34.54,60.47-70.66,71.45a305.5,305.5,0,0,1-40.24,9.41q-22.41,3.6-45.07,5.27a22.8,22.8,0,0,0-8.58,2.28q-75.07,37.08-150.24,73.95c-1.53.75-3.32,3.52-5.47.46-1.93-2.75-1.56-4.74.73-7.35,29.23-33.44,65.45-55.42,108.37-66.53,13-3.38,26.26-6.11,39.72-7,7.32-.5,13.26-4.11,19.45-7.15Q341.29,388.4,415,351.94C416.29,351.3,417.62,350.73,419.46,349.88Z"/><path class="cls-1" d="M425.66,706.68c-1.71-13.32,1.18-25,4.46-36.68,5.9-21,14.47-40.68,29.3-57.11,8.76-9.7,19.26-16.9,31.92-20.39a40.25,40.25,0,0,0,23.28-16.25c22.29-31.06,45.39-61.53,68.25-92.18.81-1.08,1.22-3.77,3.51-2.23,1.9,1.28,4.44,2.21,3.31,5.75-11.37,35.46-28,67.52-58.47,90.6-2.78,2.1-5.51,4.46-8.63,5.9-8.7,4-14.13,11.12-19.59,18.54-24.44,33.2-49.11,66.24-73.69,99.33C428.32,703.28,427.29,704.57,425.66,706.68Z"/><path class="cls-1" d="M454.34,1.15C463.49,9.59,473,17.71,481.7,26.54c18.48,18.68,36.59,37.73,54.81,56.66a11.28,11.28,0,0,0,4.55,2.91C578.59,99,601.76,126,615.84,161.9c2.28,5.83,4.22,11.79,6.08,17-7.69-7.27-16-14.59-23.67-22.46-21-21.51-41.87-43.26-62.8-64.89a7.09,7.09,0,0,0-2.73-2.07c-17.56-5.06-30.23-17-42-30-15.3-17-26.52-36.52-35.08-57.64A9.21,9.21,0,0,1,455.3,0Z"/><path class="cls-1" d="M447.73,260l26.54,99.62C461.07,349,449,339.11,440.2,325.89c-7.12-10.72-12.06-22.28-11-35.48C430.17,277.54,436.28,267.55,447.73,260Z"/><path class="cls-1" d="M734.5,288.13c.46-4.93-.68-8-3.65-10.78q-31.47-29.9-62.57-60.15c-1-1-4.45-1.87-1.8-4.46,1.67-1.61,3-3.81,6.25-1.72,16.43,10.74,33.08,21.15,46.86,35.4,6,6.25,12,12.76,15.54,20.64,4.33,9.57,11.49,16.47,18.84,23.45C766,302,777.93,313.57,790,325c2.28,2.15,2.59,3.64.45,6.09-1.6,1.83-2.52,1.93-4.35.4A417.47,417.47,0,0,0,738.49,297C734.65,294.59,733.8,291.18,734.5,288.13Z"/><path class="cls-1" d="M652.47,507.73c2.11,5,4.08,10.11,6.35,15C666,538.33,680,546.57,697,545.54c2.69-.16,4.23-.95,4.67-3.86a45.67,45.67,0,0,1,2.14-7.64,6,6,0,0,1,5.54-4.31c2.8-.2,5.52,1,6,3.5,2.07,10.24,8.95,16.65,16.09,23.56,6.35,6.15,6.55,15,3.93,23.43-1.19,3.83-3,4.23-5.72,1.19a10.39,10.39,0,0,1-1.76-3.5c-4.48-12.42-15.36-18.78-28.75-16.91-6.24.87-12.46,2.1-18.84,1.07-14.22-2.32-21.7-11.85-26.31-24.43C650.44,528,651.56,518,652.47,507.73Z"/><path class="cls-1" d="M631.23,268.16c26.91-1.68,44.95,11.24,60.19,29.66a5.47,5.47,0,0,1,.77,6.47c-1.23,2.36-3.3,3.17-5.76,3.19a18.22,18.22,0,0,1-9.07-2.31,36.34,36.34,0,0,0-15.65-4.36c-7.74-.48-10.72-3.39-11.2-11.11-.32-5.14-2.88-8.66-6.67-11.64Z"/><path class="cls-1" d="M676.81,608.48c-2.58,14.29-6,27.54-15.33,38.45-3.23,3.77-7,6.61-11.93,7.63-4.5.93-6.83,4.55-9.38,7.73-6.55,8.16-12.84,16.54-19.38,24.72-.92,1.16-1.49,4.13-3.78,2.63s-3.91-3.55-2.13-6.76c3-5.38,5.77-10.87,9.39-15.85,4.6-6.32,9.28-12.56,16.24-16.64,1.35-.79,2.24-2.41,3.26-3.71Q655,632.33,666.13,618C669,614.29,672.57,611.45,676.81,608.48Z"/></g></g></svg>