<svg xmlns="http://www.w3.org/2000/svg" viewBox="0 0 366.04 356.84"><defs><style>.cls-1{fill:#00008b;}</style></defs><g id="Capa_2" data-name="Capa 2"><g id="Capa_1-2" data-name="Capa 1"><g id="Capa_2-2" data-name="Capa 2"><g id="Capa_1-2-2" data-name="Capa 1-2"><path class="cls-1" d="M100.23,226.82c-2.25-.81-4.07-1.3-5.75-2.1-5.63-2.65-6.49-4.46-5.22-10.53,1.6-7.68.83-9.48-5.74-13.52s-7.28-8.75-2.34-14.55a113.23,113.23,0,0,0,11.54-15.66,33.13,33.13,0,0,0,4.87-20.4C96,132.1,99,115,107.32,98.88a90.69,90.69,0,0,1,170.33,28.56c3.64,25.51-2.23,48.82-18.33,68.92-7.27,9.09-10.3,18.83-10.17,30.07.21,18.13,4.62,35.32,11.34,52,1.49,3.7,3.07,7.38,4.88,10.93,1.37,2.68.79,3.36-2.13,3.33-11.75-.11-23.5,0-35.25,0-20.12,0-40.24-.08-60.36.08-3.27,0-5.2-.57-5.46-4.14a15.86,15.86,0,0,0-1.06-4C155.87,269,143.57,262.06,126.25,265c-6.28,1.07-12.53,2.32-19,2-7.19-.41-9.51-2.77-9.72-9.92-.13-6.08-.53-12-5.74-16.38-2.41-2-1.58-4.77.14-7.1C94,230.74,97.07,229,100.23,226.82Zm87.73-15a71.17,71.17,0,1,0-71.14-71.2v.2a71.17,71.17,0,0,0,71.18,71Z"/><path class="cls-1" d="M327.45,206.91H357c6.17,0,9,2.76,9,8.9V275c0,5.94-2.77,8.86-8.63,8.88q-29.78.11-59.56,0c-5.89,0-8.79-2.87-8.81-8.75q-.09-29.77,0-59.55c0-5.89,2.95-8.65,8.86-8.67C307.72,206.89,317.59,206.91,327.45,206.91Z"/><path class="cls-1" d="M93.83,61.52A42,42,0,1,1,52,19.38h.12A42,42,0,0,1,93.83,61.52Z"/><path class="cls-1" d="M178.75,0c85.93.28,159.82,62,175.1,146.4a168.78,168.78,0,0,1,2.68,37.68c-.12,2.74-1.22,4.79-3.86,5.85a5.53,5.53,0,0,1-5.94-1.06c-2.09-1.71-2.14-4.09-2.09-6.51.43-23.14-3.15-45.64-12.4-66.9C308.36,60.53,267.06,26.57,208.18,14.94c-34.74-6.87-68.34-2-100.49,12.83C105,29,102.5,29.62,100,27.58c-3.64-2.95-2.73-8.06,1.93-10.3A174.43,174.43,0,0,1,138.25,4.6,185.2,185.2,0,0,1,178.75,0Z"/><path class="cls-1" d="M58.57,262.46l44.23,76.62c-1,1-1.91.7-2.72.7q-41.58,0-83.15.05c-2.47,0-3.19-.38-1.76-2.83Q36.5,300.28,57.7,263.49A12.15,12.15,0,0,1,58.57,262.46Z"/><path class="cls-1" d="M179.24,356.84c-17-.25-32.83-2.14-48.29-6.57-3.93-1.13-5.79-4.19-4.81-7.57.92-3.16,4-4.69,7.81-3.89.85.18,1.69.44,2.53.65a165.08,165.08,0,0,0,46.36,5.23c39.59-1.39,74.53-14.83,104.59-40.75,4.6-4,8.07-4.5,10.73-1.58,2.89,3.16,2,6.46-2.89,10.66C261.62,341.9,222.5,356.18,179.24,356.84Z"/><path class="cls-1" d="M0,180.24a183,183,0,0,1,11.48-64.8c1.77-4.75,5.75-6.58,9.27-4.21,3.13,2.11,3.16,5,2,8.3a169,169,0,0,0-8.62,32.88q-8.64,57,19.19,107.42c.54,1,1.15,1.93,1.67,2.93,1.9,3.67,1.1,7-2.07,8.71s-6.18.69-8.24-2.72A161.53,161.53,0,0,1,14.31,248.4,177.73,177.73,0,0,1,0,180.24Z"/><path class="cls-1" d="M210.91,163.77V139.4a4.11,4.11,0,0,0-2.06-3.92c-9.31-6.48-9.27-18.58.11-25.09a4.06,4.06,0,0,0,1.94-4q-.09-6.56,0-13.12c.07-4.73,2.35-7.34,6.2-7.25,3.68.08,5.72,2.6,5.78,7.2,0,2.38.09,4.75,0,7.12-.2,4.84,0,8.76,4.7,12.52,7.09,5.7,5.56,17.14-2.14,22.33-2.11,1.43-2.59,2.89-2.58,5.17q.1,24,0,48c0,4.73-2.84,7.52-6.77,6.91-3.32-.51-5.16-2.93-5.19-7.12C210.87,180,210.91,171.89,210.91,163.77Z"/><path class="cls-1" d="M164.93,163.78v25.13c0,3-1.38,5.3-4.47,6.16a5.71,5.71,0,0,1-6.54-2.45c-1.12-1.52-.95-3.31-.95-5.06V140.31a5.33,5.33,0,0,0-2.59-5.16,14.67,14.67,0,0,1,0-24.42c1.86-1.28,2.68-2.5,2.57-4.78-.2-4.37-.1-8.75,0-13.13s2.21-6.73,5.81-6.79,6.08,2.49,6.15,6.91.07,9,0,13.5a4,4,0,0,0,2,4c9.37,6.46,9.39,18.68.07,25.09a4.11,4.11,0,0,0-2,3.92C165,147.54,164.93,155.66,164.93,163.78Z"/><path class="cls-1" d="M194,121.32v27.34a5.11,5.11,0,0,0,2.42,4.91,14.69,14.69,0,0,1,.14,24.42,5.18,5.18,0,0,0-2.55,5.2,46.2,46.2,0,0,1,0,6c-.29,3.85-2.8,6.3-6.16,6.18s-5.47-2.48-5.75-6.18a11.68,11.68,0,0,1,0-1.87c.44-4.49-.48-7.81-4.47-11.12-7.17-5.94-5.83-17.25,2-22.61a5,5,0,0,0,2.5-4.85c-.08-17.73,0-35.46,0-53.18,0-1.25,0-2.51.07-3.75.31-3.52,2.46-5.66,5.68-5.76,3.38-.1,5.83,2,6.14,5.7.22,2.73.1,5.49.1,8.24Q194,110.64,194,121.32Z"/></g></g></g></g></svg>