<svg xmlns="http://www.w3.org/2000/svg" viewBox="0 0 584.94 597.23"><defs><style>.cls-1{fill:#00008b;}</style></defs><g id="Capa_2" data-name="Capa 2"><g id="Capa_1-2" data-name="Capa 1"><g id="Capa_2-2" data-name="Capa 2"><g id="Capa_1-2-2" data-name="Capa 1-2"><path class="cls-1" d="M297.2,0c5.43,2.73,9.59,7,13.81,11.23,13.28,13.38,26.69,26.64,40,40.05,5,5,7.1,11,4.75,18.1-2.15,6.49-6.72,10.36-13.3,11.71-6.23,1.28-11.49-1-15.85-5.36-5.19-5.18-10.22-10.48-15.29-15.73l-1.39.74V98.93c0,11.32.09,10.87,11.33,13.16q69.23,14.1,105.3,75a143.69,143.69,0,0,1,18.84,54.68c.36,2.68.78,4.77,4.39,4.75,24.3-.13,48.6-.09,72.9-.13.49,0,1-.34,3.17-1.14-6.3-5.87-12.28-10.78-17.47-16.43C499,218.57,503.8,203.07,517.1,200a16,16,0,0,1,15.55,4.49c15.76,15.58,31.5,31.18,47,47,7.13,7.28,7.05,17.19-.17,24.55q-23.07,23.52-46.6,46.58c-7.14,7-17.32,6.85-24.13.29s-7.22-17.17-.22-24.57c5.16-5.46,11-10.32,16.75-15.71-3.09-2.16-5.27-1.45-7.28-1.45q-42-.09-84,0c-15,0-20.82-5.55-21.57-20.39-2.61-51.63-32.59-92.65-80.49-110.13C272.69,129,203.38,160.82,181,219.86a132.48,132.48,0,0,0-8.41,42.06c-.55,13.17-7,19.22-20.32,19.23H59.54C65.34,287,70.15,291.8,75,296.61c3.67,3.66,6.46,7.71,6.54,13.19.11,7.33-3,12.78-9.5,16.08s-13.29,2.88-18.46-2.13q-24.91-24.13-49.07-49a15.84,15.84,0,0,1,.17-22.29q24-24.66,48.69-48.61c6.63-6.41,16.79-5.55,23.19.86A17.14,17.14,0,0,1,77.48,228,116.74,116.74,0,0,1,69,236.74c-2.87,2.79-5.89,5.42-8.8,8.08,1.84,2.14,3.29,1.62,4.54,1.62q34.69,0,69.39.1c3.62,0,5-1.08,5.63-4.74C150.9,172.52,201.25,122,270.14,111.08c3.88-.62,5.18-1.75,5.12-5.72-.22-14.87-.09-29.74-.09-44.61l-1.72-1.08c-5.24,5.63-10.16,11.61-15.79,16.81-10,9.27-25.21,4.76-28.64-8.21C227.63,63,228.36,57.85,232,54q24.54-26.14,50.68-50.7c1.48-1.39,3.49-2.22,5.26-3.31Z"/><path class="cls-1" d="M292.26,597.23H166.9c-22.42,0-34.76-12.12-34.81-34.43q-.12-52.75,0-105.53c.15-34.2,17.1-59.93,47.73-71.59,11.07-4.21,23.24-4.22,34.84-6.52,2.85-.56,5.75-.91,8.63-1.35,8.38-1.27,9.89-.39,12.86,7.73Q259.61,449.79,283,514c1,2.75,1.86,5.54,4.35,7.39,5.12,3.78,11.57,1.31,14.17-5.73,6.07-16.37,11.94-32.81,17.92-49.22Q334.17,426,349,385.56c2.93-8,4.59-9.06,12.91-7.75,12.85,2,25.91,3.21,38.47,6.4,21.15,5.38,36.08,19,45.64,38.53,5.32,10.89,7,22.55,7,34.5q.08,52.77,0,105.54c-.05,22.31-12.37,34.45-34.78,34.45Z"/><path class="cls-1" d="M374.86,261.52c1.21,44.3-35.15,81.59-80.93,83-45.05,1.37-82.55-35.1-83.67-81.38-1.08-44.6,35.71-82.16,81.48-83.2C336.32,178.92,373.6,215.52,374.86,261.52Z"/><path class="cls-1" d="M292.69,369.79c4.45.23,9,0,13.33.77,8.66,1.48,12.09,9,7.65,16.61-2.94,5-6.23,9.85-9.62,14.57a10.69,10.69,0,0,0-2,8.15c1.74,13.86,3.3,27.75,5.09,41.61a13.46,13.46,0,0,1-.68,6.8c-3.17,8.33-6.26,16.7-9.43,25-.82,2.14-1.45,4.79-4.29,4.94s-3.64-2.5-4.46-4.64C285,475.09,282,466.51,278.62,458c-1.86-4.71-.1-9.24.33-13.77,1.09-11.39,2.65-22.74,4.14-34.09a11.32,11.32,0,0,0-2.13-8.7c-3.31-4.54-6.44-9.24-9.34-14.06-4.68-7.78-1.22-15.56,7.75-16.94,4.36-.66,8.9-.11,13.35-.11Z"/></g></g></g></g></svg>