<svg xmlns="http://www.w3.org/2000/svg" viewBox="0 0 616.8 649.74"><defs><style>.cls-1{fill:#00008b;}</style></defs><g id="Capa_2" data-name="Capa 2"><g id="Capa_1-2" data-name="Capa 1"><g id="Capa_2-2" data-name="Capa 2"><g id="Capa_1-2-2" data-name="Capa 1-2"><path class="cls-1" d="M555.74,649.73c1.69-7.1-1.57-13.74-2-20.65-.15-2.18-2.85-2.61-4.8-2.94-8.37-1.42-16.58-3.35-24.35-6.87-2.46-1.12-3.62.7-4.86,2.31-5.79,7.52-11.72,14.93-17.33,22.58-1.78,2.43-3.19,2.83-5.71,1.31-6.84-4.12-13.65-8.3-20.72-12-4.19-2.18-4.35-4.65-2.62-8.48,3.56-7.89,6.69-16,10.3-23.84,1.29-2.83.84-4.61-1.43-6.48a133.49,133.49,0,0,1-17.66-17.6c-2-2.41-4-2.89-7-1.54-8.46,3.87-17.08,7.4-25.6,11.15-2.4,1-4,.73-5.38-1.66-4.32-7.68-8.76-15.3-13.14-22.95-1.48-2.57-.4-4.2,1.82-5.83,7.22-5.34,14.26-10.93,21.48-16.26,2.5-1.85,3.44-3.73,2.31-6.78a141.37,141.37,0,0,1-6.26-23.61c-.57-3.17-2.09-4.52-5.21-4.91-8.92-1.09-17.81-2.5-26.73-3.54-3.23-.38-4.85-1.53-4.8-4.94.12-8,.12-16,.06-24,0-3.44,1.37-5.14,4.91-5.52,8.61-.92,17.19-2.17,25.8-3.11,3.46-.38,5.26-1.86,6-5.42,1.58-7.82,3.25-15.65,6.22-23.11,1.25-3.14.23-5.26-2.47-7.22-6.74-4.89-13.19-10.16-19.95-15-3.83-2.73-4.81-5.13-1.88-9.42a172.11,172.11,0,0,0,10.43-18.17c2.16-4.16,4.37-5.44,9-3.12,7.71,3.85,15.79,6.95,23.72,10.37a5,5,0,0,0,6.27-1.36c5.65-6.33,11.31-12.66,18.1-17.84,2.33-1.78,2.6-3.89,1.39-6.61-3.52-7.9-6.74-15.93-10.26-23.82-1.68-3.78-1.66-6.29,2.66-8.45C482.91,331,489.46,327,496,323c2.9-1.79,4.76-1.34,6.72,1.28,5.38,7.19,11,14.22,16.33,21.43,2.05,2.76,3.88,3.68,7.52,2.3,7-2.64,14.07-5.13,21.59-5.89,3.83-.39,5.82-2.25,6.24-6.36.87-8.44,2.3-16.83,3.31-25.25.51-4.18,2.15-6.12,6.77-5.89,7.31.38,14.66.24,22,0,3.85-.12,5.45,1.55,5.86,5.14,1,8.26,2.26,16.49,3,24.77.42,4.81,2.4,7.49,7.31,7.6s9.21,3,14.15,2.64v121c-2.49-.72-2.71-3.25-3.77-5C602.91,444.05,584,436.38,563.79,441c-17.22,3.91-31.18,20.18-32.9,38.34C528.72,501.52,541.35,520,563.41,527c18.28,5.76,40.18-3.41,50.47-21.13.73-1.25,1-2.95,2.86-3.11v120c-5.34.94-10.45,3-15.91,3.4-2.44.2-4.85,1.4-5,4-.29,6.59-2.42,13-2.12,19.58Z"/><path class="cls-1" d="M270.74,649.73c1.32-6.55-.32-12.87-1.55-19.22-.34-1.74-1.63-2.31-3.22-2.65A94.3,94.3,0,0,1,234.83,615c-2.52-1.59-4.43-1.42-6.73.44-6.73,5.43-13.71,10.56-20.39,16-2.64,2.17-4.36,2.17-6.7-.37-4.64-5-9.45-9.86-14.43-14.53-2.78-2.61-2.92-4.7-.5-7.64,5.28-6.43,10.21-13.15,15.47-19.6,2.12-2.59,2.27-4.66.37-7.53A85.89,85.89,0,0,1,189.7,552c-.76-3.64-3.13-4.39-6-4.76-7.77-1-15.53-2.1-23.32-2.77-4.54-.39-6.55-2.16-6.35-6.87.26-6.32.12-12.67,0-19,0-3.67,1.49-5.39,5.28-5.72,8.12-.69,16.21-1.79,24.33-2.6,3.4-.34,5.25-1.76,6.13-5.32,2.47-10.05,5.74-19.85,11.65-28.52,2.39-3.51,2.17-6.27-.79-9.66-5.36-6.13-10.06-12.83-15.1-19.24-1.87-2.37-1.86-4.26.45-6.45q7.82-7.35,15.25-15.12c2.24-2.35,3.77-2.27,6.25-.23,6.69,5.5,13.72,10.58,20.46,16,2.28,1.83,4.24,2.24,6.75.66,9.09-5.71,18.74-10.16,29.29-12.34,4.14-.86,5.77-3.2,6.19-7.16.83-8,2.05-15.86,2.83-23.86.37-3.85,2.1-5.13,5.82-5,6.49.2,13,.18,19.49,0,3.77-.1,5.49,1.52,5.89,5.15.9,8.11,2,16.21,2.84,24.33.33,3.22,1.58,5.28,4.83,6.08A99,99,0,0,1,343.4,443c2,1.32,3.66.29,5.37-1.09,6.88-5.52,13.94-10.83,20.79-16.39,2.25-1.82,3.88-2,6,.15q7.88,8,16,15.79c2.25,2.16,1.65,3.89-.06,6-5.21,6.49-10.15,13.2-15.48,19.59-2.54,3.06-2.84,5.72-.63,9a78.45,78.45,0,0,1,11.57,28c.89,4.16,3.09,6.08,7.54,6.37,8,.51,15.89,1.72,23.84,2.48,2.84.27,4.3,1.53,4.3,4.37v22.5c0,2.85-1.39,4.11-4.23,4.41-8.28.9-16.53,2.08-24.82,3-3.44.35-5.54,1.8-6.32,5.24a89.79,89.79,0,0,1-12.9,30.63c-1.63,2.43-.57,4.28,1,6.26,5.3,6.63,10.37,13.44,15.79,20,2.3,2.78,2.16,4.73-.39,7.16-5.19,4.93-10.3,10-15.22,15.17-2.11,2.23-3.62,2.13-5.87.31C363,626.37,356,621.17,349.33,615.7c-2.55-2.07-4.55-2.4-7.54-.53a92.55,92.55,0,0,1-30.69,12.64,4.15,4.15,0,0,0-3.72,4c-.54,6-2,11.84-1.64,17.88Zm58.63-121c.44-21.55-18-40.49-39.93-41-22.28-.55-41.53,17.91-41.87,40.15s18.23,41.79,40.25,41.87a41.35,41.35,0,0,0,41.55-41Z"/><path class="cls-1" d="M616.74,303.73c-14-2.82-28-5.87-42.11-8.39a26.12,26.12,0,0,1-21-22.84c-1.55-16.9-4.19-33.71-6.2-50.57-.46-3.9-1.84-5-5.5-3.31q-17.76,7.95-35.64,15.61c-3.34,1.43-3.81,3.05-1.69,6.05,13.14,18.61,26.13,37.34,39.27,56,10.51,14.9,2.5,33.83-15.62,36-8.11,1-15-2.41-20.06-8.89q-26-33.24-51.89-66.57c-4.3-5.52-8.71-10.95-12.86-16.58-9.36-12.68-5.79-29.38,8.14-36.68,13.1-6.86,26.44-13.23,39.75-19.68,5.55-2.69,5.7-3,1.42-7.35-9-9.11-18.12-18.12-26.88-27.46-3.09-3.31-5.11-3-8.1-.1-4.9,4.74-10.4,8.86-15.16,13.73-9.8,10-22.43,15.3-34.59,21.43l-50.3,25.36c-13.61,6.9-26.19,1.55-30.17-12.87-2.26-8.19,2.06-17.13,10.84-22.07C358.21,163.3,378,152.05,398,141.13c6.62-3.62,11.56-8.92,16.68-14.14,14.1-14.37,28.06-28.91,42.23-43.22,16.92-17.09,41.2-16.82,59.61,1.45q32.09,31.86,62.94,64.93c11.33,12.12,17.14,27.08,18.36,43.81,1.29,17.61,3,35.18,4.43,52.78.24,2.95,1.32,4.48,4.31,5.07,3.38.67,6.52,2.6,10.17,1.92Z"/><path class="cls-1" d="M157.68,268.69c2.58-5.95,3.61-12.36,5.2-18.57,2.31-9,4.36-18.13,6.37-27.23.78-3.54,2.54-4.85,6.26-4.8,16,.23,32,.11,48,.25,3.81,0,7.12-1.35,10.59-2.56q32.73-11.43,65.53-22.69c11.21-3.86,21.55.69,25.84,11.27,3.86,9.53-.66,20.77-10.78,25.47-15.84,7.35-31.85,14.33-47.78,21.47-7.74,3.47-15.47,6.92-23.18,10.44a42.65,42.65,0,0,1-18.4,3.95c-13.5-.11-27,.08-40.5-.14-4.44-.07-6.42,1.4-6.49,5.95-.16,11-.63,22-.85,33-.1,4.58.84,5,4.91,3.21,16.68-7.51,33.28-15.22,50.11-22.37,17.79-7.56,36,5.57,34.26,24.92-1.24,14.08-3.63,28.05-5.56,42.06-2.39,17.33-4.92,34.63-7.21,52a22.68,22.68,0,0,1-10.85,17.07c-7.62,4.78-15.58,4.65-23.14,0-7.33-4.51-11.43-11.36-10.89-20,.78-12.63,2.26-25.21,3.38-37.82.32-3.59,2.43-8.37-.3-10.45S206,355,203,356.47c-16,7.87-31.82,15.92-47.82,23.71-4.2,2-6.07,4.7-6.42,9.54-2.12,29.75-4.65,59.47-7,89.2a29.29,29.29,0,0,1-6.93,16.74q-29.56,36.34-58.85,73c-8.25,10.29-21.84,12.94-31.55,6-10.54-7.57-12.75-21.07-4.8-32.28Q63.28,509,87.41,475.89a20.86,20.86,0,0,0,4.25-13.38c-.54-28.49.89-57-.85-85.47-1.69-27.6-3.81-55.18-5.89-82.76-.49-6.54-1.47-6.82-7.38-3.74-7.23,3.76-14.45,7.56-21.82,11a8.41,8.41,0,0,0-5.09,6.28c-3.36,16.46-6.58,33-10,49.39-1.28,6.15-2.06,12.58-7.24,17.13-6.31,5.54-14.92,7-21.89,3.52C3.42,373.9-.88,366.33.15,357c1.86-16.89,3.9-33.76,6-50.62,1-7.77,1.62-15.56,3.17-23.27,1.17-5.81,4.08-10.31,9-13.11,24.77-14,49.57-28,74.53-41.61,6-3.26,12.83-4.49,19.51-5.88,2.91-.61,4.62,0,5.63,3.15,4.48,13.93,9.18,27.79,13.79,41.67.31.94.41,2,1.73,2.52,2.75-2.94,1.84-6.89,2.47-10.31,1.21-6.55,1.68-13.22,2.66-19.81a8.47,8.47,0,0,0-2.71-8c-5-4.8-4.19-9.35,2.33-12.37a13,13,0,0,1,10.2-.62c6.23,2.46,7.24,6.9,3.12,12.32-1.47,1.93-2.58,3.78-2,6.38,2.2,9.73,4.3,19.49,6.44,29.24A2.34,2.34,0,0,0,157.68,268.69Z"/><path class="cls-1" d="M142.38,116.43a45.84,45.84,0,1,1-46.44,45.24A45.85,45.85,0,0,1,142.38,116.43Z"/><path class="cls-1" d="M456.69,46.22c.22,24.79-20.73,46-45.58,46.08-25,.12-46.08-20.84-46.3-46S385.4.26,410.8,0C435.8-.25,456.46,20.56,456.69,46.22Z"/></g></g></g></g></svg>