<svg xmlns="http://www.w3.org/2000/svg" viewBox="0 0 737.18 668.54"><g id="Capa_2" data-name="Capa 2"><g id="Capa_1-2" data-name="Capa 1"><path d="M57.34,456.9c-13.65-4.08-17-13.75-16.91-25.5,0-5.16.16-10.34.69-15.47.42-4.2-1.1-6.18-5.24-6.66-5-.58-9.9-1.38-14.82-2.23a32,32,0,0,1-9.9-3.27C.63,398.08-2.53,389.84,2,378.72c4.25-10.35,10.11-19.85,16.54-29,11.6-16.44,23.14-32.95,35.2-49.06,8.08-10.8,11-22.12,6.93-35.14-3-9.44-1.52-18.54,1.52-27.83C71.35,209.91,80,181.93,88.85,154a27.32,27.32,0,0,1,2.89-6.32c2.15-3.46,1.58-6.74-2.31-8.18-5.5-2-8.54-6.07-10.83-11-5.87-12.75-10.7-25.85-12.34-39.89-3.37-28.75,10.35-46.8,37.08-54.35a118.39,118.39,0,0,1,28.09-4.16c10.43-.37,19.68-4.54,28.71-9.31,4.77-2.52,9.9-3.54,16-3.8-3.26,2.05-6,3.58-8.47,5.37-15.63,11.18-18,35-4.76,48.9,5.16,5.42,10.64,10.53,15.93,15.82,5.14,5.14,10.22,10.33,15.63,15.8-15.27,0-30.17-.11-45.08,0-22.95.2-38.17,19.66-33,42,3.09,13.36,16,24.36,30.32,24.84s28.32.21,42.48.19a25,25,0,0,0,11.14-2.45c2.51-1.24,3.61-.72,4.52,2.11,2.15,6.64,2.33,6.55-4.2,9.38-5.45,2.36-9.6,6.49-13.88,10.44-9.06,8.34-18.38,16.43-27.2,25-12.63,12.31-12.83,32.44-.84,45.6,12.13,13.32,32.31,14.91,45.89,3.33,8.35-7.13,16.34-14.68,24.5-22,1.2-1.09,2.44-2.14,4.87-4.26,0,8.74.82,16.35-.18,23.72-1.64,12.06,2.55,21.22,11.77,28.33,3,2.32,4,4.69,4,8.36-.12,44.65-.07,89.3-.08,134,0,22.13,16.64,38.78,38.88,38.79q86,0,172,0c7.23,0,7-.05,5.78,6.83-4,23.3-2.56,45.71,7.94,67.65a466.24,466.24,0,0,0,55.78,89,21.19,21.19,0,0,1-12,34.12,41.72,41.72,0,0,1-8.94.7q-101.46.07-202.93,0c-19.32,0-38.63-.07-57.95,0-17.14.06-29.2-7.54-36.11-23.32C206,632,197.93,619.89,192.44,606.48A94.52,94.52,0,0,1,185,565.67c.25-5.09-1.59-6.54-6.65-5.28-28.66,7.13-57.51,13.11-87.25,12.38-8.95-.22-17.88-1.39-26.3-5C51.62,562,47.64,550.36,45.71,537.66c-1.52-10,1.3-19.53,4.45-28.88s4.36-18.29-.43-27.94C45.31,471.91,48.43,463.64,57.34,456.9Z"/><path d="M669.53,277.64q0,50.25,0,100.49c0,9.51-2.54,12-12.08,10.88-31.44-3.57-61.78.47-90.94,12.84a153.33,153.33,0,0,0-27.59,15c-3,2.07-6,2.87-9.35,1.08-3.06-1.65-4.37-4.36-4.37-7.84,0-29.33-.35-58.67.17-88,.15-8.65-.24-17.27-.13-25.9.35-26.92.08-53.86-.09-80.79a12.72,12.72,0,0,1,3.7-9.38c13.27-14.13,29.38-23.9,47.31-30.75,27.21-10.39,55.49-11.94,84.16-9.37,7.36.67,9.18,2.9,9.19,10.26Q669.55,226.9,669.53,277.64Z"/><path d="M316.89,287c0,17.28,0,33.59,0,49.91,0,15.15-.21,30.31.1,45.46.38,17.86,16.81,31.41,34.53,29.27,38.78-4.71,74.81,2.73,107.51,24.73a30.19,30.19,0,0,0,41.6-8c1.23-1.77,2.31-3.65,3.71-5.88,3.62,4.59,6.35,9.67,11.22,13.08,10.36,7.26,23.66,8.06,34.17,1,33-22.22,69.34-29.6,108.5-24.9a30.33,30.33,0,0,0,33.57-27,109.53,109.53,0,0,0,.4-11.47q0-96,0-192c0-6.67-1.37-6.26,6.48-6.3q11-.06,22,0c10,0,16.28,6.07,16.41,16.07.14,11.65,0,23.31,0,35v203c0,13.47-5.26,18.81-18.7,18.81q-91.22.06-182.44,0c-1.66,0-3.33-.3-5-.22-3.33.15-6.63-.32-8,4.39-1,3.35-4.81,4.43-8.32,4.47q-10.23.13-20.47,0c-3.74-.06-7.19-1.49-8.44-5.12-1.15-3.33-3.13-3.55-6-3.55q-51,.1-102,0-44.22,0-88.44,0c-11.57,0-17.24-5.64-17.24-17.13,0-39.65.05-79.3-.1-119,0-4.23.86-6.08,5.46-5.57a84.16,84.16,0,0,0,12,.06,22.51,22.51,0,0,0,18.9-10.43A36.19,36.19,0,0,1,316.89,287Z"/><path d="M341.3,245.13c3.81,4.32,7.37,8.91,11.5,12.92a33.21,33.21,0,0,0,40.91,4.82c12.75-7.56,18.72-22.63,14.82-37.6a30.91,30.91,0,0,0-8-14.17c-9.76-9.76-19.66-19.38-29.57-29A31.22,31.22,0,0,0,356.26,174c-1.57-.38-3.31-.73-1.9-2.8,1-1.51.39-5.22,3.79-3.95,13,4.82,26.45,2.83,39.61,2.4a94.32,94.32,0,0,1,43,8.86,128.87,128.87,0,0,1,37.77,25.68,17.74,17.74,0,0,1,5.57,13.75c-.22,25.31-.89,50.64-.57,75.92.48,37.14.16,74.27.46,111.41,0,1.66.07,3.33,0,5-.51,7.6-7.11,11.1-13.49,6.85-36.17-24.1-76-32.66-118.89-28-9.4,1-12-1.47-12-11l0-127.44c0-1.32,0-2.65,0-4Z"/><path d="M366.14,102.73C375.32,93.24,384.52,83.45,394,74c14.13-14.14,15-34.8,1.79-48.24-13.54-13.78-33.88-13.77-48.21.14-9.29,9-18.36,18.29-27.71,27.27-4.37,4.2-7,9.38-9,14.84-1.53-.4-1.55-1.15-1.25-1.7,3.49-6.39,3.91-13.32,3.72-20.38-.36-14,1-28-.85-41.92-.38-3,1-2.86,3-2.84,24.29.29,48.1,3.58,71.34,10.89,10.92,3.44,22.23,5.62,32.89,10a158.61,158.61,0,0,1,39.45,23c26.81,21.4,42.61,49.68,53.36,81.43a341.78,341.78,0,0,1,11.6,45.89c.84,4.41.31,7.61-3.62,10.76-6.32,5.07-12,11-15.74,18.7-15.41-23-37.46-36.63-62.11-46.69-3.82-1.56-2-3.3-1.17-5.29,8.11-19.85-1.83-40.24-22.43-46-5.9-1.66-11.93-.88-17.9-1C389.39,102.56,377.56,102.73,366.14,102.73Z"/><path d="M280.23,225.8c-7.64-.08-15.32.68-23-.4-2.66-.37-4.74-1.4-4.64-4.16.63-16.08-9-27.57-17.11-40-8.86-13.6-15.09-28.35-13.25-45.06,3.07-28,23.9-48.44,52.16-51.21,42.28-4.14,76,37.24,58.43,79.62a112.14,112.14,0,0,1-14.6,25.46c-6.28,8.16-10.41,16.81-10.68,27.31-.19,7-1.42,8-8.38,8.33C292.89,226,286.55,225.8,280.23,225.8Zm-31.35-78.44c3.41,0,6.94-2.05,8.89-6.51a36.14,36.14,0,0,1,8.71-12.61,32.23,32.23,0,0,1,15-7.37c6.83-1.55,10.57-7.27,9.27-13.15-1.47-6.63-6.28-10.21-13.29-8.88-19.74,3.76-33,15.61-40.35,34C234.24,140.11,239.79,147.22,248.88,147.36Z"/><path d="M257,258.69c0-.2-.06-1-.12-1.85-.66-9-.37-9.22,8.5-8.46a168.17,168.17,0,0,0,32.82-.3c4.26-.47,5.69.87,5.18,5a25.9,25.9,0,0,0,0,7.46c1.14,6.61-1.56,11.11-7.08,14.36-2.32,1.36-3.62,3.59-5.24,5.69-4.72,6.13-11.73,1.62-17.59,2.92-2.74.61-4.4-.85-5.11-3.49-.6-2.26-2.48-3.39-4.16-4.75C254.84,267.81,256.59,271.11,257,258.69Z"/><path d="M184.41,248.56c-5.42-.15-9-2.05-10.81-6.24-1.85-4.38-1.84-8.9,2-12.42,10.37-9.58,20.75-19.15,31.34-28.48,4.94-4.35,11.35-3.69,15.6,1,4.05,4.42,3.71,11.07-1.14,15.6-9.83,9.18-19.78,18.23-29.75,27.25C189.39,247.22,186.81,248.82,184.41,248.56Z"/><path d="M268.72,31c0-6.33-.11-12.65,0-19,.14-6.93,4.68-11.86,10.8-12,6.37-.16,11.3,4.84,11.37,12q.21,19.23.06,38.46c0,6.76-4.83,11.58-11.12,11.59S269,57.47,268.77,50.48c-.16-6.48,0-13,0-19.47Z"/><path d="M216.18,87.88c-3.41-.23-5.81-1.17-7.82-3.14-9.14-9-18.38-17.85-27.44-26.9-5.49-5.47-5.67-11.93-.82-16.71,4.61-4.55,11-4.25,16.35.94q13.45,13,26.75,26.14c4.24,4.2,5.12,8.59,3.09,13.12A10.38,10.38,0,0,1,216.18,87.88Z"/><path d="M387.44,234.33a10.81,10.81,0,0,1-6.38,9.9c-3.88,1.91-8.1,1.86-11.22-1.09-10.48-9.91-20.85-20-30.88-30.34-3.87-4-2.6-11.15,1.67-14.8,4.77-4.06,10.75-3.76,15.67,1,8.33,8.1,16.55,16.32,24.82,24.48a43.09,43.09,0,0,1,3.17,3.17C386.1,228.88,387.59,231.27,387.44,234.33Z"/><path d="M332.34,75.81a9.83,9.83,0,0,1,3.2-6.81c9.63-9.39,19.15-18.89,28.86-28.18a10.83,10.83,0,0,1,14.9.14c4.12,4,5,10.71.92,14.92-9.8,10.15-19.94,20-30.19,29.71-3.31,3.14-7.71,3-11.73,1.11S332.36,81.52,332.34,75.81Z"/><path d="M168.45,147.18c-6.49,0-13,.1-19.46,0-6.65-.13-11.27-4.55-11.41-10.65a10.8,10.8,0,0,1,11-11.13q20.2-.33,40.41,0c6.49.12,10.56,4.72,10.55,10.92s-4.07,10.59-10.61,10.81C182.09,147.36,175.26,147.18,168.45,147.18Z"/><path d="M390.94,147.2c-6.5,0-13,.14-19.5,0-7.25-.2-11.27-4.41-11.16-11.27.09-6.35,4.41-10.48,11.4-10.54q19.24-.16,38.49,0c7.25.05,11.68,4.31,11.69,10.84,0,7-4.19,10.85-11.92,11h-19Z"/><path d="M201,16.42c11.77-2.66,25-5.52,38.19-8.7,4-1,6.22-1.43,6.62,4.11.82,11.5.29,23,.36,34.45.05,6.77.75,13.28,3.54,19.49.32.72.92,1.45-.09,2.07C237.35,46.63,217.91,32.45,201,16.42Z"/></g></g></svg>