<svg xmlns="http://www.w3.org/2000/svg" viewBox="0 0 338.2 409.76"><defs><style>.cls-1{fill:#00008b;}</style></defs><g id="Capa_2" data-name="Capa 2"><g id="Capa_1-2" data-name="Capa 1"><g id="Capa_2-2" data-name="Capa 2"><g id="Capa_1-2-2" data-name="Capa 1-2"><path class="cls-1" d="M52.14,313.64c-6.58-.68-12.26-.41-17.81-1.88A46.25,46.25,0,0,1,0,267.41c0-21.68,13.66-39.8,34.18-45A35.91,35.91,0,0,1,43,221.34q123.45-.09,246.88,0a15.82,15.82,0,0,1,5.39.54c2.37.86,3.27,3,3.23,5.53-.05,3.16-1.65,5.65-4.57,6-7.73,1-8.48,6-8.38,12.34.24,14.86,0,29.72.11,44.57,0,7.64,1.74,9.38,9.22,9.45,11.2.12,22.41,0,33.61.06,4.27,0,8.66.23,9.56,5.57s-2.5,7.22-7.09,8.14c-3.93.78-5.63,3.53-5.63,7.47v50.75c0,4,1.89,6.46,5.87,7.22,4.26.82,7.51,2.8,6.93,7.7-.65,5.41-4.85,5.92-9.23,5.91-48,0-96,.09-144-.16-6.59,0-9.86.8-9.23,8.67.66,8.1-5.8,11.43-12.06,6-9.75-8.38-18.55-9.92-28.08-.18-2.3,2.35-5.48,3.74-8.76,2.1-3.48-1.74-4.56-5.15-4-8.75.93-6.36-1.53-8.23-7.82-7.84-8.88.54-17.83.1-26.74.07-19.47-.07-34.86-7.77-43.58-25.53-8.62-17.53-6.49-34.55,5.45-50.19C50.55,316.12,51,315.35,52.14,313.64Zm143.4,39.41q54.89,0,109.75-.07c2.2,0,5.16,1.45,6.46-2,2.56-6.83-.39-11.39-7.46-11.39H87.53a24.63,24.63,0,0,0-4.78.22c-3.8.75-6.35,3-6.06,7.07.27,3.59,2.71,5.74,6.36,6.05,2.5.21,5,.14,7.54.14Zm-37.29-79.53h9.59q49,0,98-.07c2.18,0,5.16,1.41,6.31-2.24,2.31-7.26-.33-11-8-11H51.73a29.22,29.22,0,0,0-6.8.44c-3.17.76-5.11,2.88-5,6.4s2.17,5.49,5.37,6.1a37,37,0,0,0,6.82.29q53,.1,106.13.08Z"/><path class="cls-1" d="M246.63,122.77c-1.88,24.62-12.75,51-29.36,75-5.21,7.55-13.43,11.43-22.6,13.06-9,1.6-17.41.27-25-4.56-6.37-4.06-11.81-4-18.32.14-15,9.61-37.35,5.6-47.89-9.49-18-25.8-29-54.43-28.74-86.37.21-24.21,15.27-43.93,37.77-52,11.9-4.29,23.27-3.87,33.17,3.81,10.43,8.1,19,7.71,29.85,0,20.55-14.67,43.25-2.19,57.33,12.84C244,87.1,246.45,102.2,246.63,122.77Z"/><path class="cls-1" d="M160.51,35.32c3.56-9.37,7.19-17.45,12.94-24.41a35.23,35.23,0,0,1,13.06-9.7C191.41-1,195.92,0,200.15,2.74c5.34,3.48,5.69,8.08.24,11.34-13.42,8-21.56,19.86-27.1,34.17-4.1,10.62-9.85,12.7-20.43,8.82q-28.17-10.35-26.07-34.61c.66-7.64,1.61-8.19,8.85-5.32A58.58,58.58,0,0,1,160.51,35.32Z"/></g></g></g></g></svg>