<svg xmlns="http://www.w3.org/2000/svg" viewBox="0 0 1654.67 1278.06"><g id="Capa_2" data-name="Capa 2"><g id="Capa_1-2" data-name="Capa 1"><path d="M1032,550.58c.42,16.82-2.71,32.68-1.56,48.7.36,5-.37,6.75-6.2,4.69-9.6-3.4-19.85-5-29.44-8.37-5.49-2-6.47.06-7.75,4.43-2,6.92-5,13.58-6.94,20.52-1.09,3.88-2.13,4.87-6.19,3.27-8.88-3.51-15.83-.54-22.84,6-13.23,12.37-30.84,17.11-47,24.25-14.42,6.39-28.35,12.42-40.06,24.25-20.43,20.61-44.67,36.3-73.59,42.83-5.42,1.23-6.13,3.77-6.46,8.12-1.66,22-7.56,42.75-20,61.26A85.28,85.28,0,0,1,751.87,805c-2.8,2.65-4,2.37-6.28-.88-7.94-11.52-11.57-24.41-12-38.06-.5-16.65-.82-33.37,2.85-49.83.54-2.41-.75-3.92-2.87-5.53-18.6-14.14-25.77-34.12-29.36-56.36-2.89-17.82,1.82-35.18,1.36-52.67-.56-21.33-1.07-42.65-1.22-64,0-7.85,2.4-15.49,1.67-23.43-.3-3.32-.7-5-4.49-6.27C662,495.17,626.14,475.07,593.11,450c-6.81-5.17-12.39-11.94-22.27-10.15-2.52.46-2.7-1.7-2.63-3.57.11-2.69.28-5.38.45-8.5H554.75c.4-5.74,4.32-9.23,6.4-13.56,1.45-3,3.76-5.58-2.15-6.69-3.35-.63-6.15-4-1.39-6.57,7.75-4.25,9.37-9.65,3.67-17.22,2.58-.21,3.83-.38,5.08-.41,13.36-.3,13.36-.29,14.59-13.06,8.25,2.79,15.77,8.62,25,6.85,11.34-2.18,22.75-1.23,34.14-1.41,2.92-.05,4.14-.53,4.79-4,3.21-17.25,2.72-34.28.19-51.64a106.13,106.13,0,0,1,1.62-39.35c2.12-9,1-17-.94-25.43a322.68,322.68,0,0,1-7.42-52c-.78-11.9-1.83-23.8-1.17-35.67,2.56-46.32,10-91.58,32.76-132.88,6.85-12.46,14.84-24.34,26.59-33.13,3.1-2.32,4.12-2.11,4.82,1.62a515.18,515.18,0,0,1,8,58.8,376,376,0,0,1,.87,45.62c-1,20-2.68,40.09-5.47,60.06-1.87,13.34-3.64,26.69-6.2,40.89,9.13-5,17.75-10.06,27.16-13.49a168.41,168.41,0,0,1,39.9-9.52c18.2-2,35.3,1.4,52.49,6,2.77.74,5.23.25,8-.69,20.83-7,42.17-12.6,63.9-15.28a328.73,328.73,0,0,1,72.06-.57c39.72,3.86,76.29,17.13,111.29,35.49,6.84,3.59,13.39,7.75,20,11.77,2.95,1.79,5.17,3.78.36,6.3A126.37,126.37,0,0,1,1057.15,241c-26,4.68-52.16,3.63-78.18,2.61a435.31,435.31,0,0,1-56.22-5.43c-11.55-2-23.39-2.36-34.94-4.75-2.3-.47-3.4.64-1.95,3.09,8.82,14.83,9.39,31.86,12.93,48.12,2.67,12.25,9,23.18,13.31,34.82,1.39,3.72,2.72,2.3,4.77.62,11.69-9.55,24.2-17.95,38.7-22.43,8.6-2.66,15.4-6.79,20-14.6,1.92-3.27,4-2.8,5,.73,2,6.89,4.92,6.52,9.44,1.88,1.25-1.28,3.42-2.17,4.61-3.72,2.76-3.61,4.26-1.2,4.74,1.21.89,4.48,2.35,7.26,7.72,7,2.53-.11,5.49,1.39,4.93,5.24-.1.74,0,2.16.17,2.19,9.4,1.75,4.53,8.4,4.27,13.11-.21,3.93,2.95,4.89,4.92,5.83,6.54,3.11,3.6,5.31-.2,7.76a29.17,29.17,0,0,1-2.69,1.32c-7.39,3.74-12.13,8.85-15,17.41-11.56,34.46-29.23,65.62-53.81,92.68-9.26,10.19-9,10.32-2.61,22.77,14.09,27.35,26.63,55.35,33.4,85.52,1.71,7.63,3.14,14.35,13.15,14.15,0-11.43.24-22.91-.11-34.37-.15-4.83,1.51-5.62,6-6a292.67,292.67,0,0,1,34.14-1.3c3.3.11,3.64-1.44,4.61-4.26,2.7-7.87,1.42-16,2.38-24,2.64-21.76,3.28-43.75,5.11-65.61.46-5.51,1.7-10.94,1.46-16.54-.16-3.75,2.41-5.79,5.39-7.37a872.58,872.58,0,0,1,149-62c40.95-12.76,82.7-22.34,124.63-31.17,3-.64,7.55-2.94,9.65-.48,2.45,2.87-1.26,6.29-2.31,9.53-8.9,27.22-17.49,54.54-26.2,81.83-6.06,19-12.51,37.84-18,57-1.55,5.38-6,4.11-8.21,4.48-16.83,2.71-33.82,4.31-50.72,6.61-16.6,2.26-33.12,5.08-49.72,7.37s-33.33,4.22-50,6.36c-11.68,1.5-23.33,3.17-35,4.56-3.8.46-3.39,4-3.68,5.71-2.5,14.81-4.45,29.71-6.58,44.58-1,7.18-2,14.37-3.18,21.53a3.16,3.16,0,0,1-3.76,2.94C1063.2,555.25,1047.87,553,1032,550.58ZM568.47,419.94c3.89.63,11.58-2.14,8.36,6.9-1.92,5.4.3,5.82,4.25,5.37,8.76-1,16,1.61,23,7.19,19.68,15.76,42.62,25.72,65.53,35.71,19,8.3,37.72,17.31,54.49,29.78,1.78,1.32,4.26,3,3,5.54s-3.73,1.4-5.87.6c-5.22-2-7.28-.91-7.84,5.49-1.21,13.94-1.37,27.86-1.23,41.8.08,8.89-1.08,17.87.64,26.66a68.63,68.63,0,0,1,.46,23.51c-3,19.83-4.26,39.39,1.7,58.91,2.22,7.25,14.59,17,22.31,17.44,18.27,1.13,34.56-5.49,50.16-13.49,23.79-12.21,47-25.52,70.61-38.11,8.56-4.57,18.07-7.22,25.76-13.59,4.8-4,6.18-12.83,1.93-17.57-9.1-10.16-18.69-19.91-27.24-30.52-10.44-13-21.53-25.71-24.85-43-1.69-8.82,4-17.93,10.95-16.37,13.44,3,13.44,3,24.91-4.91,1-.71,2.09-1.37,3.07-2.14,22.61-17.84,45.76-11.28,63.27,7.93,1.2,1.3,3.83,3.46,1.09,5.6-3.13,2.44-3-1.54-4-2.66-21.65-24.52-47.47-20.43-67.73,1.22-2,2.15-3.86,3.8.46,7.38,10.19,8.4,19.08,18.38,28.49,27.72,1.11,1.11,2.21,2.22.77,3.86-2.08,2.39-3-.1-4-1.09a45.67,45.67,0,0,1-6.46-6.51c-9.1-12.57-21.86-20.9-34.84-31.11A28.32,28.32,0,0,0,854.47,528c4.83,6.39,9.71,12.74,14.54,19.13.78,1,2.77,1.78.82,3.55s-3.3.38-4.29-1.11c-6.57-10-16-17.94-20.21-29.53-.64-1.77-1.51-3.87-3.47-3.2-2.24.76-1.24,2.81-.35,4.4C849.7,536.07,855,553,873.73,559.38c12.6,4.28,22,14.37,33.27,21.45,2.23-4-1.07-6.38-2.15-9.2-.92-2.38-2.52-4.79-1-7.17,6.38-10.06,15.37-16.7,27.44-17.29,18.71-.91,32.51,9.26,45.47,21.9-3.92-42.73-22.07-79.86-41.82-117.19C927,460.26,919,467,908.54,470.49a21,21,0,0,1,.47-9.87c4.59-17.69,15.75-31.26,27.81-44,13.23-13.94,27-27.3,38.26-43,8.93-12.52,20.74-23.2,23.91-39.24.9-4.53,2.9-8.26,7.91-9.86,1.89-.61,3.29-2.73,4.92-4.16-4.13-3.43-9.12-6.63-3.22-12.62-7-.07-1-12.06-11.26-11.16-5.68.5-6.66-2.39-11.76,2.14-1.19,1.06-2,2.89-4.36,2.83-2.85-8.67-6.58-8-10.56-.79a2.7,2.7,0,0,1-2.41,1.37c-19.24,3-34.43,13.86-49.4,25.19-2.4,1.82-3.82,4-3.13,7.18,4.71,21.48-3.27,40.31-12.5,58.79-5.74,11.5-13.88,21.45-22.18,31.09-5.34,6.2-10.6,13-18.56,16.67-1.48-5.72.87-9.69,4.63-13.12,9.58-8.71,17.29-19,24.62-29.56.76-1.09,4.86-3.56.62-6-16.12-9.08-20.36-23.82-19.62-41,.79-18.41,12.24-31.77,30-34.66-5.74-14.1-12.08-27.92-13.87-43.33-1.63-13.95-5.13-27.38-13.24-39.29-5-7.38-11.95-13.14-18.92-21.12,14.27,2.4,26.55,4.52,38.84,6.51,18.75,3,37.47,6.35,56.3,8.79,7.94,1,16.41,4.43,24,1.4a85.53,85.53,0,0,0,38.28-29.54c3.26-4.48,3-6-2.19-7.55-18.45-5.69-37.34-10.11-56.48-11-18.94-.86-38-1.59-57.09,1-17.61,2.37-35.12,4.9-52,10.4-14.31,4.64-28,7.56-43.53,2.52-16.77-5.45-34.73-4.15-52.11-.39-18.56,4-34.9,13.31-51.15,22.55-11.15,6.33-22,13.23-32.1,22.61,9.43-53.45,29.48-103.78,36.18-157.29-5.24-.52-8.75,1.65-12,3.63A129,129,0,0,0,653.91,122c-2,2.8-5.82,4.25-6.13,8.35-1,12.81-2.46,25.6-3,38.42-.91,22.78,1.54,45.41,4.7,67.92.82,5.84,1.24,12.16,4.81,17.91,2.81-4.74,7.09-6.43,11.09-8.57,1.2,1.87-.21,2.73-.73,3.74-12.16,23.67-13.82,48.67-11.18,74.74,1.07,10.55,4.32,21.37.59,32.3-1.36,4-.24,7.41,5,9.67,19.7,8.44,31.85,33.38,23.09,52-4.41,9.39-.12,10.74,5,14.45a176.64,176.64,0,0,0,37.14,20.82c12.28,4.95,24.22,11.33,38.22,9.16,26.14-4.05,52.53-6.83,78-14.55,4-1.22,5.17-.59,4,3.66A38.92,38.92,0,0,1,828,475.21c-13.84,9.13-29.43,9.17-44.18,5.54-37.63-9.25-74.64-20.78-105.62-45.57-14.56-11.64-26.24-25.7-30.31-44.55-1.19-5.53-3.46-7.12-9.3-7.62-16.7-1.4-33.42,4.66-50.48-.64,2,8.51-2.81,9.36-9.32,8.67-1.58-.17-5.42-.9-4.76,1.24,1.78,5.68-4.56,6.66-5.22,10.28C578.64,409.28,565.55,413.74,568.47,419.94ZM1054.73,407c14.15,1.89,27,3.95,40,5.28,23.68,2.42,47.09,6.71,70.38,11.19,36.93,7.11,73.57,15.8,110.18,24.44,6,1.4,7.62.7,9.43-5,13-41.09,26.33-82,39.42-123.08.47-1.48,2.71-3.35,1-4.71s-4.28-.71-6.57-.18c-12.87,3-25.75,5.88-38.66,8.65-32.67,7-64.66,16.52-96.34,26.95a718.66,718.66,0,0,0-73.14,28.29C1091.78,387.25,1073,395.42,1054.73,407Zm-.77,23.54c-1.75,7.49-1.79,14.93-2.35,22.36-1.63,21.82-4.12,43.58-5.75,65.4-.35,4.72-1.48,6.06-6.11,5.9-9.42-.34-18.87-.15-28.3-.07-2.28,0-6.76.12-3.85,3.47,5,5.79,10.6,12.67,18.06,14.36,14.34,3.26,29.15,4.52,43.76,6.58,3.09.44,4.36-1.13,3.72-4-2.2-9.78-3.23-19.74-4.77-29.62C1064,486.83,1058.85,458.84,1054,430.53ZM741.51,771.41c2.31-4.76-.1-9.09,2.44-12.77.89-1.29.28-3.75,3-3.3s2.11,2.84,1.69,4.23c-2.92,9.71-.6,19.62-1.34,29.41-.21,2.7.21,5.18,2.55,6.67,5.45-3.21,6.31-7.78,6.91-13.52,1.1-10.47-3-19.21-7.07-28-3.09-6.66-4.13-14.06-8.15-22.12ZM839.15,529c.2,2.5.07,4,.59,5.88,2.48,8.88,8.67,15.55,13.25,23.16.94,1.57,1.87,4.9,4.69,3,2.44-1.6,1.13-3.71-.37-5.8C851.29,546.78,845.5,538.18,839.15,529Z"/><path d="M828.14,339.38c-2.85,4.65-7,6.71-6.52,14.11C823.27,378.09,823,403,816,427c-3.77,13-8.52,16.76-17.63,15.95-5-.43-8.82-3.09-12.43-6.38-16.59-15.07-28.16-33.83-39.24-53a103.81,103.81,0,0,1-5.81-10.45c-2.09-4.84-4.8-7.81-10.68-6.82-1.72.29-5.49,1.58-5.41-1.72s3.66-2.92,6.15-2.69c11.3,1,21.24-2.24,30-9.22,1.57-1.25,3.55-2.3,4.52-3.92,2.37-4,5.16-3.82,9.38-3.08,11.59,2,23.27,4.25,35.11.94,4.8-1.34,9.61-2.41,12.48-7C824.49,336.49,826.12,339.16,828.14,339.38Zm-10.27,41.48c-1.48-3.66,2.55-9.31-3.51-11.15-5.44-1.65-11.24-3.18-16.84-3.06-15.1.31-26.72,8-35.47,19.8-1.8,2.42-5.55,5.29-2.66,9.83,8.45,13.27,17.06,26.33,29.12,36.74,10.5,9.06,18.64,7,23-6.07C816.49,412,815.76,396.29,817.87,380.86Z"/><path d="M842,268.49c11.75-.11,23,11.13,22.48,23.63-.69,15.83-9.27,24.39-22.3,25-10.23.5-23.34-12.35-23-25.5C819.37,279.81,830.14,268.61,842,268.49ZM837.41,296c5.7.78,8.3-3.29,9-7.86.87-6-4.65-12.08-9.78-12-5.3.06-9.78,4.48-9.57,9.46C827.26,291.58,831.68,296.12,837.41,296Z"/><path d="M716.65,320.55c1.86,14.39-12.56,28.09-22,27.67-11.69-.52-20.89-10.89-20.85-24.75.05-15,7.74-22.85,22.45-22.84C710.19,300.64,716.65,307,716.65,320.55ZM689.1,315.3c0,5.64,3.73,9.67,9,9.8,5.06.12,11-5.38,10.81-10.49-.24-5.88-3.74-9-9.55-9.35C693.07,304.94,689.06,309,689.1,315.3Z"/><path d="M771.38,325.34c.52,3.28-2,4.29-3.43,5.78-2.25,2.3-4.45-.28-6.67-.58-.48-.07-1.3-1.34-1.15-1.74.89-2.3,3-2,5-2.21A56.18,56.18,0,0,0,771.38,325.34Z"/><path d="M920.54,668.68c18,27.3,35.63,54.91,54.34,81.74,6.48,9.29,5.31,13.41-4.38,18.42C946.93,781,923.83,794.1,896,809.29c31.77,5.78,57.42,13.69,79.31,30.57,10.39,8,11.35-1.05,11.61-7.47,1.06-25.63,19.19-31.92,39.32-34.13,14.68-1.61,29.72-.48,44.57.16,15.27.66,29.41-1.68,42.49-10.28,20.39-13.39,43.46-6.69,65.32-7.16,49.15-1.07,48.88-.41,55.45,47.49,3.64,26.57,9,52.92,12.42,79.51,1.52,11.71,3.33,16.46,15.86,9.15,16.11-9.4,33.64-16.06,52.72-16.16,9.89-.05,12.79-4.77,12.47-13.89-.51-14.16,1-28.51-.77-42.49-3.21-26.24,12.66-31.35,31.34-32.93,7.26-.61,14.89.44,22.06,2,35.53,7.9,70.92,16.39,106.44,24.3,8.6,1.91,18.32.84,20.84,12.69.94,4.39,4.26,6.45,8.22,3.62,16-11.46,31.47-2.31,46.9,1.21,26,6,51.8,13.32,78,18.67,13.22,2.71,16.81,7,12.26,20.59-37.88,112.86-75,226-112.7,338.9-8.93,26.73-27.36,35.11-53.79,26.22-14.78-5-29.47-10.37-44.53-14.31-19.15-5-35.49-11-30.06-36.4,1.85-8.69-4.06-11-11.91-11.94-19.9-2.39-39.62-7.08-59.56-8.17-16.61-.91-19-8.19-18.31-22.76.35-8,11.33-22.29-5-24.72-19.24-2.88-30.93,8.86-29.28,26.48,2.08,22.18-13.13,24.59-28.25,25.35-31.55,1.58-61.37-10.32-92.35-13.7-24.59-2.68-52.1-2.2-43.81-44.64-19.12,13.84-29.52,10.29-35.32-6.84-1.1-3.27-4-7.14-8.42-4.17-24.44,16.47-49,2.07-73.42.27-14-1-27.86-6.39-41.8-6.47-21.61-.13-25.17-10.31-19.81-28.21,2.12-7.06,3.36-14.22,1.53-22.1-17.57,6.17-34.09,12.59-51,17.66-9.86,3-9.71,9.79-9.7,17.4,0,20.15.27,40.31,0,60.45-.28,23.8-19.33,35.23-40.89,24.55-52.62-26.1-105.12-52.45-157.8-78.42-7.08-3.49-13.64-9-24.62-8.48,0,13.34-2,26.86.42,39.55,4.51,23.83-9.73,33.75-27.8,37.67-31.16,6.77-63,10.38-94.55,15.45-9.52,1.53-13.52-2-13.56-11.87,0-7.92-1.84-15.84-3-24.74-72.34,48.46-130,44.56-182.27-14.74,5.85,23.5,10.18,44.52,16.48,64.93,3.85,12.47.1,18.87-10.35,25.18-31.07,18.72-66.91,24-100,37-6.68,2.61-14.65,2.4-19.55,8.93H219c-.22-2.2.11-4.63-.73-6.55-36.82-83.71-73.95-167.29-110.4-251.16-4.9-11.27-10.46-13.43-20-7-11,7.51-16.22,2.32-22.15-7.62C44,969.43,24.72,931.66,0,897.2v-4.48c78.07-68.94,167.94-105.51,273.06-98.56,74.72,4.94,147.68,58.91,137.36,148.58-.1.84,1.67,1.9,3.26,3.59,23.61-14.93,49.46-23,77.68-22.37,5.12.11,11.13,1.2,10.49-7.18-.35-4.62-1.14-9.83-7.55-7.61-23,8-19.7-8.71-20.34-21.55-.52-10.42.84-21.18-1.23-31.25-4.15-20.19,4.83-30.61,22.73-36.46,47.26-15.43,94.44-31.11,141.72-46.48,3.27-1.06,10.07-1.08,10.26-.34,4.88,19.56,14.5,5.23,20,1.89,11.93-7.24,20.18-6.57,30.67,3.65C719.94,799.94,743.94,819,766,840.07c9.1,8.7,16.69,8.21,25.11,1.41,10.62-8.58-1.5-12.27-4.7-17.35-3.63-5.75-8.52-10.08-1.68-17.12,44.34-45.57,77.46-101.83,131.33-138.33ZM245.32,821.34c-54.28,1.23-104,17.51-151.71,41.41-31.93,16-31.85,16.11-14,46.1,6.86,11.5,14,22.88,20.21,34.73,5.34,10.16,11.43,15.4,22.33,7.4,15.27-11.22,20.26-2.56,26.31,11.32,31.8,73,64.53,145.55,97.18,218.15,19.79,44,19.78,43.26,65.5,28.32,13.56-4.44,14.66-9.84,11.1-22.37-10.36-36.49-18.22-73.71-29.07-110-4.3-14.4-.59-21.31,10.78-29.29,34.34-24.09,60.15-55.34,72.86-96,12.14-38.85.28-74.32-31.38-99.48C315.8,828,281.15,822.43,245.32,821.34Zm1270.14,187.53-4-.56c-9.4-43.63-19.1-87.19-28-130.93-2.08-10.27-6.26-15.43-16.83-17.18-22.71-3.76-45.2-8.87-67.88-13-6.1-1.09-15.24-8.93-17.36,4.29-1.32,8.26-4.66,19.39,8.23,21.81,12.14,2.29,11,10.27,9.76,18.37-3.34,22.1-1.36,42,15.49,59.41,6.17,6.38,8.61,17.25,10.75,26.54,10.46,45.52-4.8,83.8-35.74,116.34-13.55,14.25-15.89,31.74-12.2,47.71,3.28,14.22,21.42,7.54,32.45,11.6,19.92,7.34,25.34-2.14,28-20.08,5.24-35.83,12.21-71.41,18.46-107.1l5.9.46c0,47.39,1.18,94.82-.48,142.15-.88,25.08,7,37.53,32.48,42.49,16.85,3.29,23.94,2.8,29.7-15.64,25.76-82.38,53.25-164.22,80.44-246.15,18.23-54.91,18.28-53.93-39.28-66.35-16.49-3.56-20.26,2.08-23.34,15.61C1533.63,935.54,1524.38,972.17,1515.46,1008.87ZM626.11,904.27c-2-30.32-3.62-54.8-5.28-79.27-.43-6.38,1.28-14.93-10.09-11.59-25,7.34-49.84,14.89-74.8,22.22-10,2.94-8.3,10.89-8.17,18.21.15,9.62,7.12,8.87,12.55,6.78,13.85-5.34,14,3.09,14.92,12.84,3.66,39.61,5,78.41,28.56,114.79,20,31,11.74,67.72-3.41,101.14-8.14,18-8.19,39,.24,53.95,6.87,12.17,25.69-1.4,39.4-.52,13.49.87,17.42-6.92,17-19.88-.81-26.11.41-52.28-.43-78.39-.51-16.06,2.77-19.44,18.18-11.48,57.49,29.72,115.49,58.44,173.51,87.13,9,4.45,17.22,11.81,29.53,11,0-13.77-1.07-27.28.29-40.54,1.44-14-4.22-19.58-17.21-22.11-24.58-4.78-49.24-13.62-63.72-34-20.13-28.29-48.66-39.74-78.64-50.76-9.51-3.49-18.8-7.59-30.5-12.35,17-18.1,32.31-34.25,47.46-50.56,14.15-15.24,38.15-29.86,39.41-46.19,1.32-17-26.28-28.94-40.34-44-3.56-3.81-7.93-6.92-11.14-11-7.37-9.34-12.22-6.95-18.32,1.86C667,847.87,648.11,873.59,626.11,904.27Zm508.15,5.93-3.33-.48c-2.15-11.63-4.18-23.29-6.46-34.89-10.17-51.85-10.19-51.38-63.22-50.88-13.59.13-19.76,3.63-21.84,17.95-5.45,37.55-12.49,74.87-19,112.27-1.08,6.19-1.68,12.93,4.08,16.29,22.52,13.14,9.89,23.7-2,34.46-19.93,18.1-20.83,44.59-18.77,66.28,1.51,15.89,28.2,7.61,42.59,13.7.65.28,1.54,0,2.2.27,21.66,8.77,26.11-3.32,28.1-21.62,2.67-24.42,7.32-48.63,12.14-79.47l42.86,89c9.9-23.95,18.16-43.91,28.61-69.17,4.47,30.78,7.9,55.09,11.53,79.37,8.2,54.76,8.23,54.91,64.67,59.86,5.84.51,14.46,5.6,17.7-2.8,3.31-8.58-4.28-13.78-10.77-17.33-58.34-31.92-66.84-111.11-27.45-163.69,7.33-9.78,9.21-19.65,7.23-31.32-5.72-33.79-12.49-67.5-16-101.54-2.12-20.88-14.76-18.53-28.15-18.48-14,0-28.16-2.87-30.6,18.83C1145.32,854.79,1139.14,882.42,1134.26,910.2ZM883.92,976.49c27-29,51.32-57.13,77.93-82.84C976,880,971.69,873,959.24,862.91c-50.61-41.14-142.19-25-176.81,31.68-36,59-4.66,131.55,62.8,146.24,44.33,9.65,83.91-2.94,121-25.37,37.55-22.67,37.14-23.34,4.41-52.45a85.23,85.23,0,0,1-8.16-7.6c-7-8.17-12.75-9.59-21.32-.52C926.86,970.07,908.18,976.63,883.92,976.49ZM454.61,1143.81c52-.62,100.19-39.08,112.33-89.67,16.62-69.3-38-122.94-106.62-103.52-48.08,13.6-76.52,47.15-86.55,95.69C363.19,1097.51,402.64,1144.42,454.61,1143.81ZM1294.88,1112c53.48-.22,102.74-44.66,109.51-98.81,6.42-51.42-35.21-93.91-86.5-88.27-49.09,5.4-91.24,44.91-100.31,94C1208.6,1067.6,1245.63,1112.18,1294.88,1112ZM945.59,751.13C936.92,739.62,928,726.83,918,715c-4.54-5.39-7.66,1-10.14,4-18.08,21.58-36,43.31-53.87,65-3.31,4-7.34,8.44-3.64,13.82,4.08,5.94,9.47,2.17,13.84,0Q901,779.72,937.53,761C940.92,759.27,946.76,758.82,945.59,751.13ZM714.88,961.76c9.59,5.43,16.83,8.88,25,8.82V934.81Z"/><path d="M326.84,951.65c1.22,33.9-19.14,50.93-41.43,67-8.13,5.85-10.25.67-12.13-5.44-8.75-28.41-17.28-56.9-26-85.31-1.76-5.73-1.47-10.17,4.75-12.76,18-7.51,36.22-8.8,53.81.54C321,923.72,328.28,936.87,326.84,951.65ZM288,986.17c16-10,18.61-23.76,15.68-39.18-1.72-9.11-8.84-13.21-17.61-14.29-8-1-15.65-1.79-11.32,10.86C279.46,957.28,283.41,971.27,288,986.17Z"/><path d="M821.63,938.94c.09-44.64,42.65-69.68,77.63-50,10.3,5.79,14.33,11,4.28,21.43-15.44,16.08-29.65,33.33-44.32,50.14-16.87,19.33-25.33,18-34.33-6.06C822.6,948.32,822.14,941.5,821.63,938.94ZM885,903.72c-29.74-2.57-46.88,11-45.28,32.33.26,3.47-.43,7.72,3.54,9.64,4.51,2.17,6.55-2,8.81-4.51C862.27,929.78,872.29,918.22,885,903.72Z"/><path d="M525.55,998.75c8.24,28.16-4.13,52.54-30,59.18-27.12,7-55.94-8.86-61.64-33.83-6.09-26.73,10.7-48,44.46-53.5-7.53,10.25-17.59,18-13.9,31.29a27.42,27.42,0,0,0,11.41,15.82C492.86,1029.47,509.65,1023,525.55,998.75Z"/><path d="M1312.21,947.83c-16.07,19.83-16.62,34.16-1.75,45.23,16.65,12.41,33.82,7.48,50.11-14.37,7.56,29.92-7,51.29-38.15,56.18-26.54,4.16-51.6-14.83-54.08-41C1265.78,966.89,1283.34,948.45,1312.21,947.83Z"/></g></g></svg>