<svg xmlns="http://www.w3.org/2000/svg" viewBox="0 0 1066 918.61"><defs><style>.cls-1{fill:#f5f5f5;}</style></defs><g id="Capa_2" data-name="Capa 2"><g id="Capa_1-2" data-name="Capa 1"><g id="Capa_2-2" data-name="Capa 2"><g id="Capa_1-2-2" data-name="Capa 1-2"><path class="cls-1" d="M1066,366.58c-8.3,25.19-26.29,33.57-52,33.48-147.45-.56-294.9-.17-442.35-.51-9.93,0-12.79,2.24-12.63,12.42.64,39.55.43,79.11.12,118.66-.06,7.24,2.06,9.32,9.34,9.39,31.55.28,63.18-2.13,94.64,1.31,56.43,6.17,102.74,54.83,105.28,111.45,1.42,31.48,3.19,63.15-1.84,94.5-3.43,21.38-13.12,40.18-27.77,56.06-8.54,9.25-12.51,19.41-11.94,32s.39,25-.1,37.46c-1,25.22-20.1,45.25-45.11,45.43q-105.12.76-210.24,0C447,918,427.86,898,426.76,873.4c-.54-12.13-.27-24.28-.32-36.43,0-9.82-3.43-17.41-11.09-24.46-24.62-22.64-43.18-50.58-64-76.48C334.59,715.25,316,695.79,305,671c-13.6-30.53-8.75-62.13,12.86-81.41,24.1-21.51,58-24.43,86.88-7.47,12.84,7.55,17.91,4.9,17.93-9.62.05-54.47-.19-108.94.24-163.41.06-8.34-2.83-9.42-10.1-9.41q-181.62.3-363.25.14C15.43,399.78,0,384.36,0,350.25Q0,321.63.06,293c.08-12.7,6.36-20.24,16.21-19.9,9.48.32,15.09,7.48,15.15,19.81.11,19.78,0,39.56,0,59.33,0,13.15,2.83,16.1,15.69,16.1q183.2.06,366.38.23c8.65,0,9.3-3.42,9.24-10.37-.31-31.45,13.09-54.83,42.28-67.81,40.07-17.82,88.43,10.69,93.17,54.37.82,7.51-2.16,17.41,2.88,21.93,5.45,4.89,15.27,1.59,23.16,1.6q215.46.13,430.91.06c17.79,0,19.34-1.59,19.35-19.76V49.87c0-16.46-1.86-18.27-18.65-18.29-13.53,0-27.06.18-40.59-.09-10.49-.21-17.33-6.57-17.4-15.45S964.63.46,975.05.29c17.34-.3,34.71-.52,52,.14,20.2.78,31.15,14.05,38.87,31ZM454.06,465.94c0,36.76.33,73.52-.1,110.28-.39,34.1-31.48,51.78-61.17,35.26-3.32-1.85-6.52-4-10-5.47-14.67-6.2-28.52-4.3-41.17,5.2-11.12,8.34-14.8,19.86-12.3,33.17a65,65,0,0,0,12.55,28.28c31.91,40.57,61.6,83,98.18,119.69,11.73,11.78,17.58,25.47,17.85,41.78.19,11.1-.07,22.2.08,33.29.2,13.74,6,19.52,19.76,19.65,17.34.16,34.68,0,52,0H673.32c17.11,0,22.07-5.12,22.14-22.47,0-6.24.53-12.54-.08-18.72-2.67-26.81,5-49.46,23.9-69.19,10.94-11.45,16.29-26.76,17.31-42.62a611.83,611.83,0,0,0,0-82.14c-2.86-40.63-39-76.17-79.36-79.38-31.17-2.47-62.39-.75-93.59-1.11-27.8-.31-36.25-8.64-36.25-36.84V362.92c0-4.85.14-9.77-.61-14.53-2.37-15-10.83-25.4-25.31-30.07-14.21-4.59-26.73-.67-37.07,9.79-8,8.14-10.42,18.42-10.39,29.59C454.13,393.8,454.07,429.87,454.06,465.94Z"/><path class="cls-1" d="M474,.17H901.64c16.68,0,24.58,5.15,24.47,15.89s-7.78,15.52-24.71,15.52H51.28c-18.6,0-19.83,1.26-19.83,20.23V217.26c0,3.81.25,7.72-.5,11.41-1.58,7.76-7,12.12-14.64,12.45-7.21.31-12.83-3.45-15-10.54C.12,226.71.08,222.39.08,218.27Q0,133,0,47.62C.06,16.3,16.12.18,47.36.18Q260.67.15,474,.17Z"/><path class="cls-1" d="M83,186.35c0-23.24-.07-46.48,0-69.72,0-11.94,3-15.32,14.46-15.38,19.06-.09,38.17-.19,57.19.87,24,1.33,40,13.67,44.81,33.53,6.33,26.23-2.4,53.18-21,61.13-5.38,2.3-4.76,5.17-2.21,9.59,7.8,13.49,15.19,27.23,22.63,40.93,6.22,11.44,3.65,19.06-8.36,25.36-10.94,5.74-18.9,3.35-24.81-7.91-9-17.18-18.25-34.26-26.46-51.82-3.59-7.7-9.28-7.48-15.35-6.64-7.13,1-3.8,7.13-3.92,10.91-.43,13.17-.07,26.36-.2,39.54-.12,12.58-5.85,17.86-18.85,17.7-12.65-.16-17.92-5.14-18-17.33Q83,221.73,83,186.35Zm36.86-31.52c0,23.54,0,23.54,22.72,22.56,15.53-.68,21.71-6.72,21.89-21.42.2-15.29-6.2-21.9-21.86-22.59-22.74-1-22.74-1-22.74,21.45Z"/><path class="cls-1" d="M603.15,186.75c0-22.9-.07-45.79,0-68.69.06-13.91,2.74-16.83,16.25-16.86,17.69,0,35.4-.14,53.05.74,26,1.3,41.92,12.76,47.07,33.4,6.35,25.47-1.56,53.56-21.43,61.85-5.36,2.24-3.83,5.17-1.73,8.88q11.75,20.82,23.14,41.85c5.81,10.71,3.08,18.34-8.49,24.57-10.63,5.71-18.91,3.71-24.41-6.64-9.28-17.43-18.63-34.85-27-52.73-3.56-7.62-9-7.68-15.22-6.89-8,1-4.22,7.58-4.36,11.59-.48,13.51,0,27.05-.23,40.58-.16,11.06-6,16-18.25,16s-18.3-4.93-18.38-15.88C603,234.62,603.15,210.69,603.15,186.75Zm53.18-53.46c-16.45,0-16.45,0-16.45,16.49v3.12c0,26.41,3,28.88,29.2,24,8.45-1.57,13.41-6.45,15.12-14.92,4-19.62-4.73-28.63-27.87-28.69Z"/><path class="cls-1" d="M221.05,187.72c0-22.89-.06-45.78,0-68.66,0-13,3.47-17.37,16.32-17.61,27.39-.52,54.79-.43,82.18-.13,9,.1,13.59,6.44,13.29,16.31s-5,15.58-14.06,15.7c-17.68.24-35.38.29-53.06,0-5.79-.11-8,1.45-7.66,7.51.62,10.32-3.14,23.4,1.86,30.27s18.73,1.68,28.63,2.17c11.26.56,16,4.6,16,14.56,0,9.79-4.77,14-16.14,14.21-9.65.21-22.52-3.16-28.09,1.73-6.49,5.71-1,18.94-2.22,28.8-1,8.1,2.28,9.9,9.85,9.64,16.28-.56,32.59-.3,48.89-.13,10.78.12,15.84,5.37,16,16S328,274.43,317.35,274.5c-26,.19-52,.3-78-.05-14.29-.19-18.24-4.75-18.27-19.11Q221,221.53,221.05,187.72Z"/><path class="cls-1" d="M475.1,188.53c0-23.24-.07-46.47,0-69.71,0-12.9,3.54-17.16,16.55-17.4,27-.51,54.1-.4,81.14-.15,9.67.09,14.44,6.29,14.08,16.63-.35,9.89-5.09,15.32-14.31,15.44-17,.22-34,.54-51-.14-8.1-.32-10.27,2.38-9.52,9.94.94,9.59-3.87,22,1.81,28.13s18.35,1.57,27.93,2c11.92.49,16.9,4.64,16.76,14.81-.14,9.77-4.85,13.83-16.39,14-7.63.08-15.28.28-22.89-.07-5.26-.24-7.51,1.28-7.22,6.94a225.72,225.72,0,0,1,0,25c-.37,6.28,1.47,8.51,8,8.34,16.63-.44,33.29-.23,49.93-.11,11.6.08,16.76,5.21,16.84,16.26s-5.07,16.18-16.76,16.23c-25,.12-49.94.18-74.91,0C478.85,274.5,475,270.4,475,254.18Q475.07,221.32,475.1,188.53Z"/><path class="cls-1" d="M880.85,186.87V119.3c0-13.13,3.4-17.57,16.06-17.83,27.37-.54,54.75-.44,82.12-.17,9.16.1,13.69,6.08,13.59,16-.1,10.31-5,15.9-14.81,16-16.63.19-33.29.59-49.89-.16-8.62-.39-10.76,2.71-10,10.52a73.31,73.31,0,0,1,0,17.64c-1.55,10.57,3,13.2,12.63,12.1,6.5-.75,13.15-.17,19.74-.12,9.43.07,13.89,5.1,14,14.3.1,9.38-4.21,14-13.83,14.31-8.65.26-17.33.3-26,0-5-.19-7,1.7-6.4,6.58a8.34,8.34,0,0,1,0,1c.25,10.34-3.34,23.74,1.79,30.18,5.44,6.82,19.43,1.74,29.67,2.19,9,.4,18,0,27,.12,10.85.21,15.84,5.29,16.08,16s-4.78,16.42-15.42,16.5c-26,.19-52,.29-78,0-14.31-.18-18.36-4.76-18.38-19Q880.8,221.17,880.85,186.87Z"/><path class="cls-1" d="M406.7,100c12.18.31,24.33,1.18,35.45,6.68,10.27,5.08,13,14.21,7.75,24.37-4.77,9.35-10.22,11-21.67,5.65s-23.1-7.25-35.32-3.47c-5.21,1.61-9.42,4.48-10.35,10.44s2.31,10,7.17,12.63c13.72,7.35,28,13.79,41.29,21.81,29.43,17.73,35.07,59.29,11.75,82.55-22.22,22.16-74.29,21.36-95.65-1.47-7.33-7.83-8-16.94-1.93-25.45,5.64-7.87,12.49-9.24,20.66-4,4.95,3.18,9.63,6.85,14.77,9.67a32.83,32.83,0,0,0,27.15,2.43c5.91-2,10.83-5.15,11.93-11.73s-1.86-11.81-6.91-15.31c-5.94-4.13-12.48-7.41-18.86-10.88-8.52-4.64-17.45-8.59-25.63-13.74-18.34-11.55-25.72-28.64-22.39-49.88,3.08-19.63,15.89-30.74,34.16-36.54A80.94,80.94,0,0,1,406.7,100Z"/><path class="cls-1" d="M799.47,226l22.83-84c2.82-10.35,5.39-20.78,8.48-31,2.68-8.9,9.75-11.54,21.16-8.47,11,3,16.54,9.45,14,18.07q-21.11,70.62-42.81,141.07c-3.61,11.73-13.76,13.63-24.22,13.89-13.37.34-21.83-4.12-25-14.25q-21.7-69.36-42.72-138.93c-3-10,2.46-17.06,14.19-20s18.29,0,21.11,10.14c9.72,35,19.24,70.08,28.85,105.13.72,2.65,1.57,5.27,2.35,7.91Z"/></g></g></g></g></svg>