<svg xmlns="http://www.w3.org/2000/svg" viewBox="0 0 7608 7604"><defs><style>.cls-1{fill:#00008b;}</style></defs><g id="Capa_2" data-name="Capa 2"><g id="Capa_1-2" data-name="Capa 1"><path class="cls-1" d="M0,3884V3716c2.69-.09,5.42-.26,6.76-3.11a58.42,58.42,0,0,0,5.2-23.22c.28-8.66.61-17.32,1.24-26,3.43-47.18,6.7-94.37,10.51-141.53,4.18-51.79,8-103.64,13.57-155.3,7.69-71.52,17.89-142.73,30-213.68q25.35-148.78,62.91-294.92c53.27-206.86,124.25-407.57,210.53-602.88C489,1919.73,681.36,1611.63,921.1,1333.6Q1359.31,825.42,1941.92,492,2392.55,233.09,2898,111C2984.73,90,3072.05,71.74,3160.05,57c53.84-9,107.9-16.91,162-24,43.57-5.73,87.38-9.65,131.11-14.21q69.59-7.27,139.48-10.81c37.93-1.89,75.88-3.28,113.82-5,5.93-.27,12.08.51,17.5-2.92h196c6.8,3.71,14.29,2.84,21.55,3,52.66,1,105.19,4.38,157.72,8.16Q4205,18.76,4310,33q117.84,15.8,234.62,38.4c115.15,22.29,229.09,49.49,341.45,83.15q331,99.15,639.59,254.5,576.7,288.81,1023.12,754.5c172.27,180.33,325,376.06,460.84,585.09C7195.56,2034.72,7340.7,2340,7442,2666a3710.28,3710.28,0,0,1,142.75,677.56c9.53,82.77,18.49,165.59,19.91,249,.11,6.63-.14,13.4,3.38,19.47v384c-2.66,6.86-3.32,14.05-3.39,21.31-.57,56.05-6.28,111.71-11.78,167.42q-12.57,127.34-33.73,253.49-27.72,166.6-71.06,329.9c-72.29,272.69-171.36,535.15-302.18,785.2-279.53,534.32-665.48,977.17-1152,1332.3-366,267.13-769.91,456.28-1205.76,578.28q-171.3,48-346.46,79c-55.71,10-111.6,19-167.83,25.63-37,4.39-74,9.16-111.15,12.83Q4140,7587.57,4077.2,7592c-49.18,3.5-98.43,6.12-147.65,9.1-4.68.28-9.31.62-13.55,2.9H3700c-7.4-4-15.61-3-23.5-3.6-71.77-5.39-143.65-8.92-215.34-15.58-64.37-6-128.61-12.92-192.61-21.84-73.88-10.31-147.31-23.33-220.43-38.25-165.3-33.74-327.88-77.54-486.85-133.9Q1576.09,7041.59,901,6243.27,430.67,5683.68,201.67,4988.63a3751.5,3751.5,0,0,1-128.88-509q-23.61-130.83-37.71-263.07c-6.84-65-12.76-130-15.91-195.23-1.09-22.64-2.14-45.28-3.43-67.9A404.48,404.48,0,0,0,8,3894C7,3889.2,5.69,3884.94,0,3884ZM3824.24,727c-129.2.07-239.68,4.56-349.86,16.09q-105.43,11-209.66,29.93a2956.81,2956.81,0,0,0-329.83,80.08c-77.75,23.6-154.93,49-230.2,79.76-18.05,7.38-25.36,6.61-7.51,28.41q119.7,146.24,239.19,292.64c2.1,2.58,4.25,5.14,6.52,7.58,18.21,19.57,29.26,19.61,48.22,0,4.17-4.3,8-9,11.92-13.47q179-205.66,417.3-338.17c19.8-11,40-21.24,60.09-31.69,7.11-3.7,14.53-6.65,22.72-7.13,14-.84,21.15,4,25.17,17.45,3.12,10.41,3,21,1.88,31.71-8.52,80.54-5.74,161.15-.67,241.69,3.44,54.54,9.82,108.82,18.48,162.81,8.45,52.65,18.7,104.93,31.9,156.59a121.42,121.42,0,0,0,8,22.53c9,18.8,21.74,25,42.22,21.82,12.64-2,24.39-6.66,36.23-11.08q205.89-76.78,411.76-153.61a104.83,104.83,0,0,1,17.16-5.08c7.93-1.49,14.48,1.43,18.76,8.44,3.6,5.9,1.77,11.41-1.47,16.89-7.14,12-14.11,24.16-21.12,36.27q-122.86,211.83-245.68,423.7c-4,6.89-8.14,13.9-10.71,21.38-8.7,25.34-4.47,52.69,32.41,60.11.65.13,1.3.3,2,.41,63,10.84,125.92,22.3,189.06,32.35,65.13,10.38,130.62,18.34,196.21,25.37,15.89,1.7,31.72,4,47.56,6.15,5.29.71,10.46,1.76,15.17,4.63,14.19,8.66,16.25,22.78,4.53,34.66-7.48,7.58-15.55,14.59-23.25,22q-158.79,152.23-317.51,304.56c-6.72,6.45-13.41,13.08-19.07,20.44-15.56,20.23-13,34.29,9,47.78,9.59,5.88,20.12,10.35,30.52,14.76q162.77,69,325.64,137.84c6.74,2.85,13.6,5.54,19.27,10.4,12.82,11,13.68,28.72,1.54,40.47a88.79,88.79,0,0,1-14.41,10.69c-119.71,75.72-244.84,140.66-378.13,189.2-38.16,13.89-76.67,26.84-115,40.22-8.8,3.07-17.75,5.86-25.24,11.74-12.3,9.66-14.5,21.89-6.29,35.26,4.6,7.51,11.27,13.07,17.94,18.63,79.13,66.05,163.85,123.46,257.63,166.93a83.05,83.05,0,0,1,15.6,8.83c16.67,12.73,17.86,34.3,2.56,48.46-5.33,4.92-11.65,8.89-17.89,12.67-49.69,30.13-102,54.9-155.92,76.47-25.95,10.39-52.33,19.71-78.49,29.6-15.65,5.92-30.63,12.85-42.82,25-15.27,15.16-20.13,31.84-11.92,52.62,7.57,19.18,13.68,38.95,19.92,58.63,8.27,26.06,16.9,52,29.24,76.44,6.86,13.59,8.64,27.87,7.22,42.75-2,20.82-9.87,30.53-30.19,33.82-21.76,3.54-42.94,9.35-64.38,14.1-33.8,7.5-67.51,15.42-101.27,23.1a61.26,61.26,0,0,0-20.28,8.13c-8.11,5.3-11.23,12.79-9.5,22.34,1.32,7.32,4.28,14,7.73,20.48a445.3,445.3,0,0,0,39.95,62.16,477.6,477.6,0,0,0,35.36,40.76c6.51,6.76,12.1,14.12,15.55,23,6,15.41,2.81,28.75-8.68,40.28a51.82,51.82,0,0,1-18.4,11.75q-10.26,3.94-20.61,7.61c-46.48,16.41-92.6,33.67-137.3,54.62-20.85,9.77-39,22.72-54.34,39.94-8.41,9.46-17.16,18.64-26.1,27.61-57.73,58-120.91,108.62-194.7,145.08-16.71,8.26-33,17.42-49.7,25.68-9.2,4.54-14.32,10.78-15,21.48a550.3,550.3,0,0,0,.41,83.9c.58,6.69,1.51,13.25,6.69,18.33,17.3,16.95,35.77,32,59.94,38.2,14.19,3.63,28.38,7.28,42.53,11.08,79.09,21.25,157.94,43.49,237.9,61.33a1330.36,1330.36,0,0,1,177.86,53.07q13.08,4.9,25.75,10.86c13.31,6.24,22.21,16.74,27.48,30.35,1.68,4.34,3.08,8.8,4.46,13.26,14.94,48.36,30.33,96.59,44.68,145.13q51.84,175.32,102.88,350.89c42.36,145.14,84.43,290.36,121.5,437,51.74,204.71,100.48,410.14,148.51,615.74a106.2,106.2,0,0,0,3.23,11.55c2.46,6.9,8.49,11.55,14.62,11.68s12.7-4.3,15-11.17a83.59,83.59,0,0,0,3.36-15.56c6.44-46.86,13.09-93.7,19-140.63,4.43-35,8.71-70.11,11.56-105.3a968.14,968.14,0,0,1,19.05-130.4c13.95-63.28,35.22-124.2,57.39-185,32.39-88.77,78.11-170.71,126.29-251.45,15.16-25.4,32.16-32,60.94-24.68,15.46,3.93,31.05,8,45.81,14,44.1,17.76,90,28.72,136.35,38.29,17,3.51,33.86,7.3,50.86,10.57,7.11,1.36,12.44-1.72,14.77-7.3,2.81-6.73,1.33-14.12-4.56-17.78a87,87,0,0,0-16.2-7.59c-20-7.23-40.19-14.18-60.31-21.18-32.09-11.18-63.81-23.14-94.56-37.77-121.2-57.67-227.13-136.2-319.85-232.92-25-26-48.57-53.31-67.09-84.34-16.9-28.32-39.05-52.24-60.17-77.12-8.46-10-17.95-12.82-30-7.13-9,4.27-18.37,7.67-28.69,7.81-17.38.24-34.59-.26-51.64-4.36-78.84-18.92-140.42-86.57-150.62-161.3-5.34-39.11-6.91-78.3-6.65-117.66a44.27,44.27,0,0,1,13.43-32.31c2.83-2.82,5.71-5.6,8.55-8.41,19.48-19.27,36.47-40.68,53.64-61.95,9.87-12.23,12.9-25.64,8.94-41.18a145.29,145.29,0,0,0-18.05-42c-7.83-12.39-16.33-24.35-24.76-36.35a471,471,0,0,1-72.1-157.15,262.68,262.68,0,0,1-3.76-113c14.17-76.84,35.66-151.68,62.56-225,4.84-13.18,9.39-26.4,10.89-40.4q10.38-96.41,20.48-192.83c2-18.92,7.5-36.18,18.2-52.18,56.34-84.25,114.45-167.2,177.63-246.51,54.49-68.41,112.57-133.48,177.8-192q192.69-172.76,443.24-237.12c71.86-18.58,145.46-26.09,218.9-34.53,35.07-4,70.22-7.53,105.39-10.69,31.17-2.8,62.3-6.38,93.75-2.23,18.47,2.44,37.17,3.36,55.79,4.46a832.19,832.19,0,0,1,228.36,46.33c132.64,46.72,256.63,110.88,374.9,186.5,14.1,9,26.59,20,38.48,31.75a1565.81,1565.81,0,0,1,240.41,305.72c34.45,57.1,66.28,115.6,92.57,177,20.14,47,31.95,96,33.53,147.23.64,20.7,3.86,41.12,6.78,61.57,1.79,12.53,3.93,25,5.49,37.58,8.85,71.41,18,142.78,26.16,214.27,4.67,41.07,6.72,82.39,5.05,123.77a249.26,249.26,0,0,1-10.25,62.9c-19.3,63.54-28.16,128.67-28.53,195.11-.12,22.1,4.6,41.94,16.74,60.51,14.24,21.8,26.4,44.89,34.8,69.57,16.11,47.3,15,40.23,4.62,85.33-.3,1.3-.49,2.63-.84,3.91-14.21,51.11-38.32,96.41-77.56,132.93-23.67,22-50.6,38.94-80.24,51.71-34.94,15-64.19,37.49-88.4,66.89-15.67,19-32.18,37.39-48.54,55.84-73.52,82.91-149.9,162.86-238.83,229.75-10.88,8.19-18.72,18.85-24.45,31.14-7.69,16.5-7.16,32.23,4.34,47,1.63,2.1,3.12,4.32,4.65,6.5a1019.65,1019.65,0,0,1,94.81,168.8,1212.32,1212.32,0,0,1,47.22,125.21c3.62,11.4,7.94,22.62,12.68,33.6,3.52,8.14,10.43,11.95,19.46,10.79a129.87,129.87,0,0,0,15.69-2.82c12.25-3.15,24.43-6.57,36.61-10q310.56-87.72,547.46-306.87a260.48,260.48,0,0,0,59.57-81.73q239.59-507.82,287.2-1067.22,10.8-128.6,10.51-257.67a2962.42,2962.42,0,0,0-20.75-349.09c-10.41-86.73-24.09-172.89-42.2-258.3-39.87-188.08-94.83-371.64-166.56-550.1q-202.31-503.43-568.57-903.68c-135.79-147.66-285.22-280.17-445.69-400.32-203.63-152.46-422.06-279.24-657.08-377Q4612.88,799.54,4208.64,751q-97.29-11.88-195-18.17C3944.42,728.35,3875.1,726.74,3824.24,727ZM2156.46,3946.74c0-10.2-.14-18.87,0-27.53.66-33.67-4.9-66.32-15.48-98.23-7.91-23.86-10.27-26.53-34.88-27.95a843.47,843.47,0,0,0-109.92.37c-50.51,3.69-101,8.16-151.45,12.25a54.2,54.2,0,0,1-9.94.21c-9.65-1-14.66-5.57-15.06-15.35-1-23.31-1.3-46.55,5.11-69.46,14.54-52,28.63-104,42.66-156.11a320.67,320.67,0,0,1,13.52-39.67,173,173,0,0,0,9-26.4c6.35-27-2.52-48.42-25.7-63.89-10.06-6.71-21.22-11.07-32.62-14.87q-54-18-108-36c-49.29-16.36-98.63-32.57-147.88-49-12.61-4.22-25.46-8.22-36.26-16.4-14.38-10.89-17.81-26.93-8.59-42.48,3.69-6.22,8.77-11.71,13.77-17q117.21-124.5,234.53-248.87a151.67,151.67,0,0,0,11.48-13.83c7.09-9.6,7.39-19.74,1.21-29.9-3.46-5.68-7.09-11.29-11-16.67-71.49-98.42-163.7-168.45-280.23-205.76-55.16-17.66-109.81-36.89-164.69-55.43-5-1.7-10.2-3.2-15-5.37-11-4.92-12.49-13-3.79-21.91A125.9,125.9,0,0,1,1331,2649.9c13.22-10.14,26.59-20.1,39.85-30.18,72.67-55.29,145.18-110.75,221.49-161.06,36.72-24.2,72.54-49.75,108.77-74.69,11.07-7.62,21.17-16.26,28.27-27.87,9.63-15.77,12.18-32,3.93-49.41-10.28-21.67-19.92-43.64-30.06-65.37a367.4,367.4,0,0,0-50.36-79q-104-125.62-216.36-243.73c-5.5-5.79-10.58-12-16.17-17.71-11.34-11.59-16.75-11.22-27.54,1.5-1.29,1.52-2.42,3.18-3.62,4.78q-15,20-30.06,39.93C1119.92,2265.62,945,2615.64,842,3001a3113.53,3113.53,0,0,0-73.2,358.07q-14.16,97.93-22,196.65c-5.21,63.8-8.94,127.66-10.18,191.64a2947,2947,0,0,0,22.65,424.91c9,72.09,20.08,143.85,34,215.14a3091.75,3091.75,0,0,0,131.18,471.11q39.51,108,86.9,212.69c7.19,15.85,15.39,31,26.85,44.25,36.66,42.52,76.39,81.85,120.41,116.77,125,99.16,267.52,149.23,426.93,151.68,50.79.77,101.07-4.41,151.33-11.36,27.15-3.76,44.17-16.71,50.43-43.46.45-1.94.84-3.91,1.38-5.83q19.85-71.22,39.72-142.42,91.74-327.06,183.41-654.13c12.62-45.16,40.08-77.39,81.09-98.92,11.85-6.22,24.29-10.92,36.93-15.14,29-9.69,58.17-19.18,87.22-28.86q187.58-62.54,375.13-125.16c10.73-3.58,21.38-7.41,31.11-13.42,19.59-12.09,33.59-28.57,38.34-51.39,10.16-48.89-10-75.45-40.47-90.23-7.18-3.49-14.55-6.62-22-9.53A773.59,773.59,0,0,1,2398.83,3979c-6.78-5.39-13.84-10.42-20.65-15.77-12.63-9.92-25.61-10.24-38.77-1.38q-14.91,10.05-29.46,20.65a204.79,204.79,0,0,1-64.26,31.48,224.43,224.43,0,0,1-61.16,8.65c-20.38.08-24.88-9.11-25.35-23.52C2158.6,3981.13,2157.35,3963.17,2156.46,3946.74ZM2079,6563.22c-.83-31.74-4.28-63.42-14-94.22a263.44,263.44,0,0,1-9.54-42.84c-4.88-35.07-6.19-70.33-7.08-105.64-.52-20.66-.93-41.32-3.84-61.82-1.59-11.21-3.21-22.41-4.62-33.64-1.12-8.91,2.14-15,10.7-19.19,13.09-6.34,14.1-8.3,12.38-21.18-5.11-38.3-10.52-76.55-15.89-114.81-1.12-8-3.06-15.89-9.2-21.68-12.44-11.74-16.88-26.68-18.18-43.1a234.88,234.88,0,0,0-10.84-54.76c-6.23-19-12.82-37.83-19.43-56.68-18.37-52.33-30.67-106.15-39.1-160.88-3.07-19.88.61-27.67,17.84-35.37,44.81-20,91.61-32.12,140.89-33.95,14.53-.54,27.5,2.44,39.15,11.78a126.74,126.74,0,0,0,42.24,22.17c16.86,5.18,28.67,15.91,37.92,30.62,16.49,26.26,27.6,54.53,34.53,84.68,8.45,36.79,4.93,71.42-16.6,103.37-6.73,10-10.9,21.27-15.28,32.47-12.25,31.39-32.83,56.2-61,74.57a222,222,0,0,1-24.36,13.68c-16.16,7.86-32.57,15.2-48.87,22.78-10.94,5.08-13.11,8.74-11.91,20.06.14,1.32.44,2.63.63,3.94q5.55,37.56,11.08,75.12c2.55,17.13,5.21,34.24,7.72,51.37,1.5,10.32,6.56,17,17.3,19.15,21.62,4.29,39.37,16.09,55.49,30.32a156.84,156.84,0,0,0,62.62,33.81c37.93,10.67,68.27,32.52,89,66.64,1,1.7,2.12,3.38,3.22,5.06,7.21,11.06,16.64,16.81,30.41,13.58,16-3.76,26.76,2.74,33.86,17.41,7.94,16.39,20,29.88,33.37,42,8.88,8.06,18.07,15.79,27.33,23.4,28.91,23.77,55.24,50.18,80.14,78,20.58,23,37.24,48.52,48.23,77.65,9.21,24.43,28.77,41.27,45.8,59.89a7.83,7.83,0,0,0,1.54,1.27c4.9,3,10.07,3.58,15.23,1s7.76-7.06,7.87-12.91c.18-8.81-1.86-17.34-4.8-25.42-22.53-61.76-51.59-120-95-170.05-39.35-45.36-75.7-93-110.84-141.64-7.42-10.26-14.83-20.54-22.62-30.51-24.86-31.77-53.66-59.1-88.72-79.63a384.35,384.35,0,0,1-55.05-39.74A349.82,349.82,0,0,1,2223,6119.7c-4.12-5.64-4.1-7.34.84-12,16.07-15,31.85-30.32,49.43-43.64,43.65-33.08,74.6-75.84,94.19-126.68a813.84,813.84,0,0,0,30.13-95.17c8.34-33.45,9.85-67,3.5-101q-10.64-56.94-19.62-114.19c-3.51-22.44-15.51-36.67-37.31-41.54-17.83-4-33.89-11.6-49.8-20.07-20-10.64-39.94-21.37-60.3-31.24a859.67,859.67,0,0,0-107.42-43.13c-35.68-11.69-69.22-9.44-101.11,12-19.4,13.06-41,21.89-63.19,29.51-23.35,8-47.38,13.41-71.3,19.25a262.44,262.44,0,0,0-93.57,43.55c-19.83,14.52-21.76,22-9.87,43.72,11,20.09,19,41.15,22.87,63.62a320.63,320.63,0,0,1,4.38,37.71,207,207,0,0,0,24.83,87.69c10.16,19,16.59,39.17,20.62,60.25a532.72,532.72,0,0,1,7.91,61.4c2.49,34,7.34,67.44,17.57,100.13,9.54,30.52,16.15,61.83,22.25,93.23,13.49,69.41,20.33,139.71,28,209.9,5,45.73,11.21,91.33,24.41,135.5,8,26.77,18,52.94,27.27,79.32q19.88,56.54,40,113a101.49,101.49,0,0,0,6.44,14.59c3,5.54,8.72,6.17,13.34,1.84,9.06-8.48,14-19.19,17.24-31C2073.82,6632.63,2077.77,6598.3,2079,6563.22Zm2585.81-2139c13.34.07,26.64.22,39.89-1.81,29.72-4.56,58.51-12.52,86.81-22.6,190.09-67.68,274.6-263.07,252.89-405.53-12.37-81.16-45.34-151.19-104.5-208.49a89.75,89.75,0,0,0-10.64-9.05c-9.06-6.4-14.88-6.58-23.65.2-13.89,10.76-25.57,23.3-30.28,41-3.35,12.54-10.51,22.77-19.53,32-28.7,29.46-61.66,52.77-99.34,69.28-34.91,15.3-71.38,25.55-108.71,32.87-39.24,7.7-78.86,12.68-118.56,17.17-53.6,6.07-107.15,12.49-160.7,18.86-22.48,2.67-45,5.43-67.39,8.48-11,1.49-20.3,6-25.39,16.92-14.24,30.38-21,61.61-12.16,95a589.22,589.22,0,0,0,18,57.11c31.91,84.82,85.81,151.1,165.27,195.78,9.28,5.23,18.55,10.5,28,15.41C4534.41,4407.79,4597.65,4424,4664.85,4424.23Zm554.3-380.41c.47,9.94.52,22,1.74,33.88a255.66,255.66,0,0,0,5.5,33.48c23.59,97.74,75.93,176.1,162.5,228,110.11,66,228.24,82.92,351.53,43.71,111.27-35.38,189.05-108.77,233.25-217,13.37-32.76,21.32-67.24,29.29-101.61,1.78-7.68,1.93-15.9,1.74-23.85-.8-31.89-19.52-54.24-50.74-60.17a166,166,0,0,0-29.8-2.53c-66.69-.35-133.1-4-199.25-13a1423.71,1423.71,0,0,1-199.25-41.39c-60-17.17-110-50-149.13-98.82-8.74-10.91-16.82-22.35-25.18-33.56-2.39-3.2-4.69-6.47-7.06-9.69-2.53-3.42-5.89-3.08-8.75-1a132.45,132.45,0,0,0-13.94,11.26,280.69,280.69,0,0,0-41.19,48.76C5239.67,3901.2,5219.88,3968.57,5219.15,4043.82Zm-835,2551c1.83-1.66,3.13-2.3,3.56-3.31,17.14-40.06,29.05-81.42,32.38-125.13,1.93-25.23,4.81-50.39,7.82-75.52a215.89,215.89,0,0,1,14.15-56.05c30.54-74.92,43.24-153.63,49.58-233.62,3.69-46.49,6.24-93.08,9.28-139.62,1.43-22,2.68-43.9,4.22-65.84.79-11.29,1.59-22.68,6.6-33.13,3.42-7.13,6.32-14.77,14.2-18.53,9.58,3.58,11.19,12.54,13.19,20.71,2.38,9.68,3.53,19.65,5.39,29.46,3.5,18.38,8.23,36.18,18.07,52.57,36,60,59.82,124.74,73.86,193.16,6.69,32.62,13.34,65.25,19.65,97.94,2.74,14.16,7.3,26.66,19.81,35.56,10.51,7.49,17.2,18.52,22.4,30.19,3.79,8.51,6.86,17.33,10.24,26,3.14,8.09,6.44,16.12,11.7,23.11,9.71,12.91,20.24,12.28,27.82-1.68a60.52,60.52,0,0,0,4.66-11c2.75-8.9,5.89-17.76,7.57-26.87,5.54-30.13,10.18-60.42,15.75-90.54,11.07-59.88,27.6-118.05,56.71-172,11.61-21.51,15.48-44.45,10-67.73-5.26-22.49,3.67-42,8.93-62.28,2.35-9.06,12.87-11.49,21.48-6.75a24,24,0,0,1,11.39,13.44c2.57,7.53,5.28,15.19,6.37,23,2.32,16.48,3.73,33.09,5.33,49.67,3.09,32-.78,63.91-2.21,95.84-3.53,79.09,3.11,157.11,24.87,233.48,6.95,24.37,12.55,49,17.33,73.88,6,31.41,12.92,62.62,23.13,93,7.7,22.93,17.78,44.64,34.05,62.82,9.88,11.06,17.66,23.32,24.35,36.43a99.76,99.76,0,0,0,8.08,13.74c3.83,5.21,9.25,7.62,15.81,5.81,6.95-1.92,11.92-6.16,13.08-13.53a34.41,34.41,0,0,0,0-11.89,179.92,179.92,0,0,0-6-23.14c-12.69-36.76-20.84-74.32-21.18-113.37a139.36,139.36,0,0,0-9-48.86c-6.42-16.83-11-34.21-14.68-51.84-8.27-39.36-10.27-79.25-9.85-119.29.42-40.65,1.66-81.29,2.14-121.94a388.55,388.55,0,0,0-1.59-39.93c-3.09-33.83-6.65-67.63-10.19-101.42-6.66-63.62-15.79-126.9-26.48-190-5.34-31.52-11.27-63-13.51-94.92-4.73-67.62,6.13-132.79,32.17-195.4,3.33-8,6.67-16,9.42-24.2,4.31-12.89,5.22-26.06,1.62-39.35-1.41-5.21-4.93-6.69-8.55-3.13-23.92,23.5-45.79,48.63-58.28,80.29-14.2,36-30.37,71-46.39,106.19s-31.56,70.5-44.33,107c-22.64,64.75-45.41,129.45-70.51,193.31-15.65,39.82-25.88,81.13-32.18,123.47-3.62,24.37-8.11,48.62-12.52,72.86-1.54,8.45-6,13.69-10.28,12.82-6.37-1.32-7.59-7.14-8.73-12.13-4.16-18.17-8.76-36.31-11.55-54.71-9.9-65.19-19.16-130.47-28.58-195.73-5.63-38.92-11.89-77.67-24.5-115.13-10.89-32.37-11-65.49-5.2-98.76,3.91-22.3,8.42-44.5,12.64-66.74,1.25-6.56,2.32-13.13.9-19.83-1.36-6.38-6.63-8.6-11.86-5.15-7.53,5-11.72,12.55-16.2,20-26.09,43.39-52.35,86.68-78.35,130.13-7.25,12.1-15.37,21.26-31.51,19.84-13.25-1.16-22.68,6.38-29.13,17.55a123.56,123.56,0,0,0-6.18,12.54c-34.65,79.48-55,162.52-62.71,248.83a995,995,0,0,0-3.52,101.84,231.12,231.12,0,0,1-5.69,53.56,188.45,188.45,0,0,1-28.32,65.67,106.44,106.44,0,0,0-18.76,66.1q.8,19,2.23,37.92c1.9,25.25,4.12,50.47,6,75.72,3.24,43.86,6.26,87.74,9.51,131.6.74,10,1.58,20,3.19,29.81C4370.31,6574.18,4374,6586.06,4384.18,6594.77ZM2708.73,2659c20.76,0,36.77-.5,52.74.14,16.16.64,26.71-6.21,32.48-21,1-2.48,2.12-4.89,3.19-7.33a192.72,192.72,0,0,0,15.93-91.65c-4.17-58.35-22.32-112.13-55.59-160.39-38.4-55.7-91.7-92-154-116-28.93-11.16-58.86-16.47-90-15-17.42.82-34.35,4.38-51.16,8.47-57.58,14-108.38,40.55-149.65,83.63-44.93,46.89-73.46,102.83-86.87,166-10.53,49.61-1.93,96.55,24.76,140.12,8.59,14,19.74,21.12,36.28,19,2-.25,4-.29,6-.36a1119.29,1119.29,0,0,0,164.64-18.36c41.56-7.8,83.36-8,125.1.79C2625.69,2656.13,2669.2,2662.26,2708.73,2659ZM3153,2370.72c-24.35.92-50.27.93-76.12,4.44-41.87,5.68-93.13,38.82-107.48,99.89a118.63,118.63,0,0,0-2.65,21.77c-1.11,24.61-2.44,49.22-2.55,73.83-.09,20.6,8.57,31.15,27.51,36.31a78.24,78.24,0,0,0,11.8,2c24.46,2.77,48.94,5.4,73.4,8.15,67.45,7.59,134.91,15.06,202.34,22.88,39,4.52,77.83,10.33,116.29,18.24,24.09,5,48,10.73,72,16.31,24.51,5.7,44.69-.77,60.23-20.81,9.88-12.73,17.75-26.57,22.63-42,12.67-40,1.53-97.1-39.8-124.79-5-3.34-9.58-7.21-14.5-10.62C3393.38,2405.12,3279.34,2370.6,3153,2370.72ZM2026.52,1710.87c-3.18-63.76-17-125.26-37.54-185.49-15-44.2-33.26-87.08-53-129.31-11.7-25-8.2-25.07-30.24-7.7a3013.69,3013.69,0,0,0-428.61,412.37c-3,3.55-6.12,7.06-9,10.73-3.8,4.9-2.24,9.17,3.52,9.8a41.23,41.23,0,0,0,7.93.18q63.72-5.45,127.42-11c37.16-3.31,74.29-6.87,111.44-10.25,35.16-3.21,70.34-6.23,105.49-9.52,49.07-4.59,98-10.51,147.39-11.76a141.8,141.8,0,0,0,23.79-2.57c20.52-4,30.1-14.88,31.33-35.47C2027,1730.88,2026.52,1720.86,2026.52,1710.87ZM5958.85,5957.64c-5.42,2.47-6.13,6.5-7.35,10.31-7.74,24.22-11.87,49.22-14.94,74.33-8.65,70.78-3.86,141,10,210.75a684.37,684.37,0,0,0,29.28,103.72c4.88,13.25,8.94,26.78,6.55,41-5.51,32.84-11.75,65.57-20.92,97.62-8.1,28.28-24.87,50.33-50.92,63.85-26.8,13.92-47.48,34-65,58q-18.84,25.85-37.93,51.5c-4.5,6-7.57,12.56-8.12,20.08-1.85,25.13-13.87,45.45-29.63,64.21a586,586,0,0,1-58.47,60.17c-38.26,34.2-76.57,68.34-114.53,102.88a628.14,628.14,0,0,0-55.63,57.4c-4.31,5-8.17,10.49-12,15.93a6.48,6.48,0,0,0,.2,7.54c2.08,3,5.47,4.35,8.76,2.85a79.76,79.76,0,0,0,13.8-7.88,795.6,795.6,0,0,1,156.12-88.51,103.45,103.45,0,0,0,28.54-18.21c40.29-36.07,79.2-73.41,110-118.34,5.65-8.25,11.82-16.13,17.68-24.22,72.19-99.78,160.3-183.49,259.55-255.7,36.67-26.67,72.73-54.05,107.59-83,42.55-35.34,85.06-70.75,131.19-101.47a102.7,102.7,0,0,0,23.42-21.64c5.82-7.33,10.82-15.18,13.67-24.21.86-2.71-1.64-5.53-4.27-4.7-3.79,1.2-7.57,2.49-11.22,4-27,11.5-53.15,24.66-79,38.5-31.71,17-63.29,34.2-95.08,51s-64.35,32.09-98.25,44.32c-4.9,1.77-9.66,3.69-15.94,2.83C6069.44,6241,6030.22,6094.2,5958.85,5957.64ZM3144.12,5893.1h0c0-11.33-.07-22.66,0-34,.23-30-.35-60-4-89.78-.49-3.95-.68-8.05-1.9-11.79-5.81-17.93-24.75-22.36-37.81-8.85-7.56,7.8-11.94,17.6-15.86,27.54-6.15,15.58-9.11,32-11.93,48.41q-19.89,116.19-39.51,232.42c-1.88,11.16-3.88,22.34-4.84,33.59-1,12,3.25,15.44,15.59,13.4,5.23-.86,10.29-2.69,15.48-3.86,9-2,12.59.56,12.94,9.65a95.87,95.87,0,0,1-.69,13.95c-.93,8.61-2.24,17.17-3.21,25.78q-9.24,82.41-18.42,164.84-6,53.64-8.5,107.57a74.63,74.63,0,0,0,.74,15.89c1.23,7.2,10.29,10,15.59,4.72a55.85,55.85,0,0,0,8.2-11.19,227.62,227.62,0,0,0,22.15-51.21c9.47-31.22,19-62.43,28.75-93.56,2.38-7.58,5-15.32,9.05-22.11,10.09-17.1,31.65-20,46.19-6.27,4.79,4.49,8.48,10.22,12.3,15.66,28,39.91,51.65,82.33,73,126.1,17.83,36.51,35.79,73,54.46,109,8.86,17.13,19.39,33.4,29.42,49.9a64.21,64.21,0,0,0,9.73,12.6c9.66,9.39,24.24,6.1,29.46-6.32a31.83,31.83,0,0,0,2.44-15.66c-.74-7.28-1.55-14.59-3-21.76a1547.63,1547.63,0,0,0-43-168.28c-17.39-54.56-45.29-101.76-89.73-139-30.17-25.28-49.65-58.93-66.48-94-5.38-11.19-3.72-16,5.58-24.71a79.22,79.22,0,0,1,6.16-5.09c50.51-38.57,95.42-83.11,138.66-129.46q40.9-43.84,81.81-87.69a42.87,42.87,0,0,0,4.94-6.24,9.89,9.89,0,0,0,0-11.25c-2.72-4.3-7.43-6.54-11.92-5.05a108.24,108.24,0,0,0-11,4.79c-31,14.28-59.59,32.56-87,52.8-43.51,32.18-90,59.43-138.16,83.95-4.15,2.11-8.32,4.21-12.58,6.1s-7.17.46-9.26-4.18c-3.37-7.49-4-15.36-4-23.44C3144.18,5949.08,3144.12,5921.09,3144.12,5893.1Zm2495.06,471.13c0,16-.26,32,.06,48,.55,27.31.63,54.66,3.69,81.86,1.23,11,4.6,16.72,8.92,15.65,7.08-1.74,8.46-7.95,9.78-13.75,3.1-13.63,5.71-27.37,8.78-41,18.2-80.73,30.41-162.32,35.18-245,.54-9.31.46-18.66,1.12-28,1.11-15.56,6.65-19.62,22.3-16.9.66.12,1.29.38,1.94.5,31.42,5.82,62.82,11.74,94.27,17.38a113.82,113.82,0,0,0,33.87,1.15c11.58-1.42,22-5.69,29.62-14.88,11.14-13.4,8.53-26.23-6.77-34.52-1.75-.95-3.57-1.79-5.4-2.57-19.62-8.38-39.55-15.94-60.51-20.24-22.17-4.55-44.51-8.26-66.63-13-29.47-6.36-36.72-17.14-31.73-46.73,2.44-14.43,5.53-28.78,8.88-43,5.93-25.28,12.36-50.44,18.43-75.68,4.29-17.85,4.4-35.75-1.16-53.32-5.7-18-3.9-35.55,2.48-52.86,3.22-8.74,7-17.26,10.52-25.9s6.3-17.54,5.79-27.1c-.21-4-3.24-5.68-7-3.78a83.37,83.37,0,0,0-39.14,41.18c-12.63,27.94-24.25,56.27-32.7,85.79-11.54,40.33-23.16,80.64-34.32,121.07-6.85,24.79-19.28,46.66-33.36,67.81-3.81,5.73-8.57,10.18-15.26,12.26-6.85,2.14-13.87-1.09-16.22-7.76a59.91,59.91,0,0,1-2.19-9.73c-1.13-6.56-1.83-13.21-3.25-19.7s-4.91-9.67-10.84-9.8c-20.64-.44-41.29-.87-61.93-.81-12.95,0-25.19,3.44-35.26,12a81.33,81.33,0,0,0-13.61,14.51c-8.93,12.55-22.26,12.17-26.54-3-.18-.64-.55-1.22-.77-1.84-4.53-12.71-14.11-16.63-26.77-15.94-13.3.73-26.64.79-39.94,1.45a186.15,186.15,0,0,0-21.87,2.17c-7.61,1.29-11.59,6-12.07,13.71a62.68,62.68,0,0,0,.85,11.89c1.86,14.54,4.53,29,5.64,43.59,3.08,40.52,5.44,81.1,8.23,121.64q3.69,53.85,7.71,107.67a45.24,45.24,0,0,0,2.06,11.73c1.88,5.28,5.59,9.05,11.69,9.44,5.19.34,10.14-2.87,12.41-8.36a36.74,36.74,0,0,0,2.1-7.67c1.38-7.87,2.8-15.74,3.85-23.66,5.25-39.62,10.34-79.26,15.6-118.87,1.11-8.39,5.4-10.34,11.52-5.17a74.12,74.12,0,0,1,9.4,10.21,648.41,648.41,0,0,1,111.27,204.2c4.38,13.26,10,26.11,15,39.17,1.69,4.4,3.72,8.51,7.38,11.69,6.09,5.29,16.08,2.35,17.18-5.48A43.6,43.6,0,0,0,5571,6462c-11.33-59.55-24.49-118.7-40.72-177.12-10.92-39.34-26.11-76.92-49.65-110.69a47.89,47.89,0,0,1-4-6.9c-5.37-11.21-4.6-18.5,4.13-27.24,18.81-18.85,41.45-27.77,67.36-19.11,29,9.7,57,22.36,84.58,35.73,10.83,5.25,15.78,13.86,14.63,25.91-.26,2.66-.31,5.33-.6,8C5640.57,6248.3,5638.78,6306.23,5639.18,6364.23Zm-2015.8-177.34h-.5c0-14-.18-28,.08-42a94.42,94.42,0,0,1,1.84-17.85,13.84,13.84,0,0,1,10.55-10.9c5.78-1.5,10.49.56,14.12,5.12,10,12.51,15.18,26.34,12.87,42.67-1.68,11.87-3,23.81-3.77,35.77-1.06,16.76-.06,33.53,6.66,49.12,11.86,27.53,24.43,54.75,36.81,82a37.78,37.78,0,0,0,5.31,8.41c6,7.18,13,6.43,17.36-1.7,4.17-7.72,6.1-16.09,7.68-24.67,1.8-9.8,4.14-19.52,6.71-29.15,1.17-4.38,2.84-9.53,8.47-9.73,4.87-.17,8.93,2.77,11.63,6.79a72.16,72.16,0,0,1,5.54,10.56c1.64,3.64,2.66,7.56,4.38,11.15,2.46,5.1,6.31,9,12.39,8.36,4.92-.48,8.49-3.59,10.35-8.32.73-1.86,1.43-3.75,2-5.66,4.2-14.11,7.25-28.38,6.59-43.25a129.07,129.07,0,0,1,.18-16,14,14,0,0,1,8.79-12.38c6.16-2.59,11.72-1.05,16.55,3.43,5,4.62,8.08,10.52,11.29,16.37,12,21.88,28,40.54,46.37,57.21a136.34,136.34,0,0,0,51.58,29.66c10.88,3.39,22,5.61,33.43,5,13.24-.72,19-6.88,19.55-20.26.49-12.39-3.58-23.37-9.22-34.27-13.12-25.35-.76-59.37,18.9-73.46,15.92-11.41,31.36,0,31.94,14.51a61.54,61.54,0,0,1-2.26,19.72c-8.14,27.55-3.44,55.66-4.28,83.51a9,9,0,0,0,6.29,9.27c11.86,4.13,20.07,12.7,27.73,22.14a40.63,40.63,0,0,0,10.27,9.32c12.14,7.24,26.94-.15,28.33-14.14a59.36,59.36,0,0,0-.8-15.9c-2.87-16.4-6.4-32.68-9.24-49.08-2.15-12.47-4.9-25-5.19-37.58-1.5-65.31-2.52-130.64,1.9-195.9,1.85-27.26,3.74-54.52,5.41-81.8.44-7.3.33-14.65.09-22-.16-4.8-1.48-9.46-7-10.71-4.44-1-7.86,1.44-10.12,4.92a187.42,187.42,0,0,0-11.21,18.82c-13.39,26.94-22.7,55.44-31.63,84.08q-9.81,31.46-20,62.81c-11.86,36.66-39.51,61-67.3,85-8.81,7.6-20.67,1.75-21.72-10.15-.57-6.54.33-13.28,1.22-19.85,3.65-27.07,7.65-54.09,11.3-81.16a135.39,135.39,0,0,0,1.26-19.91,12,12,0,0,0-9.29-11.56c-5.23-1.22-9.34,1.2-12.22,5a89.18,89.18,0,0,0-8.12,13.7c-10.21,20.22-19.76,40.79-30.49,60.72-12,22.26-20.2,23.12-37.31,5a226.73,226.73,0,0,1-30.28-39.65c-5.82-9.75-12.17-19.13-20.85-26.67-5.85-5.08-9.13-4.6-12.3,2a85.45,85.45,0,0,0-8.47,30.64c-1.1,14.63-2,29.27-3.39,43.87a255.85,255.85,0,0,1-12,56.57c-1.59,4.83-4.79,8.24-9.83,8.85s-8.7-2.3-11.44-6.53c-5.19-8.05-6.94-17.24-9.06-26.31q-19.08-81.72-38.16-163.44a48,48,0,0,0-4.79-13.06c-5.46-9.35-16.13-10.2-23.45-2.22a57.78,57.78,0,0,0-4.74,6.42c-18.87,27.46-37.46,55.12-56.67,82.34-13.72,19.45-19.77,40.48-16.29,64.13,1.67,11.3,1,22.54-.13,33.88a220.29,220.29,0,0,1-15.16,59.88c-11.8,29.49-12.11,59.77-8.3,90.54a49.07,49.07,0,0,0,2.15,9.75c4.12,12,16.78,14.55,25,4.7a47.52,47.52,0,0,0,7.64-13.87c5.34-14.35,10.12-28.9,15.17-43.36,3.72-10.69,5.91-22.32,11.63-31.81,11.3-18.77,13.19-38.63,11.76-59.56C3623,6198.91,3623.38,6192.89,3623.38,6186.89Zm-1116-5162.79c-9.33-1.12-14.8,3.39-20.72,6.08q-68.2,30.94-134.46,65.89a2653.55,2653.55,0,0,0-276.51,167.77c-5.8,4-13,6.88-16.12,14.52,8.17,5.52,17.09,8.14,25.93,11.08,24.61,8.21,49.28,16.3,73.67,25.13,63.3,22.93,124.39,50.93,184.52,81.12a171.51,171.51,0,0,0,23.79,10.26c14.8,4.8,24,1.37,32.33-12a111.06,111.06,0,0,0,9.39-19.79c15.06-39.85,30.2-79.67,44.71-119.72C2480.76,1180.33,2495.9,1103.43,2507.34,1024.1ZM5196.16,6231.51c.08,30.76,5.72,61,8.71,91.47a32.82,32.82,0,0,0,2,7.7c3,8.52,8.88,11.63,17.08,8.87a41.16,41.16,0,0,0,9-4.33c34.12-22,58.86-51.75,73.26-89.77,6.41-16.92,6.5-34.1-1.86-50.44-14-27.35-15.65-56.23-11-85.74a166.47,166.47,0,0,0-1.33-61.55c-5.66-26.45-15.68-51-34.05-71.29-14.46-16-32.28-25.28-54.39-25.54-22.67-.27-41.31,9-57.84,23.48A400.73,400.73,0,0,0,5047.44,6104c-16.62,34.55-19.88,68.34-4.41,103.95,8.3,19.11,12.76,39.28,8.92,60.46-1.27,7,.87,13.11,5.66,18.39,20.43,22.54,43.57,41.18,73,50.73,10.12,3.29,20.34,6.42,31.16,6.52,4,0,6.15-1.89,6.26-5.9.59-20.75-2.45-41.25-5.27-61.67-3.72-26.92-13.17-51.36-32.84-71.32-17.15-17.4-19.53-39-13.12-61.42a261.33,261.33,0,0,1,26.21-60.33c4.09-7,6.4-7.3,12.22-2.13,33.81,30,49.28,67.21,43.63,112.4C5197.27,6206.28,5196,6218.82,5196.16,6231.51Zm-2346.33,25.66c-10.78.83-18.07,1.62-25.38,1.9-12,.47-24,1-35.93.78-9.2-.18-13.28-4.09-14.92-13a78.94,78.94,0,0,1-.91-11.92,202.37,202.37,0,0,1,5.62-53.47c14-58.31,46.1-105.66,89.52-145.81a115.75,115.75,0,0,1,54.38-28.12,89.84,89.84,0,0,0,13.4-3.91,43,43,0,0,0,22.22-19.2c3.83-6.76,2-13-4.9-16.84a24.85,24.85,0,0,0-5.41-2.53c-25.73-6.9-51.43-13.82-78.47-12.93-13,.43-24.69,3.92-35.27,11.87-21.86,16.42-43,33.67-61.94,53.42-19.5,20.3-36.5,42.44-48.35,68.08-17,36.85-33.57,73.91-50.18,110.94a54.79,54.79,0,0,0-3.29,37.08c2.16,8.37,4.63,16.67,6.79,25,2.34,9,5.7,18,6.36,27.11.66,9.35,4.72,14.85,12.62,18.41,25.32,11.4,40.26,31.83,50.08,56.9,3.87,9.91,7.86,19.81,12.56,29.34,10.61,21.51,18.07,22.86,32.7,4.62,22.36-27.88,50.94-46.36,83.78-59.15,24.17-9.41,48.26-19,72.34-28.68a73.91,73.91,0,0,0,12.52-6.09c7.42-4.78,10-12.21,7.77-20.85-1.89-7.23-6.84-11.14-14.1-12.3-9.85-1.57-19.78-2.81-29.56-4.77C2898.26,6258,2872.29,6258,2849.83,6257.17ZM3715,5190.32c-.23-8.25-2.74-15.81-5.45-23.36-8.76-24.45-17.36-49-26.07-73.43-25.92-72.78-50.89-145.95-82.3-216.61q-79.61-179.07-175.85-349.84c-19.65-34.8-40.5-68.92-61-103.27a127.63,127.63,0,0,0-11.48-16.28,11.75,11.75,0,0,0-14.47-3,12.42,12.42,0,0,0-6.57,13.41,45.72,45.72,0,0,0,3.77,11.27q5.57,11.73,11.79,23.14c92.8,169.55,177.44,343.18,258.71,518.48a872.36,872.36,0,0,1,69.19,222.57c3.1,18.38-.84,31.47-15.11,44-70.23,61.6-134.62,129.18-199.12,196.63-4.14,4.33-8.27,8.7-12.14,13.27a36.46,36.46,0,0,0-7.95,16c-1.61,7.5,2.94,16.63,9.8,20.23,5.3,2.79,10.83.72,17.14-6.31,8-8.91,15.85-18,24.14-26.62q88.63-92.33,177.48-184.42c15-15.47,26.92-33,38-51.25A54,54,0,0,0,3715,5190.32Zm-378.29,24c-.84-19.52-3.83-38.63-6.62-57.75-3.17-21.75-7.73-43.36-9.76-65.21-4.55-49.11-8.33-98.29-11.63-147.5-4.25-63.24-12.54-126-22.49-188.51-9.73-61.18-20.15-122.25-30.58-183.32-5.27-30.86-10.59-61.8-23.41-90.7-3.15-7.11-4.6-15.39-11.79-20.22-8.08,5.83-6,15.12-7.76,23.06-.58,2.57-.32,5.32-.48,8-1.65,27.44.88,54.54,5.76,81.56,3.9,21.62,7.43,43.34,10.24,65.13,4.77,37,9,74.09,13.18,111.17q7.54,66.53,14.71,133.12,7,64.59,13.51,129.23,7.52,75.6,14.46,151.25c3.37,37.17,6.12,74.39,9.28,111.58a116.68,116.68,0,0,0,2.66,17.77c2.2,9.05,8.14,15.12,16.87,18.28a10.83,10.83,0,0,0,13.37-5.76,27,27,0,0,0,2.06-7.66Q3332.63,5256.06,3336.74,5214.3Zm-703.19,980.8h-.08c.83-14.62,1.69-29.23,2.47-43.84a54,54,0,0,0-3.11-21.53c-8.86-24.69-12-50.39-12.44-76.46-.37-21.29-1-42.6-.47-63.87.43-15.82-4.1-30.26-9.64-44.49-5.11-13.14-16.64-16.85-29.31-10.47a37.22,37.22,0,0,0-14.41,13.48,71.23,71.23,0,0,0-11.11,31.68,506.78,506.78,0,0,0-2.49,75.73c4,95.09,10.41,190,23.21,284.32a318.35,318.35,0,0,0,19.26,75.18c1.93,4.85,5.36,5.27,9.16,2.12,6.8-5.62,8-13.53,9.34-21.39a1120.47,1120.47,0,0,0,13.94-112.83C2630,6253.54,2631.68,6224.32,2633.55,6195.1Zm-15.91-1225h1q0,80,.05,159.94a132.45,132.45,0,0,0,1.08,15.91c.59,4.92,3.59,8.37,7.71,11.07,5.48,3.59,11.1,2.33,12.74-3.63a120.83,120.83,0,0,0,3.33-17.62c2.07-17.19,3.8-34.43,5.76-51.64,5.56-49,10.73-98.13,10.36-147.46-.48-63.44,5.21-126.48,9.72-189.6,4.75-66.51,7.45-133.05,5.86-199.73a105.64,105.64,0,0,0-1.57-17.88c-2.36-11.92-11.34-14.83-20.37-6.93a28.59,28.59,0,0,0-9.47,15,115.82,115.82,0,0,0-3.26,17.63c-1.76,22.59-3,45.21-4.7,67.8-3,41.2-5.78,82.42-9.41,123.57-3.16,35.85-6.59,71.66-7.11,107.67Q2618.57,4912.16,2617.64,4970.12ZM5385.41,5969c-4.86-17.47-9.2-33.5-13.83-49.44a87.47,87.47,0,0,0-5.69-14.83c-1.91-3.83-5.68-5.49-10.07-4.93a9.72,9.72,0,0,0-7.65,5.63c-2.85,5.48-3.22,11.47-3.85,17.43-2.43,23.17-5,46.33-7.38,69.51a137.11,137.11,0,0,0-.89,15.94c.14,9.58,3.42,12.88,13.19,13.87a40.18,40.18,0,0,0,8,.13c19.26-1.88,38.56-2.06,57.88-1.68a42.34,42.34,0,0,0,30.82-11.85,60.42,60.42,0,0,1,13-9c6.54-3.41,13-2.08,18.59,2.56a27.46,27.46,0,0,1,5.41,5.83c4.22,6.36,10.34,7.58,17.37,7.51,18-.17,36,.1,53.95-.11,13.21-.16,16.42-4.08,13.61-17.41a190.33,190.33,0,0,0-13.63-41.67c-5.4-11.53-12.27-22.11-21.64-30.9-18.67-17.53-40.33-22.1-64.67-14.85-16.34,4.87-29.93,14.34-42.27,25.74-6.35,5.88-12.16,12.34-18.48,18.25C5401.47,5960.11,5396,5966,5385.41,5969ZM2311.7,3873.3c-.17-9.81-4.17-16.61-8.69-23.34-6.3-9.38-13.2-18.53-18.21-28.6-44.78-90.09-86.09-181.7-118.74-277-5.41-15.81-9.85-31.8-9.94-48.7a42.5,42.5,0,0,0-4.43-19.32c-3.43-6.75-9.3-9.59-16.47-8.08-5.79,1.22-9.29,6.12-8.38,13.91,1.09,9.23,3.33,18.32,4.89,27.51,19.36,113.53,59,219.57,117.59,318.62a300.15,300.15,0,0,0,43.65,57c3,3.09,5.56,8.54,11.11,6.29,4.77-1.93,5-7.51,6.58-11.78A28.61,28.61,0,0,0,2311.7,3873.3ZM2475,5493.05c0,3.6-.12,5.6,0,7.58.79,10.57,5.21,15.46,16,16.92a41.89,41.89,0,0,0,11.83-.25c15.25-2.33,24.41-12.5,31.31-25.23,7.36-13.58,7.06-26.79-2.94-39-40.29-49.29-87.66-90.57-141.43-124.56-9.6-6.06-17.37-2.12-21.26,9.23-2.37,6.93.1,13,4.83,18.33,8.44,9.44,17.6,18.14,28.13,25.2,31.85,21.35,52.79,51.85,71.39,84.39a28.08,28.08,0,0,1,3.44,19.15C2475.73,5488.06,2475.25,5491.35,2475,5493.05ZM2621.36,5805c0-31.39-8.17-56.22-25.44-77.89-5.87-7.36-12.68-13.74-21.42-17.6-6.72-3-13.89-.61-16.92,6.05a57.67,57.67,0,0,0-4.57,15.23c-2.81,19.11-6,38.23-7.43,57.46-1.1,14.58,1.07,29.24,5.12,43.45a53.19,53.19,0,0,0,8.58,17.92c13.94,18.29,35.14,17.8,48.23-1.21C2617.27,5834.22,2621.64,5818.38,2621.36,5805ZM394.07,3768.09a33.28,33.28,0,0,0-34.2,31.65c-.77,18.71,14.55,35.36,32.76,35.6,17.8.23,34.8-16.49,34.8-34.24C427.43,3783.76,412.05,3768.54,394.07,3768.09ZM7264.29,3801c-.09-18.51-14.16-32.78-32.44-32.87-18.69-.1-34.88,15.71-34.51,33.7.36,17.32,18.26,34.28,35.43,33.55C7250.27,3834.61,7264.37,3819.23,7264.29,3801Z"/></g></g></svg>