<svg xmlns="http://www.w3.org/2000/svg" viewBox="0 0 796.66 796.66"><g id="Capa_2" data-name="Capa 2"><g id="Capa_1-2" data-name="Capa 1"><path d="M796.65,398.6q0,177.42,0,354.84c0,34-9.12,43.18-42.78,43.18q-355.9.07-711.81,0c-32.51,0-42-9.44-42-41.76Q0,399,0,43C0,9,8.89,0,42.82,0Q398.73,0,754.64,0c32.77,0,42,9.09,42,41.59Q796.73,220.12,796.65,398.6ZM398.75,31q-169,0-337.91,0C34.83,31,31,34.78,31,60.59q-.09,337.91,0,675.82c0,25.56,3.82,29.22,30.13,29.23q336.84.06,673.67,0c27.58,0,30.81-3.2,30.81-30.58q.06-336.84,0-673.67c0-27.11-3.39-30.37-31.13-30.38Q566.63,30.95,398.75,31Z"/><path d="M397.25,286.61c-104,0-208.07-.47-312.1.43-18.3.16-22.56-5.55-22.28-22.89,1-60.55.8-121.14.08-181.7C62.78,67.83,66.69,62.91,82,63q316.38.67,632.75,0c15.29,0,19.14,4.91,19,19.51-.71,60.56-.9,121.15.09,181.7.29,17.34-4,23-22.26,22.88C606.75,286.14,502,286.61,397.25,286.61Z"/><path d="M225.24,510.06c46.26,0,92.51.48,138.75-.3,13.92-.23,18.21,3.86,18.05,18q-1.05,93.91,0,187.84c.15,13.84-3.85,18.18-17.9,18.1q-141.94-.82-283.9-.06c-12.8.06-17.34-3.55-17.22-16.81q.87-95,0-190c-.1-12.94,4-17.19,17.06-17C128.47,510.46,176.86,510.06,225.24,510.06Z"/><path d="M223.43,479.09c-47.68,0-95.36-.37-143,.24-12.73.17-17.59-3.4-17.38-16.72.66-42.69.52-85.39.06-128.08-.12-11.7,3.45-16.33,15.79-16.28q144.09.57,288.2,0c11,0,15,3.5,14.85,14.69-.47,43.4-.74,86.83.13,130.22.28,14.18-5.64,16.24-17.72,16.1C317.37,478.77,270.4,479.09,223.43,479.09Z"/><path d="M571.45,350.77c-46.24,0-92.48-.23-138.71.15-11.38.1-18.16-.76-18.38-15.54-.24-15.59,6.66-17.15,19.19-17.11q140.85.48,281.69,0c11.52,0,18.25,1.31,18.59,15.76.38,15.66-7,17-19.4,16.89C666.77,350.5,619.11,350.77,571.45,350.77Z"/><path d="M573.89,414c-46.95,0-93.9-.36-140.84.23-13.27.17-18.74-2.88-18.66-17.66.09-15.33,8.08-15,18.86-15q140.85.28,281.69,0c11,0,18.71.05,18.91,15.15s-6.25,17.58-19.12,17.45C667.79,413.71,620.84,414,573.89,414Z"/><path d="M574.66,445.89c46.94,0,93.89.27,140.84-.18,11.69-.12,18.46,1.35,18.27,15.79-.17,13.24-4.72,16.94-17.47,16.89q-141.9-.61-283.81,0c-11.88,0-17.74-1.88-18.1-16-.4-15.92,7.28-16.73,19.42-16.62C480.76,446.14,527.71,445.89,574.66,445.89Z"/><path d="M575.88,510.06c46.94,0,93.89.22,140.84-.17,11-.09,17.19,1.68,17,14.86-.21,12.07-2.54,17.91-16.47,17.84q-143-.76-286,0c-13.54.07-16.77-4.65-16.75-17.34,0-12.49,4.61-15.53,16.25-15.41C479.13,510.35,527.51,510.06,575.88,510.06Z"/><path d="M575.85,573.73c47,0,94.08.25,141.11-.18,11-.1,16.81,1.61,16.8,14.79s-4.26,17-17.22,16.94q-142.18-.67-284.37,0c-12.15,0-17.54-2.32-17.77-16.23-.26-15,6.87-15.53,18.19-15.44C480.34,574,528.1,573.73,575.85,573.73Z"/><path d="M573.66,669.2c-47,0-94.08-.24-141.12.17-11.65.11-18.07-1.33-18.16-15.84s6-15.88,17.84-15.84q142.18.54,284.37.06c10.55,0,17.34.7,17.16,14.39-.17,12.64-3.41,17.51-16.84,17.32C669.17,668.78,621.41,669.19,573.66,669.2Z"/><path d="M575.36,701.51c47,0,94,.38,141-.26,12.67-.17,17.57,3,17.41,16.55-.15,13.12-5.84,14.88-16.85,14.85q-143.14-.43-286.3.05c-11.75,0-16.27-3-16.09-15.42.17-11.67,3.08-16.17,15.53-16C478.49,701.88,526.93,701.51,575.36,701.51Z"/></g></g></svg>