<svg xmlns="http://www.w3.org/2000/svg" viewBox="0 0 224.03 224.92"><defs><style>.cls-1{fill:#00008b;}</style></defs><g id="Capa_2" data-name="Capa 2"><g id="Capa_1-2" data-name="Capa 1"><g id="Capa_2-2" data-name="Capa 2"><g id="Capa_1-2-2" data-name="Capa 1-2"><path class="cls-1" d="M163.83,224.11A52,52,0,0,1,112,171.94v-.25c0-28.2,23.51-51.58,51.68-51.54A51.94,51.94,0,0,1,216,171.71v.86C215.94,201,192.45,224.19,163.83,224.11Zm2.53-15.91c2.11-.41,3.58-.68,5-1a35.85,35.85,0,0,0,28.55-37c-.75-17.2-14.52-31.85-31.82-33.85A36.11,36.11,0,0,0,129.47,162a35,35,0,0,0,2.67,26.65c1.23,2.39,3.18,3.6,5.74,2.24,2.27-1.2,2.59-3.26,1.47-5.58a40.57,40.57,0,0,1-1.75-4.13,27.92,27.92,0,0,1,17.32-35.48c.78-.27,1.57-.5,2.37-.7,15.62-4,31.33,6.23,34.33,22.35C194.53,183,183.22,198,167,199.55c1.07-2.63,1.78-5.32-1.33-6.87-2.93-1.45-4.61.79-6.37,2.55-9.89,9.9-9.76,8.06.34,18.23,1.81,1.82,3.66,3.79,6.44,2C169.13,213.38,167.89,210.85,166.36,208.2Z"/><path class="cls-1" d="M56.29,136.11c12.49,0,25,.08,37.48,0,4.82,0,8.79,1.21,10,6.32,1.09,4.83-1.35,8.09-6,9.49-2.81.87-2.06,3.21-2.29,4.93-2.52,19.48-4.9,39-7.33,58.48A10.57,10.57,0,0,1,73.39,224c-2.3-.9-1.3-2.83-1.31-4.28-.09-14.49,0-29-.06-43.47v-3.5c-.07-2.73-1.35-4.6-4.19-4.51-2.55.08-3.73,1.88-3.78,4.39v3.5c0,14.49-.08,29,.08,43.47,0,3.32-.68,4.61-4.35,4.6-11.74,0-11.74.14-11.74-11.6v-38c0-3,0-6.24-3.81-6.34-4.23-.11-4.21,3.35-4.2,6.48,0,15-.1,30,.09,45,0,3.51-1,4.52-4.46,4.46-8.75-.15-10.79-1.69-11.9-10.44q-3.54-28-7-56c-.36-2.91-.49-5.53-4.32-6.77-3.67-1.19-5.09-4.8-4.13-8.64,1.07-4.25,4.13-6.23,8.51-6.23H56.3Z"/><path class="cls-1" d="M160,103.75c-10-8.28-20.33-13.22-32.06-15.1-5-.79-10-.37-15-.53-5.94-.2-9-3-9-9q-.1-35.21,0-70.4c0-4.91,2.82-8.29,7.32-8.53,12.4-.66,24.64.18,36.11,5.59a43.74,43.74,0,0,1,6.46,3.74,13.25,13.25,0,0,1,6.25,12.08C159.87,48.59,160,75.54,160,103.75Z"/><path class="cls-1" d="M168,103.77v-86c0-4,3.17-6.11,6-8.11,8.51-6.12,18.36-8.44,28.59-9.31a117.47,117.47,0,0,1,13-.15c5.1.15,8.32,3,8.35,8q.18,36,0,71.92c0,5.09-3.41,8-8.89,8-6.82.07-13.62-.13-20.34,1.62A66.85,66.85,0,0,0,168,103.77Z"/><path class="cls-1" d="M13.6.12a12.53,12.53,0,0,1,9.1,3.5c20.88,21.45,43.64,41.12,62,65,3.34,4.35,6.23,9,9.23,13.63,2.5,3.8,3.31,7.79-.22,11.4s-7.39,2.85-11.37.5A179.4,179.4,0,0,1,48.55,67.77C33.75,53.39,19.27,38.67,4.67,24,.26,19.67-1.25,14.53,1.11,8.58A13.65,13.65,0,0,1,13.6.12Z"/><path class="cls-1" d="M56.15,128.12c-7,0-13.95-.07-20.92,0-2.26,0-3.12-.6-3.27-3-.64-9.92,2.12-13,12-13,8.8,0,17.59-.06,26.39,0a10.39,10.39,0,0,1,9.58,14.73c-.75,1.77-2.17,1.21-3.36,1.24-3.48.09-7,0-10.46,0Z"/></g></g></g></g></svg>