<svg xmlns="http://www.w3.org/2000/svg" viewBox="0 0 1287.32 1308.94"><g id="Capa_2" data-name="Capa 2"><g id="Capa_1-2" data-name="Capa 1"><path d="M503.2,0C518.52,6.31,524,17.76,523.71,34.16c-.7,38.91-.09,77.85-.28,116.77-.1,19.26-15.75,31.81-33.69,27.55A26.64,26.64,0,0,1,469,152.39c-.22-41.92-.15-83.84,0-125.76C469,13.22,477.82,5.84,488.48,0Z"/><path d="M502.54,201.54c102.34,3.85,187.05,50.1,245.52,142.57,3.67,5.81,6.05,7.45,12.94,4.48,136.64-59,292.42,17.75,329.62,162.23,1.35,5.25,3.52,7.29,9.08,8.16,97,15.14,174.2,95.29,185.91,192.54,14.61,121.45-65.74,230-186.49,249.9-64.24,10.57-122.85-5-174.48-45.13a22.33,22.33,0,0,0-14.82-5.07q-257.31.18-514.61.09c-59.36,0-103.56-45.41-101.38-104.51.92-24.7,10.54-46.09,27.87-63.66,4.61-4.67,4.64-6.55-.74-10.62q-99.46-75.28-116.72-199c-20.41-147.75,79.23-290.82,225.4-324,8.76-2,17.64-3.52,26.52-4.88C469.39,202.65,482.76,202.29,502.54,201.54ZM256.44,508.06c3.72,83.7,46.17,155.49,130.72,201.45,2.87,1.56,5.75,3,9.17,3.2,4.87.31,7.84-.39,6.79-6.57-1.87-11.09-1.1-22.24-.07-33.42,9.39-101.93,108.28-174.59,208.66-153.05,6,1.29,8.32.66,9.94-6q18.52-76.24,78.47-127.19c4.86-4.13,5.87-6.88,2.27-12.49C647.69,288.72,569.8,248.73,469,258.63,348.57,270.45,256.52,374.83,256.44,508.06Z"/><path d="M648,964.36H403.39c-16.57,0-24.65-6-24.67-18.22s8.2-18.33,24.62-18.33H894.22a72.17,72.17,0,0,1,7.36.11,18.23,18.23,0,0,1,16.59,18.15,17.91,17.91,0,0,1-16.54,18.07,89.72,89.72,0,0,1-9,.21Z"/><path d="M162.35,137.39c9.65-.14,16.32,2.64,21.76,8.07,29.35,29.26,58.77,58.45,87.88,87.95,11.3,11.46,10.95,28.18.06,38.89a26.92,26.92,0,0,1-38.3-.06q-44.61-43.87-88.52-88.46c-8.48-8.56-10.29-19.11-5.46-30.21C144.34,143.08,152.91,138,162.35,137.39Z"/><path d="M164.09,855.4c-11.05-.91-19.76-5.77-24.32-16.34-4.79-11.12-3-21.56,5.45-30.21,15.8-16.2,31.95-32.07,47.95-48.07,12.92-12.92,25.77-25.9,38.76-38.75,12.4-12.25,28.78-12.89,40.1-1.76,11.61,11.41,11,27.91-1.74,40.65C242,789.3,213.56,817.56,185.3,846A30.17,30.17,0,0,1,164.09,855.4Z"/><path d="M855.14,161.38c.17,10.8-2.68,17.35-8.15,22.82-29.31,29.31-58.51,58.72-88,87.87a27.23,27.23,0,1,1-38.56-38.47q44-44.49,88.5-88.48c8.6-8.51,19.2-10.2,30.22-5.31C849.59,144.43,854.76,153,855.14,161.38Z"/><path d="M89.57,469.05c19.9,0,39.8-.09,59.7,0,18.12.11,30.08,11.11,30,27.36S167,523.56,149,523.58c-40.62,0-81.25.1-121.87-.06A26.63,26.63,0,0,1,.37,500.65,27,27,0,0,1,17.79,470.7c4.2-1.59,8.53-1.64,12.89-1.64Q60.13,469,89.57,469.05Z"/><path d="M381.87,1160.61c-.21-4.71,1.93-9.32,5.1-13.59q39.22-52.85,78.45-105.69c8.45-11.32,21.76-13.55,32.32-5.89,10.4,7.55,12.47,21.42,4.25,32.6q-39.5,53.67-79.37,107c-6.55,8.78-16.53,11.43-26.22,7.84C387.41,1179.58,381.73,1171.15,381.87,1160.61Z"/><path d="M787,1184.48c-8.46-.61-15.45-4.32-19.52-12.3-4.36-8.55-3.45-16.88,2.26-24.59q22.37-30.24,44.78-60.44c11-14.89,22-29.81,33.12-44.65,9.24-12.36,22.44-15,33.38-7,10.72,7.91,12.08,21.82,3.07,34-25.59,34.62-51.32,69.16-76.88,103.8C802.22,1180.14,795.92,1184.18,787,1184.48Z"/><path d="M676.27,1031c8.46.51,15.52,4.15,19.63,12.09s3.92,15.9-1.17,23.26c-6.05,8.74-12.51,17.18-18.83,25.72q-30.18,40.73-60.41,81.41c-7.38,9.91-17,13.19-27.08,9.63-15-5.29-19.74-22.51-9.61-36.3,20.81-28.33,41.85-56.49,62.79-84.72,5.36-7.22,10.66-14.49,16.08-21.67C662.22,1034.35,668.39,1031.31,676.27,1031Z"/><path d="M311.64,1308.87c-8.28-.79-15.11-4.25-19.22-11.81-4.24-7.8-4.38-16,.8-23.21,16.4-22.7,33-45.26,50-67.49,7.63-9.93,20.9-11.11,30.71-3.95s12.62,20.81,5.16,31.17c-16.06,22.28-32.59,44.22-49,66.24C325.6,1305.89,319.2,1308.53,311.64,1308.87Z"/><path d="M574.94,1221.47c-.19,4.92-2.26,9.81-5.61,14.3-15.43,20.72-30.72,41.55-46.22,62.22-8.81,11.75-22.1,14.15-32.82,6.27-10.51-7.72-12.14-21.63-3.6-33.26q23.43-31.89,47.16-63.55c6.67-8.85,16.4-11.54,26.1-8A23.07,23.07,0,0,1,574.94,1221.47Z"/><path d="M743.86,1197.88c8.33.61,15.14,4,19.45,11.44,4.47,7.75,4.84,16-.33,23.17-16.71,23.15-33.6,46.18-51.09,68.74-7.29,9.41-20.73,10-30.18,2.9-9.23-6.92-12.35-20.28-5.5-29.87,16.58-23.24,33.77-46,51-68.84C731.13,1200.16,737.29,1198.35,743.86,1197.88Z"/></g></g></svg>