<svg xmlns="http://www.w3.org/2000/svg" viewBox="0 0 354.11 401.6"><defs><style>.cls-1{fill:#264de4;}.cls-2{fill:#2965f1;}.cls-3{fill:#ebebeb;}.cls-4{fill:#fff;}</style></defs><g id="Capa_2" data-name="Capa 2"><g id="svg3476"><polygon id="polygon2989" class="cls-1" points="354.11 0 321.85 361.4 176.84 401.6 32.23 361.45 0 0 354.11 0"/><polygon id="polygon2991" class="cls-2" points="294.23 338.38 321.8 29.55 177.06 29.55 177.06 370.87 294.23 338.38"/><polygon id="polygon2993" class="cls-3" points="73.88 163.61 77.85 207.94 177.06 207.94 177.06 163.61 73.88 163.61"/><polygon id="polygon2995" class="cls-3" points="177.06 73.89 176.9 73.89 65.89 73.89 69.92 118.22 177.06 118.22 177.06 73.89"/><polygon id="polygon2997" class="cls-3" points="177.06 324.87 177.06 278.75 176.86 278.8 127.49 265.46 124.33 230.11 100.34 230.11 79.83 230.11 86.04 299.71 176.85 324.92 177.06 324.87"/><polygon id="polygon3005" class="cls-4" points="231.49 207.94 226.34 265.44 176.9 278.78 176.9 324.9 267.78 299.71 268.45 292.23 278.87 175.52 279.95 163.61 287.95 73.89 176.9 73.89 176.9 118.22 239.37 118.22 235.34 163.61 176.9 163.61 176.9 207.94 231.49 207.94"/></g></g></svg>