<svg xmlns="http://www.w3.org/2000/svg" viewBox="0 0 372.24 190.09"><defs><style>.cls-1{fill:#eb7077;stroke:#eb7077;}.cls-1,.cls-2{stroke-width:0.09px;}.cls-2{fill:#f6a2ad;stroke:#f6a2ad;}</style></defs><g id="Capa_2" data-name="Capa 2"><g id="Capa_1-2" data-name="Capa 1"><path class="cls-1" d="M91.89,5.73A12.74,12.74,0,0,1,97.5.16a17.88,17.88,0,0,1,3.1-.09h50.86a16.92,16.92,0,0,0-3.91,4.27,68.43,68.43,0,0,0-6,13.79C137,32.51,133.8,47.29,130.7,62.07c-1.39,6.69-2.74,13.43-4,20.13-3.87,21.92-7.87,43.8-12.85,65.5-2.38,10-4.81,20-8.49,29.7-1.71,4-3.37,8.26-6.65,11.23-.77.67-1.53,1.53-2.61,1.39H51.18c-3-.09-6.06.18-9.12-.13a17.94,17.94,0,0,0,5-5.71c3.37-6.42,5.48-13.39,7.5-20.31,3.15-11.14,5.66-22.41,8-33.69,1.49-7.41,3.24-14.78,4.32-22.24,1.21-8.31,3-16.53,4.54-24.8C73.78,71,76.25,58.79,79,46.7c2.2-9.43,4.45-18.82,7.46-28A70.62,70.62,0,0,1,91.89,5.73Z"/><path class="cls-2" d="M151.46.07c1.3,0,2.61,0,3.91,0A15,15,0,0,1,162,7a87.19,87.19,0,0,1,4.63,10.7c4.49,13.88,7.54,28.17,10.6,42.41q3.9,19.14,7.41,38.41c.18.67,0,1.62.86,1.8-3.24,16.89-6.43,33.83-10.47,50.59a222.91,222.91,0,0,1-7.86,26.73c-1.8,4.35-3.64,9.12-7.46,12.22-2.43.54-4.18-1.31-5.66-3-2.56-3.28-4.14-7.14-5.66-11-5.08-13.83-8.18-28.25-11.33-42.63-2.38-11.19-4.49-22.46-6.69-33.7-1-5.7-2.34-11.32-3.1-17l-.58-.36c1.25-6.7,2.6-13.44,4-20.13,3.1-14.78,6.29-29.56,10.88-43.94a68.43,68.43,0,0,1,6-13.79A16.92,16.92,0,0,1,151.46.07Z"/><path class="cls-1" d="M207.66,7.84c1.62-3.1,3.6-6.56,7.1-7.73,17.84-.09,35.68,0,53.51,0a24,24,0,0,0-4.54,5.44c-3.46,6.2-5.48,13.07-7.54,19.85-5.31,18.69-9,37.79-12.58,56.88-3.28,18.83-6.79,37.65-10.79,56.39-2.06,9.43-4.22,18.82-7,28.12-1.75,5.75-3.59,11.55-6.47,16.89-1.39,2.43-3,5.08-5.66,6.34-17,.13-34.1,0-51.13,0a21.21,21.21,0,0,1-2.87-.13c3.82-3.1,5.66-7.87,7.46-12.22a222.91,222.91,0,0,0,7.86-26.73c4-16.76,7.23-33.7,10.47-50.59,3.9-21.79,8-43.58,13.2-65.1C201.15,26,203.49,16.51,207.66,7.84Z"/><path class="cls-2" d="M268.27.07c1.44,0,2.92,0,4.36,0a16.06,16.06,0,0,1,5.48,5.39c2.43,3.86,3.95,8.22,5.53,12.49a360.25,360.25,0,0,1,9.07,35c3.42,15.86,6.38,31.81,9.3,47.76.72,3.82,1.44,7.68,1.89,11.54l.67.68c-1.61,2.24-2.24,4.94-3.14,7.5a213.91,213.91,0,0,0-6.25,27.94A150.05,150.05,0,0,1,290,170.16c-1.71,5.26-3.78,10.47-7.19,14.87a16,16,0,0,1-6.25,4.81c-3.73.41-5.93-3.19-7.72-5.84-3.73-6.51-5.75-13.79-7.91-20.89-7.1-26.28-11.73-53.19-16.71-79.93a1.19,1.19,0,0,0-.63-.94c3.55-19.09,7.27-38.19,12.58-56.88,2.06-6.78,4.08-13.65,7.54-19.85A24,24,0,0,1,268.27.07Z"/><path class="cls-2" d="M0,102.28c1.17-.09,2.34-.27,3.55-.27h49c2.07.27,4.22.09,6.2,1a17.59,17.59,0,0,1,7.32,5.61,10,10,0,0,0,.86-.67c-1.08,7.46-2.83,14.83-4.32,22.24-2.38,11.28-4.89,22.55-8,33.69-2,6.92-4.13,13.89-7.5,20.31a17.94,17.94,0,0,1-5,5.71c-.76.13-1.34-.41-2-.81-2.12-1.35-3.33-3.69-4.63-5.8-6.16-14-6.83-29.51-10.65-44.16A102.62,102.62,0,0,0,17,117.78a39.48,39.48,0,0,0-8.26-11A22.34,22.34,0,0,0,0,102.28Z"/><path class="cls-1" d="M308.53,107a14.65,14.65,0,0,1,11.32-5h36.84c5.12.09,10.29-.18,15.41.13-1.53,1-3.37,1.44-5,2.3a29.8,29.8,0,0,0-13.48,12.17c-4.89,8.54-6.6,18.33-8,28-1.44,9.43-1.39,19.18-4.45,28.34-2.06,6.43-5.21,12.9-10.64,17.12-16.9.18-33.79,0-50.64.09a15.56,15.56,0,0,1-3.28-.18,16,16,0,0,0,6.25-4.81c3.41-4.4,5.48-9.61,7.19-14.87a150.05,150.05,0,0,0,5.16-21.79,213.91,213.91,0,0,1,6.25-27.94c.9-2.56,1.53-5.26,3.14-7.5C305.92,111,306.82,108.66,308.53,107Z"/></g></g></svg>