<svg xmlns="http://www.w3.org/2000/svg" viewBox="0 0 14930.04 7771.79"><defs><style>.cls-1{fill:#8993be;}.cls-2{fill:#232531;fill-rule:evenodd;}</style></defs><g id="Capa_2" data-name="Capa 2"><g id="Capa_1-2" data-name="Capa 1"><ellipse class="cls-1" cx="7465.02" cy="3885.89" rx="7465.02" ry="3885.89"/><path class="cls-2" d="M-4059.89-226.65l818.12-4141.57H-1350c818.06,51.15,1227.12,460.15,1227.12,1176,0,1227.13-971.44,1943-1840.71,1891.8h-920.24L-3088.39-226.65Zm1380.5-1840.65,255.68-1533.94H-1759c357.91,0,613.53,153.38,613.53,460.14-51.09,869.27-460.15,1022.65-920.3,1073.8h-613.59ZM-313-1300.39,505.09-5441.9h971.5L1272.06-4368.22h920.29c818.12,51.15,1124.89,460.15,1022.65,971.5L2857.09-1300.39H1834.5l357.91-1891.8c51.09-255.67,51.09-409.06-306.76-409.06h-767L658.53-1300.39ZM2791.6-226.65l818.06-4141.57h1891.8c818.12,51.15,1227.18,460.15,1227.18,1176,0,1227.13-971.5,1943-1840.71,1891.8H3967.57L3763-226.65ZM4172-2067.3l255.68-1533.95h664.74c357.91,0,613.53,153.39,613.53,460.15-51.09,869.27-460.15,1022.65-920.3,1073.8H4172Z" transform="translate(6156.22 6413.4)"/></g></g></svg>